<?xml version="1.0" encoding="utf-8" standalone="no"?>
<!DOCTYPE svg PUBLIC "-//W3C//DTD SVG 1.1//EN"
  "http://www.w3.org/Graphics/SVG/1.1/DTD/svg11.dtd">
<svg xmlns:xlink="http://www.w3.org/1999/xlink" width="568.384926pt" height="566.807625pt" viewBox="0 0 568.384926 566.807625" xmlns="http://www.w3.org/2000/svg" version="1.1">
 <metadata>
  <rdf:RDF xmlns:dc="http://purl.org/dc/elements/1.1/" xmlns:cc="http://creativecommons.org/ns#" xmlns:rdf="http://www.w3.org/1999/02/22-rdf-syntax-ns#">
   <cc:Work>
    <dc:type rdf:resource="http://purl.org/dc/dcmitype/StillImage"/>
    <dc:date>2023-09-10T23:10:05.016923</dc:date>
    <dc:format>image/svg+xml</dc:format>
    <dc:creator>
     <cc:Agent>
      <dc:title>Matplotlib v3.7.1, https://matplotlib.org/</dc:title>
     </cc:Agent>
    </dc:creator>
   </cc:Work>
  </rdf:RDF>
 </metadata>
 <defs>
  <style type="text/css">*{stroke-linejoin: round; stroke-linecap: butt}</style>
 </defs>
 <g id="figure_1">
  <g id="patch_1">
   <path d="M 0 566.807625 
L 568.384926 566.807625 
L 568.384926 0 
L 0 0 
z
" style="fill: #ffffff"/>
  </g>
  <g id="axes_1">
   <g id="patch_2">
    <path d="M 75.570625 513.169812 
L 561.184926 513.169812 
L 561.184926 20.837812 
L 75.570625 20.837812 
z
" style="fill: #ffffff"/>
   </g>
   <g id="matplotlib.axis_1">
    <g id="xtick_1">
     <g id="line2d_1">
      <defs>
       <path id="m97be7d03b4" d="M 0 0 
L 0 3.5 
" style="stroke: #000000"/>
      </defs>
      <g>
       <use xlink:href="#m97be7d03b4" x="137.127367" y="513.169812" style="stroke: #000000"/>
      </g>
     </g>
     <g id="text_1">
      <!-- $\mathdefault{0.5}$ -->
      <g transform="translate(125.127367 535.067469) scale(0.15 -0.15)">
       <defs>
        <path id="DejaVuSans-30" d="M 2034 4250 
Q 1547 4250 1301 3770 
Q 1056 3291 1056 2328 
Q 1056 1369 1301 889 
Q 1547 409 2034 409 
Q 2525 409 2770 889 
Q 3016 1369 3016 2328 
Q 3016 3291 2770 3770 
Q 2525 4250 2034 4250 
z
M 2034 4750 
Q 2819 4750 3233 4129 
Q 3647 3509 3647 2328 
Q 3647 1150 3233 529 
Q 2819 -91 2034 -91 
Q 1250 -91 836 529 
Q 422 1150 422 2328 
Q 422 3509 836 4129 
Q 1250 4750 2034 4750 
z
" transform="scale(0.015625)"/>
        <path id="DejaVuSans-2e" d="M 684 794 
L 1344 794 
L 1344 0 
L 684 0 
L 684 794 
z
" transform="scale(0.015625)"/>
        <path id="DejaVuSans-35" d="M 691 4666 
L 3169 4666 
L 3169 4134 
L 1269 4134 
L 1269 2991 
Q 1406 3038 1543 3061 
Q 1681 3084 1819 3084 
Q 2600 3084 3056 2656 
Q 3513 2228 3513 1497 
Q 3513 744 3044 326 
Q 2575 -91 1722 -91 
Q 1428 -91 1123 -41 
Q 819 9 494 109 
L 494 744 
Q 775 591 1075 516 
Q 1375 441 1709 441 
Q 2250 441 2565 725 
Q 2881 1009 2881 1497 
Q 2881 1984 2565 2268 
Q 2250 2553 1709 2553 
Q 1456 2553 1204 2497 
Q 953 2441 691 2322 
L 691 4666 
z
" transform="scale(0.015625)"/>
       </defs>
       <use xlink:href="#DejaVuSans-30" transform="translate(0 0.78125)"/>
       <use xlink:href="#DejaVuSans-2e" transform="translate(63.623047 0.78125)"/>
       <use xlink:href="#DejaVuSans-35" transform="translate(95.410156 0.78125)"/>
      </g>
     </g>
    </g>
    <g id="xtick_2">
     <g id="line2d_2">
      <g>
       <use xlink:href="#m97be7d03b4" x="205.523748" y="513.169812" style="stroke: #000000"/>
      </g>
     </g>
     <g id="text_2">
      <!-- $\mathdefault{1.0}$ -->
      <g transform="translate(193.523748 535.067469) scale(0.15 -0.15)">
       <defs>
        <path id="DejaVuSans-31" d="M 794 531 
L 1825 531 
L 1825 4091 
L 703 3866 
L 703 4441 
L 1819 4666 
L 2450 4666 
L 2450 531 
L 3481 531 
L 3481 0 
L 794 0 
L 794 531 
z
" transform="scale(0.015625)"/>
       </defs>
       <use xlink:href="#DejaVuSans-31" transform="translate(0 0.78125)"/>
       <use xlink:href="#DejaVuSans-2e" transform="translate(63.623047 0.78125)"/>
       <use xlink:href="#DejaVuSans-30" transform="translate(95.410156 0.78125)"/>
      </g>
     </g>
    </g>
    <g id="xtick_3">
     <g id="line2d_3">
      <g>
       <use xlink:href="#m97be7d03b4" x="273.920128" y="513.169812" style="stroke: #000000"/>
      </g>
     </g>
     <g id="text_3">
      <!-- $\mathdefault{1.5}$ -->
      <g transform="translate(261.920128 535.067469) scale(0.15 -0.15)">
       <use xlink:href="#DejaVuSans-31" transform="translate(0 0.09375)"/>
       <use xlink:href="#DejaVuSans-2e" transform="translate(63.623047 0.09375)"/>
       <use xlink:href="#DejaVuSans-35" transform="translate(95.410156 0.09375)"/>
      </g>
     </g>
    </g>
    <g id="xtick_4">
     <g id="line2d_4">
      <g>
       <use xlink:href="#m97be7d03b4" x="342.316508" y="513.169812" style="stroke: #000000"/>
      </g>
     </g>
     <g id="text_4">
      <!-- $\mathdefault{2.0}$ -->
      <g transform="translate(330.316508 535.067469) scale(0.15 -0.15)">
       <defs>
        <path id="DejaVuSans-32" d="M 1228 531 
L 3431 531 
L 3431 0 
L 469 0 
L 469 531 
Q 828 903 1448 1529 
Q 2069 2156 2228 2338 
Q 2531 2678 2651 2914 
Q 2772 3150 2772 3378 
Q 2772 3750 2511 3984 
Q 2250 4219 1831 4219 
Q 1534 4219 1204 4116 
Q 875 4013 500 3803 
L 500 4441 
Q 881 4594 1212 4672 
Q 1544 4750 1819 4750 
Q 2544 4750 2975 4387 
Q 3406 4025 3406 3419 
Q 3406 3131 3298 2873 
Q 3191 2616 2906 2266 
Q 2828 2175 2409 1742 
Q 1991 1309 1228 531 
z
" transform="scale(0.015625)"/>
       </defs>
       <use xlink:href="#DejaVuSans-32" transform="translate(0 0.78125)"/>
       <use xlink:href="#DejaVuSans-2e" transform="translate(63.623047 0.78125)"/>
       <use xlink:href="#DejaVuSans-30" transform="translate(95.410156 0.78125)"/>
      </g>
     </g>
    </g>
    <g id="xtick_5">
     <g id="line2d_5">
      <g>
       <use xlink:href="#m97be7d03b4" x="410.712889" y="513.169812" style="stroke: #000000"/>
      </g>
     </g>
     <g id="text_5">
      <!-- $\mathdefault{2.5}$ -->
      <g transform="translate(398.712889 535.067469) scale(0.15 -0.15)">
       <use xlink:href="#DejaVuSans-32" transform="translate(0 0.78125)"/>
       <use xlink:href="#DejaVuSans-2e" transform="translate(63.623047 0.78125)"/>
       <use xlink:href="#DejaVuSans-35" transform="translate(95.410156 0.78125)"/>
      </g>
     </g>
    </g>
    <g id="xtick_6">
     <g id="line2d_6">
      <g>
       <use xlink:href="#m97be7d03b4" x="479.109269" y="513.169812" style="stroke: #000000"/>
      </g>
     </g>
     <g id="text_6">
      <!-- $\mathdefault{3.0}$ -->
      <g transform="translate(467.109269 535.067469) scale(0.15 -0.15)">
       <defs>
        <path id="DejaVuSans-33" d="M 2597 2516 
Q 3050 2419 3304 2112 
Q 3559 1806 3559 1356 
Q 3559 666 3084 287 
Q 2609 -91 1734 -91 
Q 1441 -91 1130 -33 
Q 819 25 488 141 
L 488 750 
Q 750 597 1062 519 
Q 1375 441 1716 441 
Q 2309 441 2620 675 
Q 2931 909 2931 1356 
Q 2931 1769 2642 2001 
Q 2353 2234 1838 2234 
L 1294 2234 
L 1294 2753 
L 1863 2753 
Q 2328 2753 2575 2939 
Q 2822 3125 2822 3475 
Q 2822 3834 2567 4026 
Q 2313 4219 1838 4219 
Q 1578 4219 1281 4162 
Q 984 4106 628 3988 
L 628 4550 
Q 988 4650 1302 4700 
Q 1616 4750 1894 4750 
Q 2613 4750 3031 4423 
Q 3450 4097 3450 3541 
Q 3450 3153 3228 2886 
Q 3006 2619 2597 2516 
z
" transform="scale(0.015625)"/>
       </defs>
       <use xlink:href="#DejaVuSans-33" transform="translate(0 0.78125)"/>
       <use xlink:href="#DejaVuSans-2e" transform="translate(63.623047 0.78125)"/>
       <use xlink:href="#DejaVuSans-30" transform="translate(95.410156 0.78125)"/>
      </g>
     </g>
    </g>
    <g id="xtick_7">
     <g id="line2d_7">
      <g>
       <use xlink:href="#m97be7d03b4" x="547.505649" y="513.169812" style="stroke: #000000"/>
      </g>
     </g>
     <g id="text_7">
      <!-- $\mathdefault{3.5}$ -->
      <g transform="translate(535.505649 535.067469) scale(0.15 -0.15)">
       <use xlink:href="#DejaVuSans-33" transform="translate(0 0.78125)"/>
       <use xlink:href="#DejaVuSans-2e" transform="translate(63.623047 0.78125)"/>
       <use xlink:href="#DejaVuSans-35" transform="translate(95.410156 0.78125)"/>
      </g>
     </g>
    </g>
    <g id="text_8">
     <!-- Altitude of David (km) -->
     <g transform="translate(218.965744 555.864187) scale(0.18 -0.18)">
      <defs>
       <path id="DejaVuSans-41" d="M 2188 4044 
L 1331 1722 
L 3047 1722 
L 2188 4044 
z
M 1831 4666 
L 2547 4666 
L 4325 0 
L 3669 0 
L 3244 1197 
L 1141 1197 
L 716 0 
L 50 0 
L 1831 4666 
z
" transform="scale(0.015625)"/>
       <path id="DejaVuSans-6c" d="M 603 4863 
L 1178 4863 
L 1178 0 
L 603 0 
L 603 4863 
z
" transform="scale(0.015625)"/>
       <path id="DejaVuSans-74" d="M 1172 4494 
L 1172 3500 
L 2356 3500 
L 2356 3053 
L 1172 3053 
L 1172 1153 
Q 1172 725 1289 603 
Q 1406 481 1766 481 
L 2356 481 
L 2356 0 
L 1766 0 
Q 1100 0 847 248 
Q 594 497 594 1153 
L 594 3053 
L 172 3053 
L 172 3500 
L 594 3500 
L 594 4494 
L 1172 4494 
z
" transform="scale(0.015625)"/>
       <path id="DejaVuSans-69" d="M 603 3500 
L 1178 3500 
L 1178 0 
L 603 0 
L 603 3500 
z
M 603 4863 
L 1178 4863 
L 1178 4134 
L 603 4134 
L 603 4863 
z
" transform="scale(0.015625)"/>
       <path id="DejaVuSans-75" d="M 544 1381 
L 544 3500 
L 1119 3500 
L 1119 1403 
Q 1119 906 1312 657 
Q 1506 409 1894 409 
Q 2359 409 2629 706 
Q 2900 1003 2900 1516 
L 2900 3500 
L 3475 3500 
L 3475 0 
L 2900 0 
L 2900 538 
Q 2691 219 2414 64 
Q 2138 -91 1772 -91 
Q 1169 -91 856 284 
Q 544 659 544 1381 
z
M 1991 3584 
L 1991 3584 
z
" transform="scale(0.015625)"/>
       <path id="DejaVuSans-64" d="M 2906 2969 
L 2906 4863 
L 3481 4863 
L 3481 0 
L 2906 0 
L 2906 525 
Q 2725 213 2448 61 
Q 2172 -91 1784 -91 
Q 1150 -91 751 415 
Q 353 922 353 1747 
Q 353 2572 751 3078 
Q 1150 3584 1784 3584 
Q 2172 3584 2448 3432 
Q 2725 3281 2906 2969 
z
M 947 1747 
Q 947 1113 1208 752 
Q 1469 391 1925 391 
Q 2381 391 2643 752 
Q 2906 1113 2906 1747 
Q 2906 2381 2643 2742 
Q 2381 3103 1925 3103 
Q 1469 3103 1208 2742 
Q 947 2381 947 1747 
z
" transform="scale(0.015625)"/>
       <path id="DejaVuSans-65" d="M 3597 1894 
L 3597 1613 
L 953 1613 
Q 991 1019 1311 708 
Q 1631 397 2203 397 
Q 2534 397 2845 478 
Q 3156 559 3463 722 
L 3463 178 
Q 3153 47 2828 -22 
Q 2503 -91 2169 -91 
Q 1331 -91 842 396 
Q 353 884 353 1716 
Q 353 2575 817 3079 
Q 1281 3584 2069 3584 
Q 2775 3584 3186 3129 
Q 3597 2675 3597 1894 
z
M 3022 2063 
Q 3016 2534 2758 2815 
Q 2500 3097 2075 3097 
Q 1594 3097 1305 2825 
Q 1016 2553 972 2059 
L 3022 2063 
z
" transform="scale(0.015625)"/>
       <path id="DejaVuSans-20" transform="scale(0.015625)"/>
       <path id="DejaVuSans-6f" d="M 1959 3097 
Q 1497 3097 1228 2736 
Q 959 2375 959 1747 
Q 959 1119 1226 758 
Q 1494 397 1959 397 
Q 2419 397 2687 759 
Q 2956 1122 2956 1747 
Q 2956 2369 2687 2733 
Q 2419 3097 1959 3097 
z
M 1959 3584 
Q 2709 3584 3137 3096 
Q 3566 2609 3566 1747 
Q 3566 888 3137 398 
Q 2709 -91 1959 -91 
Q 1206 -91 779 398 
Q 353 888 353 1747 
Q 353 2609 779 3096 
Q 1206 3584 1959 3584 
z
" transform="scale(0.015625)"/>
       <path id="DejaVuSans-66" d="M 2375 4863 
L 2375 4384 
L 1825 4384 
Q 1516 4384 1395 4259 
Q 1275 4134 1275 3809 
L 1275 3500 
L 2222 3500 
L 2222 3053 
L 1275 3053 
L 1275 0 
L 697 0 
L 697 3053 
L 147 3053 
L 147 3500 
L 697 3500 
L 697 3744 
Q 697 4328 969 4595 
Q 1241 4863 1831 4863 
L 2375 4863 
z
" transform="scale(0.015625)"/>
       <path id="DejaVuSans-44" d="M 1259 4147 
L 1259 519 
L 2022 519 
Q 2988 519 3436 956 
Q 3884 1394 3884 2338 
Q 3884 3275 3436 3711 
Q 2988 4147 2022 4147 
L 1259 4147 
z
M 628 4666 
L 1925 4666 
Q 3281 4666 3915 4102 
Q 4550 3538 4550 2338 
Q 4550 1131 3912 565 
Q 3275 0 1925 0 
L 628 0 
L 628 4666 
z
" transform="scale(0.015625)"/>
       <path id="DejaVuSans-61" d="M 2194 1759 
Q 1497 1759 1228 1600 
Q 959 1441 959 1056 
Q 959 750 1161 570 
Q 1363 391 1709 391 
Q 2188 391 2477 730 
Q 2766 1069 2766 1631 
L 2766 1759 
L 2194 1759 
z
M 3341 1997 
L 3341 0 
L 2766 0 
L 2766 531 
Q 2569 213 2275 61 
Q 1981 -91 1556 -91 
Q 1019 -91 701 211 
Q 384 513 384 1019 
Q 384 1609 779 1909 
Q 1175 2209 1959 2209 
L 2766 2209 
L 2766 2266 
Q 2766 2663 2505 2880 
Q 2244 3097 1772 3097 
Q 1472 3097 1187 3025 
Q 903 2953 641 2809 
L 641 3341 
Q 956 3463 1253 3523 
Q 1550 3584 1831 3584 
Q 2591 3584 2966 3190 
Q 3341 2797 3341 1997 
z
" transform="scale(0.015625)"/>
       <path id="DejaVuSans-76" d="M 191 3500 
L 800 3500 
L 1894 563 
L 2988 3500 
L 3597 3500 
L 2284 0 
L 1503 0 
L 191 3500 
z
" transform="scale(0.015625)"/>
       <path id="DejaVuSans-28" d="M 1984 4856 
Q 1566 4138 1362 3434 
Q 1159 2731 1159 2009 
Q 1159 1288 1364 580 
Q 1569 -128 1984 -844 
L 1484 -844 
Q 1016 -109 783 600 
Q 550 1309 550 2009 
Q 550 2706 781 3412 
Q 1013 4119 1484 4856 
L 1984 4856 
z
" transform="scale(0.015625)"/>
       <path id="DejaVuSans-6b" d="M 581 4863 
L 1159 4863 
L 1159 1991 
L 2875 3500 
L 3609 3500 
L 1753 1863 
L 3688 0 
L 2938 0 
L 1159 1709 
L 1159 0 
L 581 0 
L 581 4863 
z
" transform="scale(0.015625)"/>
       <path id="DejaVuSans-6d" d="M 3328 2828 
Q 3544 3216 3844 3400 
Q 4144 3584 4550 3584 
Q 5097 3584 5394 3201 
Q 5691 2819 5691 2113 
L 5691 0 
L 5113 0 
L 5113 2094 
Q 5113 2597 4934 2840 
Q 4756 3084 4391 3084 
Q 3944 3084 3684 2787 
Q 3425 2491 3425 1978 
L 3425 0 
L 2847 0 
L 2847 2094 
Q 2847 2600 2669 2842 
Q 2491 3084 2119 3084 
Q 1678 3084 1418 2786 
Q 1159 2488 1159 1978 
L 1159 0 
L 581 0 
L 581 3500 
L 1159 3500 
L 1159 2956 
Q 1356 3278 1631 3431 
Q 1906 3584 2284 3584 
Q 2666 3584 2933 3390 
Q 3200 3197 3328 2828 
z
" transform="scale(0.015625)"/>
       <path id="DejaVuSans-29" d="M 513 4856 
L 1013 4856 
Q 1481 4119 1714 3412 
Q 1947 2706 1947 2009 
Q 1947 1309 1714 600 
Q 1481 -109 1013 -844 
L 513 -844 
Q 928 -128 1133 580 
Q 1338 1288 1338 2009 
Q 1338 2731 1133 3434 
Q 928 4138 513 4856 
z
" transform="scale(0.015625)"/>
      </defs>
      <use xlink:href="#DejaVuSans-41"/>
      <use xlink:href="#DejaVuSans-6c" x="68.408203"/>
      <use xlink:href="#DejaVuSans-74" x="96.191406"/>
      <use xlink:href="#DejaVuSans-69" x="135.400391"/>
      <use xlink:href="#DejaVuSans-74" x="163.183594"/>
      <use xlink:href="#DejaVuSans-75" x="202.392578"/>
      <use xlink:href="#DejaVuSans-64" x="265.771484"/>
      <use xlink:href="#DejaVuSans-65" x="329.248047"/>
      <use xlink:href="#DejaVuSans-20" x="390.771484"/>
      <use xlink:href="#DejaVuSans-6f" x="422.558594"/>
      <use xlink:href="#DejaVuSans-66" x="483.740234"/>
      <use xlink:href="#DejaVuSans-20" x="518.945312"/>
      <use xlink:href="#DejaVuSans-44" x="550.732422"/>
      <use xlink:href="#DejaVuSans-61" x="627.734375"/>
      <use xlink:href="#DejaVuSans-76" x="689.013672"/>
      <use xlink:href="#DejaVuSans-69" x="748.193359"/>
      <use xlink:href="#DejaVuSans-64" x="775.976562"/>
      <use xlink:href="#DejaVuSans-20" x="839.453125"/>
      <use xlink:href="#DejaVuSans-28" x="871.240234"/>
      <use xlink:href="#DejaVuSans-6b" x="910.253906"/>
      <use xlink:href="#DejaVuSans-6d" x="968.164062"/>
      <use xlink:href="#DejaVuSans-29" x="1065.576172"/>
     </g>
    </g>
    <g id="text_9">
     <!-- $\times\mathdefault{10^{4}}\mathdefault{}$ -->
     <g transform="translate(524.784926 551.824812) scale(0.14 -0.14)">
      <defs>
       <path id="DejaVuSans-d7" d="M 4488 3438 
L 3059 2003 
L 4488 575 
L 4116 197 
L 2681 1631 
L 1247 197 
L 878 575 
L 2303 2003 
L 878 3438 
L 1247 3816 
L 2681 2381 
L 4116 3816 
L 4488 3438 
z
" transform="scale(0.015625)"/>
       <path id="DejaVuSans-34" d="M 2419 4116 
L 825 1625 
L 2419 1625 
L 2419 4116 
z
M 2253 4666 
L 3047 4666 
L 3047 1625 
L 3713 1625 
L 3713 1100 
L 3047 1100 
L 3047 0 
L 2419 0 
L 2419 1100 
L 313 1100 
L 313 1709 
L 2253 4666 
z
" transform="scale(0.015625)"/>
      </defs>
      <use xlink:href="#DejaVuSans-d7" transform="translate(0 0.684375)"/>
      <use xlink:href="#DejaVuSans-31" transform="translate(83.789062 0.684375)"/>
      <use xlink:href="#DejaVuSans-30" transform="translate(147.412109 0.684375)"/>
      <use xlink:href="#DejaVuSans-34" transform="translate(211.992188 38.965625) scale(0.7)"/>
     </g>
    </g>
   </g>
   <g id="matplotlib.axis_2">
    <g id="ytick_1">
     <g id="line2d_8">
      <defs>
       <path id="mb3b7fccb16" d="M 0 0 
L -3.5 0 
" style="stroke: #000000"/>
      </defs>
      <g>
       <use xlink:href="#mb3b7fccb16" x="75.570625" y="493.038377" style="stroke: #000000"/>
      </g>
     </g>
     <g id="text_10">
      <!-- $\mathdefault{−1.2}$ -->
      <g transform="translate(29.370625 498.737205) scale(0.15 -0.15)">
       <defs>
        <path id="DejaVuSans-2212" d="M 678 2272 
L 4684 2272 
L 4684 1741 
L 678 1741 
L 678 2272 
z
" transform="scale(0.015625)"/>
       </defs>
       <use xlink:href="#DejaVuSans-2212" transform="translate(0 0.78125)"/>
       <use xlink:href="#DejaVuSans-31" transform="translate(83.789062 0.78125)"/>
       <use xlink:href="#DejaVuSans-2e" transform="translate(147.412109 0.78125)"/>
       <use xlink:href="#DejaVuSans-32" transform="translate(173.699219 0.78125)"/>
      </g>
     </g>
    </g>
    <g id="ytick_2">
     <g id="line2d_9">
      <g>
       <use xlink:href="#mb3b7fccb16" x="75.570625" y="414.338283" style="stroke: #000000"/>
      </g>
     </g>
     <g id="text_11">
      <!-- $\mathdefault{−1.0}$ -->
      <g transform="translate(28.620625 420.037111) scale(0.15 -0.15)">
       <use xlink:href="#DejaVuSans-2212" transform="translate(0 0.78125)"/>
       <use xlink:href="#DejaVuSans-31" transform="translate(83.789062 0.78125)"/>
       <use xlink:href="#DejaVuSans-2e" transform="translate(147.412109 0.78125)"/>
       <use xlink:href="#DejaVuSans-30" transform="translate(179.199219 0.78125)"/>
      </g>
     </g>
    </g>
    <g id="ytick_3">
     <g id="line2d_10">
      <g>
       <use xlink:href="#mb3b7fccb16" x="75.570625" y="335.638189" style="stroke: #000000"/>
      </g>
     </g>
     <g id="text_12">
      <!-- $\mathdefault{−0.8}$ -->
      <g transform="translate(28.920625 341.337017) scale(0.15 -0.15)">
       <defs>
        <path id="DejaVuSans-38" d="M 2034 2216 
Q 1584 2216 1326 1975 
Q 1069 1734 1069 1313 
Q 1069 891 1326 650 
Q 1584 409 2034 409 
Q 2484 409 2743 651 
Q 3003 894 3003 1313 
Q 3003 1734 2745 1975 
Q 2488 2216 2034 2216 
z
M 1403 2484 
Q 997 2584 770 2862 
Q 544 3141 544 3541 
Q 544 4100 942 4425 
Q 1341 4750 2034 4750 
Q 2731 4750 3128 4425 
Q 3525 4100 3525 3541 
Q 3525 3141 3298 2862 
Q 3072 2584 2669 2484 
Q 3125 2378 3379 2068 
Q 3634 1759 3634 1313 
Q 3634 634 3220 271 
Q 2806 -91 2034 -91 
Q 1263 -91 848 271 
Q 434 634 434 1313 
Q 434 1759 690 2068 
Q 947 2378 1403 2484 
z
M 1172 3481 
Q 1172 3119 1398 2916 
Q 1625 2713 2034 2713 
Q 2441 2713 2670 2916 
Q 2900 3119 2900 3481 
Q 2900 3844 2670 4047 
Q 2441 4250 2034 4250 
Q 1625 4250 1398 4047 
Q 1172 3844 1172 3481 
z
" transform="scale(0.015625)"/>
       </defs>
       <use xlink:href="#DejaVuSans-2212" transform="translate(0 0.78125)"/>
       <use xlink:href="#DejaVuSans-30" transform="translate(83.789062 0.78125)"/>
       <use xlink:href="#DejaVuSans-2e" transform="translate(147.412109 0.78125)"/>
       <use xlink:href="#DejaVuSans-38" transform="translate(176.574219 0.78125)"/>
      </g>
     </g>
    </g>
    <g id="ytick_4">
     <g id="line2d_11">
      <g>
       <use xlink:href="#mb3b7fccb16" x="75.570625" y="256.938095" style="stroke: #000000"/>
      </g>
     </g>
     <g id="text_13">
      <!-- $\mathdefault{−0.6}$ -->
      <g transform="translate(28.620625 262.636923) scale(0.15 -0.15)">
       <defs>
        <path id="DejaVuSans-36" d="M 2113 2584 
Q 1688 2584 1439 2293 
Q 1191 2003 1191 1497 
Q 1191 994 1439 701 
Q 1688 409 2113 409 
Q 2538 409 2786 701 
Q 3034 994 3034 1497 
Q 3034 2003 2786 2293 
Q 2538 2584 2113 2584 
z
M 3366 4563 
L 3366 3988 
Q 3128 4100 2886 4159 
Q 2644 4219 2406 4219 
Q 1781 4219 1451 3797 
Q 1122 3375 1075 2522 
Q 1259 2794 1537 2939 
Q 1816 3084 2150 3084 
Q 2853 3084 3261 2657 
Q 3669 2231 3669 1497 
Q 3669 778 3244 343 
Q 2819 -91 2113 -91 
Q 1303 -91 875 529 
Q 447 1150 447 2328 
Q 447 3434 972 4092 
Q 1497 4750 2381 4750 
Q 2619 4750 2861 4703 
Q 3103 4656 3366 4563 
z
" transform="scale(0.015625)"/>
       </defs>
       <use xlink:href="#DejaVuSans-2212" transform="translate(0 0.78125)"/>
       <use xlink:href="#DejaVuSans-30" transform="translate(83.789062 0.78125)"/>
       <use xlink:href="#DejaVuSans-2e" transform="translate(147.412109 0.78125)"/>
       <use xlink:href="#DejaVuSans-36" transform="translate(179.199219 0.78125)"/>
      </g>
     </g>
    </g>
    <g id="ytick_5">
     <g id="line2d_12">
      <g>
       <use xlink:href="#mb3b7fccb16" x="75.570625" y="178.238001" style="stroke: #000000"/>
      </g>
     </g>
     <g id="text_14">
      <!-- $\mathdefault{−0.4}$ -->
      <g transform="translate(28.620625 183.936829) scale(0.15 -0.15)">
       <use xlink:href="#DejaVuSans-2212" transform="translate(0 0.78125)"/>
       <use xlink:href="#DejaVuSans-30" transform="translate(83.789062 0.78125)"/>
       <use xlink:href="#DejaVuSans-2e" transform="translate(147.412109 0.78125)"/>
       <use xlink:href="#DejaVuSans-34" transform="translate(179.199219 0.78125)"/>
      </g>
     </g>
    </g>
    <g id="ytick_6">
     <g id="line2d_13">
      <g>
       <use xlink:href="#mb3b7fccb16" x="75.570625" y="99.537907" style="stroke: #000000"/>
      </g>
     </g>
     <g id="text_15">
      <!-- $\mathdefault{−0.2}$ -->
      <g transform="translate(29.370625 105.236735) scale(0.15 -0.15)">
       <use xlink:href="#DejaVuSans-2212" transform="translate(0 0.78125)"/>
       <use xlink:href="#DejaVuSans-30" transform="translate(83.789062 0.78125)"/>
       <use xlink:href="#DejaVuSans-2e" transform="translate(147.412109 0.78125)"/>
       <use xlink:href="#DejaVuSans-32" transform="translate(173.699219 0.78125)"/>
      </g>
     </g>
    </g>
    <g id="ytick_7">
     <g id="line2d_14">
      <g>
       <use xlink:href="#mb3b7fccb16" x="75.570625" y="20.837812" style="stroke: #000000"/>
      </g>
     </g>
     <g id="text_16">
      <!-- $\mathdefault{0.0}$ -->
      <g transform="translate(41.070625 26.536641) scale(0.15 -0.15)">
       <use xlink:href="#DejaVuSans-30" transform="translate(0 0.78125)"/>
       <use xlink:href="#DejaVuSans-2e" transform="translate(63.623047 0.78125)"/>
       <use xlink:href="#DejaVuSans-30" transform="translate(95.410156 0.78125)"/>
      </g>
     </g>
    </g>
    <g id="text_17">
     <!-- Relative Wigner rotation angle (degree) -->
     <g transform="translate(20.877188 445.410531) rotate(-90) scale(0.18 -0.18)">
      <defs>
       <path id="DejaVuSans-52" d="M 2841 2188 
Q 3044 2119 3236 1894 
Q 3428 1669 3622 1275 
L 4263 0 
L 3584 0 
L 2988 1197 
Q 2756 1666 2539 1819 
Q 2322 1972 1947 1972 
L 1259 1972 
L 1259 0 
L 628 0 
L 628 4666 
L 2053 4666 
Q 2853 4666 3247 4331 
Q 3641 3997 3641 3322 
Q 3641 2881 3436 2590 
Q 3231 2300 2841 2188 
z
M 1259 4147 
L 1259 2491 
L 2053 2491 
Q 2509 2491 2742 2702 
Q 2975 2913 2975 3322 
Q 2975 3731 2742 3939 
Q 2509 4147 2053 4147 
L 1259 4147 
z
" transform="scale(0.015625)"/>
       <path id="DejaVuSans-57" d="M 213 4666 
L 850 4666 
L 1831 722 
L 2809 4666 
L 3519 4666 
L 4500 722 
L 5478 4666 
L 6119 4666 
L 4947 0 
L 4153 0 
L 3169 4050 
L 2175 0 
L 1381 0 
L 213 4666 
z
" transform="scale(0.015625)"/>
       <path id="DejaVuSans-67" d="M 2906 1791 
Q 2906 2416 2648 2759 
Q 2391 3103 1925 3103 
Q 1463 3103 1205 2759 
Q 947 2416 947 1791 
Q 947 1169 1205 825 
Q 1463 481 1925 481 
Q 2391 481 2648 825 
Q 2906 1169 2906 1791 
z
M 3481 434 
Q 3481 -459 3084 -895 
Q 2688 -1331 1869 -1331 
Q 1566 -1331 1297 -1286 
Q 1028 -1241 775 -1147 
L 775 -588 
Q 1028 -725 1275 -790 
Q 1522 -856 1778 -856 
Q 2344 -856 2625 -561 
Q 2906 -266 2906 331 
L 2906 616 
Q 2728 306 2450 153 
Q 2172 0 1784 0 
Q 1141 0 747 490 
Q 353 981 353 1791 
Q 353 2603 747 3093 
Q 1141 3584 1784 3584 
Q 2172 3584 2450 3431 
Q 2728 3278 2906 2969 
L 2906 3500 
L 3481 3500 
L 3481 434 
z
" transform="scale(0.015625)"/>
       <path id="DejaVuSans-6e" d="M 3513 2113 
L 3513 0 
L 2938 0 
L 2938 2094 
Q 2938 2591 2744 2837 
Q 2550 3084 2163 3084 
Q 1697 3084 1428 2787 
Q 1159 2491 1159 1978 
L 1159 0 
L 581 0 
L 581 3500 
L 1159 3500 
L 1159 2956 
Q 1366 3272 1645 3428 
Q 1925 3584 2291 3584 
Q 2894 3584 3203 3211 
Q 3513 2838 3513 2113 
z
" transform="scale(0.015625)"/>
       <path id="DejaVuSans-72" d="M 2631 2963 
Q 2534 3019 2420 3045 
Q 2306 3072 2169 3072 
Q 1681 3072 1420 2755 
Q 1159 2438 1159 1844 
L 1159 0 
L 581 0 
L 581 3500 
L 1159 3500 
L 1159 2956 
Q 1341 3275 1631 3429 
Q 1922 3584 2338 3584 
Q 2397 3584 2469 3576 
Q 2541 3569 2628 3553 
L 2631 2963 
z
" transform="scale(0.015625)"/>
      </defs>
      <use xlink:href="#DejaVuSans-52"/>
      <use xlink:href="#DejaVuSans-65" x="64.982422"/>
      <use xlink:href="#DejaVuSans-6c" x="126.505859"/>
      <use xlink:href="#DejaVuSans-61" x="154.289062"/>
      <use xlink:href="#DejaVuSans-74" x="215.568359"/>
      <use xlink:href="#DejaVuSans-69" x="254.777344"/>
      <use xlink:href="#DejaVuSans-76" x="282.560547"/>
      <use xlink:href="#DejaVuSans-65" x="341.740234"/>
      <use xlink:href="#DejaVuSans-20" x="403.263672"/>
      <use xlink:href="#DejaVuSans-57" x="435.050781"/>
      <use xlink:href="#DejaVuSans-69" x="531.677734"/>
      <use xlink:href="#DejaVuSans-67" x="559.460938"/>
      <use xlink:href="#DejaVuSans-6e" x="622.9375"/>
      <use xlink:href="#DejaVuSans-65" x="686.316406"/>
      <use xlink:href="#DejaVuSans-72" x="747.839844"/>
      <use xlink:href="#DejaVuSans-20" x="788.953125"/>
      <use xlink:href="#DejaVuSans-72" x="820.740234"/>
      <use xlink:href="#DejaVuSans-6f" x="859.603516"/>
      <use xlink:href="#DejaVuSans-74" x="920.785156"/>
      <use xlink:href="#DejaVuSans-61" x="959.994141"/>
      <use xlink:href="#DejaVuSans-74" x="1021.273438"/>
      <use xlink:href="#DejaVuSans-69" x="1060.482422"/>
      <use xlink:href="#DejaVuSans-6f" x="1088.265625"/>
      <use xlink:href="#DejaVuSans-6e" x="1149.447266"/>
      <use xlink:href="#DejaVuSans-20" x="1212.826172"/>
      <use xlink:href="#DejaVuSans-61" x="1244.613281"/>
      <use xlink:href="#DejaVuSans-6e" x="1305.892578"/>
      <use xlink:href="#DejaVuSans-67" x="1369.271484"/>
      <use xlink:href="#DejaVuSans-6c" x="1432.748047"/>
      <use xlink:href="#DejaVuSans-65" x="1460.53125"/>
      <use xlink:href="#DejaVuSans-20" x="1522.054688"/>
      <use xlink:href="#DejaVuSans-28" x="1553.841797"/>
      <use xlink:href="#DejaVuSans-64" x="1592.855469"/>
      <use xlink:href="#DejaVuSans-65" x="1656.332031"/>
      <use xlink:href="#DejaVuSans-67" x="1717.855469"/>
      <use xlink:href="#DejaVuSans-72" x="1781.332031"/>
      <use xlink:href="#DejaVuSans-65" x="1820.195312"/>
      <use xlink:href="#DejaVuSans-65" x="1881.71875"/>
      <use xlink:href="#DejaVuSans-29" x="1943.242188"/>
     </g>
    </g>
    <g id="text_18">
     <!-- $\times\mathdefault{10^{−4}}\mathdefault{}$ -->
     <g transform="translate(75.570625 17.837812) scale(0.14 -0.14)">
      <use xlink:href="#DejaVuSans-d7" transform="translate(0 0.684375)"/>
      <use xlink:href="#DejaVuSans-31" transform="translate(83.789062 0.684375)"/>
      <use xlink:href="#DejaVuSans-30" transform="translate(147.412109 0.684375)"/>
      <use xlink:href="#DejaVuSans-2212" transform="translate(211.992188 38.965625) scale(0.7)"/>
      <use xlink:href="#DejaVuSans-34" transform="translate(270.644531 38.965625) scale(0.7)"/>
     </g>
    </g>
   </g>
   <g id="line2d_15">
    <path d="M 72.83477 3.765946 
L 74.202697 18.844751 
L 75.570625 32.291996 
L 76.938553 44.382791 
L 78.30648 55.330816 
L 79.674408 65.304976 
L 82.410263 82.848707 
L 85.146118 97.828372 
L 87.881973 110.805578 
L 90.617829 122.182327 
L 93.353684 132.255279 
L 96.089539 141.248981 
L 98.825394 149.337076 
L 101.56125 156.656332 
L 104.297105 163.316194 
L 107.03296 169.405465 
L 109.768815 174.997085 
L 112.50467 180.151618 
L 115.240526 184.919836 
L 117.976381 189.34468 
L 120.712236 193.462748 
L 124.816019 199.132181 
L 128.919802 204.269825 
L 133.023585 208.947871 
L 137.127367 213.225713 
L 141.23115 217.152726 
L 145.334933 220.770329 
L 149.438716 224.113563 
L 153.542499 227.212288 
L 157.646281 230.09213 
L 163.117992 233.629245 
L 168.589702 236.860837 
L 174.061413 239.824192 
L 179.533123 242.550733 
L 185.004834 245.067143 
L 191.844472 247.951598 
L 198.68411 250.580839 
L 205.523748 252.986375 
L 213.731313 255.61481 
L 221.938879 257.997494 
L 230.146445 260.166231 
L 239.721938 262.461247 
L 249.297431 264.536201 
L 260.240852 266.675123 
L 272.5522 268.827195 
L 284.863549 270.749596 
L 298.542825 272.656668 
L 313.590029 274.51855 
L 330.00516 276.312581 
L 347.788219 278.022619 
L 366.939205 279.638133 
L 388.826047 281.247268 
L 412.080816 282.729346 
L 438.071441 284.159774 
L 466.797921 285.516108 
L 499.628183 286.834972 
L 536.562229 288.085371 
L 561.184926 288.807995 
L 561.184926 288.807995 
" clip-path="url(#p59b9cff5a6)" style="fill: none; stroke: #140e36; stroke-width: 1.75; stroke-linecap: square"/>
   </g>
   <g id="line2d_16">
    <path d="M 73.408485 -1 
L 74.202697 14.98512 
L 75.570625 38.213165 
L 76.938553 58.163608 
L 78.30648 75.547942 
L 79.674408 90.877156 
L 81.042335 104.529175 
L 82.410263 116.79047 
L 83.778191 127.882781 
L 85.146118 137.980859 
L 87.881973 155.727527 
L 90.617829 170.868256 
L 93.353684 183.978512 
L 96.089539 195.468889 
L 98.825394 205.641575 
L 101.56125 214.724778 
L 104.297105 222.894634 
L 107.03296 230.289644 
L 109.768815 237.020481 
L 112.50467 243.176837 
L 115.240526 248.832302 
L 117.976381 254.047925 
L 120.712236 258.874848 
L 123.448091 263.356291 
L 126.183946 267.529073 
L 130.287729 273.277413 
L 134.391512 278.490557 
L 138.495295 283.24103 
L 142.599078 287.588485 
L 146.702861 291.5825 
L 150.806643 295.264664 
L 154.910426 298.670159 
L 159.014209 301.82897 
L 163.117992 304.766832 
L 168.589702 308.378262 
L 174.061413 311.680883 
L 179.533123 314.712171 
L 185.004834 317.503723 
L 190.476544 320.082386 
L 197.316182 323.041006 
L 204.15582 325.740605 
L 210.995458 328.212944 
L 219.203024 330.917173 
L 227.410589 333.371229 
L 235.618155 335.60725 
L 245.193648 337.975999 
L 254.769142 340.119972 
L 265.712562 342.332505 
L 276.655983 344.325972 
L 288.967332 346.343635 
L 302.646608 348.346423 
L 317.693811 350.303023 
L 334.108943 352.18961 
L 351.892002 353.989142 
L 371.042988 355.690436 
L 391.561902 357.287154 
L 414.816672 358.86349 
L 439.439369 360.310764 
L 466.797921 361.70077 
L 498.260256 363.069874 
L 533.826373 364.38169 
L 561.184926 365.253167 
L 561.184926 365.253167 
" clip-path="url(#p59b9cff5a6)" style="fill: none; stroke: #400f74; stroke-width: 1.75; stroke-linecap: square"/>
   </g>
   <g id="line2d_17">
    <path d="M 73.969796 -1 
L 74.202697 6.585095 
L 75.570625 41.890444 
L 76.938553 70.79125 
L 78.30648 95.034916 
L 79.674408 115.763682 
L 81.042335 133.760268 
L 82.410263 149.581675 
L 83.778191 163.636719 
L 85.146118 176.233289 
L 86.514046 187.608386 
L 87.881973 197.947891 
L 90.617829 216.084476 
L 93.353684 231.526216 
L 96.089539 244.876051 
L 98.825394 256.562048 
L 101.56125 266.897961 
L 104.297105 276.119916 
L 107.03296 284.409627 
L 109.768815 291.909618 
L 112.50467 298.73353 
L 115.240526 304.973281 
L 117.976381 310.704166 
L 120.712236 315.988552 
L 123.448091 320.878617 
L 126.183946 325.418408 
L 128.919802 329.645406 
L 133.023585 335.468481 
L 137.127367 340.749695 
L 141.23115 345.562666 
L 145.334933 349.967889 
L 149.438716 354.015605 
L 153.542499 357.747933 
L 157.646281 361.200483 
L 161.750064 364.403592 
L 165.853847 367.383287 
L 171.325558 371.047077 
L 176.797268 374.39859 
L 182.268978 377.475693 
L 187.740689 380.31031 
L 193.212399 382.929561 
L 200.052037 385.935783 
L 206.891675 388.679858 
L 213.731313 391.193868 
L 221.938879 393.944781 
L 230.146445 396.442274 
L 238.35401 398.718819 
L 247.929504 401.13155 
L 257.504997 403.316322 
L 268.448418 405.57201 
L 279.391838 407.60533 
L 291.703187 409.664322 
L 305.382463 411.709181 
L 319.061739 413.535988 
L 334.108943 415.33129 
L 350.524074 417.07255 
L 368.307133 418.743048 
L 388.826047 420.437238 
L 410.712889 422.015641 
L 435.335586 423.559296 
L 462.694138 425.039261 
L 492.788545 426.435934 
L 525.618808 427.737591 
L 561.184926 428.93876 
L 561.184926 428.93876 
" clip-path="url(#p59b9cff5a6)" style="fill: none; stroke: #701f81; stroke-width: 1.75; stroke-linecap: square"/>
   </g>
   <g id="line2d_18">
    <path d="M 74.429969 -1 
L 75.570625 39.653448 
L 76.938553 77.751305 
L 78.30648 108.618614 
L 79.674408 134.309124 
L 81.042335 156.139436 
L 82.410263 174.998044 
L 83.778191 191.509435 
L 85.146118 206.127298 
L 86.514046 219.190398 
L 87.881973 230.957601 
L 89.249901 241.630661 
L 90.617829 251.369527 
L 93.353684 268.535734 
L 96.089539 283.231545 
L 98.825394 295.993495 
L 101.56125 307.206693 
L 104.297105 317.15596 
L 107.03296 326.057276 
L 109.768815 334.077919 
L 112.50467 341.34982 
L 115.240526 347.978679 
L 117.976381 354.050356 
L 120.712236 359.635441 
L 123.448091 364.792605 
L 126.183946 369.571078 
L 128.919802 374.012533 
L 131.655657 378.152516 
L 135.75944 383.862892 
L 139.863223 389.049094 
L 143.967005 393.781458 
L 148.070788 398.117931 
L 152.174571 402.10674 
L 156.278354 405.788398 
L 160.382137 409.197219 
L 164.485919 412.362487 
L 169.95763 416.246968 
L 175.42934 419.79328 
L 180.901051 423.043404 
L 186.372761 426.032563 
L 191.844472 428.790556 
L 198.68411 431.951299 
L 205.523748 434.832089 
L 212.363386 437.467781 
L 219.203024 439.88766 
L 227.410589 442.541293 
L 235.618155 444.955702 
L 245.193648 447.509938 
L 254.769142 449.818788 
L 264.344635 451.914853 
L 275.288056 454.084381 
L 287.599404 456.276623 
L 299.910753 458.243153 
L 313.590029 460.201976 
L 328.637232 462.122336 
L 345.052364 463.980443 
L 362.835423 465.758904 
L 381.986409 467.445923 
L 402.505323 469.034395 
L 425.760092 470.607651 
L 451.750717 472.131471 
L 480.477197 473.581486 
L 511.939532 474.941967 
L 547.505649 476.250735 
L 561.184926 476.700047 
L 561.184926 476.700047 
" clip-path="url(#p59b9cff5a6)" style="fill: none; stroke: #9e2f7f; stroke-width: 1.75; stroke-linecap: square"/>
   </g>
   <g id="line2d_19">
    <path d="M 74.949599 -1 
L 75.570625 27.44612 
L 76.938553 74.364024 
L 78.30648 111.242635 
L 79.674408 141.250062 
L 81.042335 166.306389 
L 82.410263 187.65251 
L 83.778191 206.131133 
L 85.146118 222.337583 
L 86.514046 236.706166 
L 87.881973 249.562309 
L 89.249901 261.155417 
L 90.617829 271.680369 
L 93.353684 290.115141 
L 96.089539 305.786032 
L 98.825394 319.317723 
L 101.56125 331.151992 
L 104.297105 341.611607 
L 107.03296 350.938822 
L 109.768815 359.319638 
L 112.50467 366.899655 
L 115.240526 373.794765 
L 117.976381 380.098572 
L 120.712236 385.887645 
L 123.448091 391.225337 
L 126.183946 396.164597 
L 128.919802 400.75008 
L 131.655657 405.019757 
L 135.75944 410.90204 
L 139.863223 416.237598 
L 143.967005 421.100835 
L 148.070788 425.552854 
L 152.174571 429.644369 
L 156.278354 433.417877 
L 160.382137 436.909293 
L 164.485919 440.149202 
L 168.589702 443.16384 
L 174.061413 446.871627 
L 179.533123 450.264481 
L 185.004834 453.380551 
L 190.476544 456.251994 
L 195.948254 458.906125 
L 202.787892 461.953467 
L 209.627531 464.736163 
L 216.467169 467.286533 
L 224.674734 470.078376 
L 232.8823 472.614131 
L 241.089865 474.926531 
L 250.665359 477.378339 
L 260.240852 479.599513 
L 271.184273 481.89386 
L 282.127694 483.963016 
L 294.439042 486.059311 
L 308.118318 488.142284 
L 321.797594 490.00409 
L 336.844798 491.834711 
L 353.259929 493.611149 
L 371.042988 495.316294 
L 391.561902 497.046575 
L 413.448744 498.65951 
L 438.071441 500.237834 
L 464.062065 501.681448 
L 494.156473 503.121299 
L 526.986735 504.463383 
L 561.184926 505.657973 
L 561.184926 505.657973 
" clip-path="url(#p59b9cff5a6)" style="fill: none; stroke: #cd4071; stroke-width: 1.75; stroke-linecap: square"/>
   </g>
   <g id="line2d_20">
    <path d="M 75.530442 -1 
L 75.570625 1.241343 
L 76.938553 56.245325 
L 78.30648 98.380134 
L 79.674408 132.032528 
L 81.042335 159.740463 
L 82.410263 183.08804 
L 83.778191 203.122296 
L 85.146118 220.56703 
L 86.514046 235.940971 
L 87.881973 249.627078 
L 89.249901 261.915183 
L 90.617829 273.029319 
L 91.985756 283.145826 
L 94.721612 300.923308 
L 97.457467 316.091003 
L 100.193322 329.227227 
L 102.929177 340.744012 
L 105.665032 350.944226 
L 108.400888 360.056353 
L 111.136743 368.256577 
L 113.872598 375.683328 
L 116.608453 382.447147 
L 119.344308 388.637567 
L 122.080164 394.328012 
L 124.816019 399.579369 
L 127.551874 404.442624 
L 130.287729 408.960856 
L 133.023585 413.170756 
L 137.127367 418.97514 
L 141.23115 424.244475 
L 145.334933 429.051009 
L 149.438716 433.454168 
L 153.542499 437.503347 
L 157.646281 441.239991 
L 161.750064 444.699166 
L 165.853847 447.910769 
L 169.95763 450.900466 
L 175.42934 454.579437 
L 180.901051 457.947733 
L 186.372761 461.042784 
L 191.844472 463.896174 
L 197.316182 466.53475 
L 204.15582 469.565591 
L 210.995458 472.334503 
L 217.835096 474.873331 
L 226.042662 477.653756 
L 234.250227 480.18026 
L 242.457793 482.485168 
L 252.033286 484.930038 
L 261.60878 487.145834 
L 272.5522 489.435553 
L 283.495621 491.501361 
L 295.80697 493.59508 
L 309.486246 495.676328 
L 323.165522 497.537313 
L 338.212726 499.367809 
L 354.627857 501.14479 
L 372.410916 502.851089 
L 392.92983 504.583193 
L 414.816672 506.198439 
L 439.439369 507.779615 
L 465.429993 509.226365 
L 495.5244 510.669865 
L 528.354663 512.015839 
L 561.184926 513.169813 
L 561.184926 513.169813 
" clip-path="url(#p59b9cff5a6)" style="fill: none; stroke: #f2625d; stroke-width: 1.75; stroke-linecap: square"/>
   </g>
   <g id="line2d_21">
    <path d="M 76.488242 -1 
L 76.938553 19.478652 
L 78.30648 66.113579 
L 79.674408 102.798656 
L 81.042335 132.665858 
L 82.410263 157.616185 
L 83.778191 178.87956 
L 85.146118 197.291961 
L 86.514046 213.444362 
L 87.881973 227.768135 
L 89.249901 240.586654 
L 90.617829 252.147848 
L 91.985756 262.645501 
L 94.721612 281.036409 
L 97.457467 296.674153 
L 100.193322 310.180494 
L 102.929177 321.995272 
L 105.665032 332.439906 
L 108.400888 341.755685 
L 111.136743 350.127896 
L 113.872598 357.701595 
L 116.608453 364.592258 
L 119.344308 370.893159 
L 122.080164 376.680605 
L 124.816019 382.017739 
L 127.551874 386.957335 
L 130.287729 391.543906 
L 133.023585 395.815304 
L 137.127367 401.701147 
L 141.23115 407.041201 
L 145.334933 411.909659 
L 149.438716 416.367457 
L 153.542499 420.465176 
L 157.646281 424.245207 
L 161.750064 427.743378 
L 165.853847 430.990207 
L 169.95763 434.011871 
L 175.42934 437.729117 
L 180.901051 441.131456 
L 186.372761 444.25697 
L 191.844472 447.13777 
L 197.316182 449.801131 
L 204.15582 452.859792 
L 210.995458 455.653532 
L 217.835096 458.214642 
L 226.042662 461.018956 
L 234.250227 463.566714 
L 242.457793 465.890645 
L 252.033286 468.355322 
L 261.60878 470.588748 
L 272.5522 472.896371 
L 283.495621 474.978068 
L 295.80697 477.08764 
L 309.486246 479.184405 
L 323.165522 481.059067 
L 338.212726 482.902837 
L 354.627857 484.692539 
L 372.410916 486.410907 
L 391.561902 488.045907 
L 413.448744 489.686133 
L 436.703513 491.207606 
L 462.694138 492.68627 
L 491.420618 494.098029 
L 524.25088 495.480258 
L 561.184926 496.79978 
L 561.184926 496.79978 
" clip-path="url(#p59b9cff5a6)" style="fill: none; stroke: #fd9a6a; stroke-width: 1.75; stroke-linecap: square"/>
   </g>
   <g id="line2d_22">
    <path d="M 77.97922 -1 
L 78.30648 11.068731 
L 79.674408 50.263308 
L 81.042335 81.886798 
L 82.410263 108.123633 
L 83.778191 130.363319 
L 85.146118 149.537839 
L 86.514046 166.299031 
L 87.881973 181.118533 
L 89.249901 194.347314 
L 90.617829 206.252784 
L 91.985756 217.042835 
L 93.353684 226.881916 
L 96.089539 244.210888 
L 98.825394 259.033535 
L 101.56125 271.89763 
L 104.297105 283.195426 
L 107.03296 293.216461 
L 109.768815 302.179926 
L 112.50467 310.255346 
L 115.240526 317.57626 
L 117.976381 324.249543 
L 120.712236 330.361926 
L 123.448091 335.984662 
L 126.183946 341.176925 
L 128.919802 345.988338 
L 131.655657 350.460883 
L 134.391512 354.630352 
L 138.495295 360.382374 
L 142.599078 365.607568 
L 146.702861 370.376663 
L 150.806643 374.747902 
L 154.910426 378.769746 
L 159.014209 382.482892 
L 163.117992 385.921806 
L 167.221775 389.115894 
L 172.693485 393.036996 
L 178.165196 396.618054 
L 183.636906 399.901212 
L 189.108616 402.921837 
L 194.580327 405.709847 
L 201.419965 408.906232 
L 208.259603 411.82074 
L 215.099241 414.488379 
L 221.938879 416.938571 
L 230.146445 419.626587 
L 238.35401 422.073379 
L 246.561576 424.309132 
L 256.137069 426.684402 
L 265.712562 428.840492 
L 276.655983 431.071921 
L 287.599404 433.088153 
L 299.910753 435.134581 
L 313.590029 437.171814 
L 328.637232 439.167941 
L 345.052364 441.098348 
L 362.835423 442.945108 
L 381.986409 444.696123 
L 402.505323 446.344172 
L 425.760092 447.975802 
L 450.382789 449.478056 
L 477.741342 450.924829 
L 507.835749 452.296223 
L 542.033939 453.629135 
L 561.184926 454.288702 
L 561.184926 454.288702 
" clip-path="url(#p59b9cff5a6)" style="fill: none; stroke: #fecf92; stroke-width: 1.75; stroke-linecap: square"/>
   </g>
   <g id="patch_3">
    <path d="M 75.570625 513.169813 
L 75.570625 20.837812 
" style="fill: none; stroke: #000000; stroke-width: 0.8; stroke-linejoin: miter; stroke-linecap: square"/>
   </g>
   <g id="patch_4">
    <path d="M 561.184926 513.169813 
L 561.184926 20.837812 
" style="fill: none; stroke: #000000; stroke-width: 0.8; stroke-linejoin: miter; stroke-linecap: square"/>
   </g>
   <g id="patch_5">
    <path d="M 75.570625 513.169812 
L 561.184926 513.169812 
" style="fill: none; stroke: #000000; stroke-width: 0.8; stroke-linejoin: miter; stroke-linecap: square"/>
   </g>
   <g id="patch_6">
    <path d="M 75.570625 20.837812 
L 561.184926 20.837812 
" style="fill: none; stroke: #000000; stroke-width: 0.8; stroke-linejoin: miter; stroke-linecap: square"/>
   </g>
   <g id="legend_1">
    <g id="patch_7">
     <path d="M 252.564926 135.237812 
L 552.084926 135.237812 
Q 554.684926 135.237812 554.684926 132.637812 
L 554.684926 29.937812 
Q 554.684926 27.337812 552.084926 27.337812 
L 252.564926 27.337812 
Q 249.964926 27.337812 249.964926 29.937812 
L 249.964926 132.637812 
Q 249.964926 135.237812 252.564926 135.237812 
z
" style="fill: #ffffff; opacity: 0.8; stroke: #cccccc; stroke-width: 0.3; stroke-linejoin: miter"/>
    </g>
    <g id="line2d_23">
     <path d="M 255.164926 42.027812 
L 268.164926 42.027812 
L 281.164926 42.027812 
" style="fill: none; stroke: #140e36; stroke-width: 1.75; stroke-linecap: square"/>
    </g>
    <g id="text_19">
     <!-- $\frac{rk^\phi}{k^r} (\approx b_{ph})$= 1.5 -->
     <g transform="translate(291.564926 46.577812) scale(0.13 -0.13)">
      <defs>
       <path id="DejaVuSans-Oblique-72" d="M 2853 2969 
Q 2766 3016 2653 3041 
Q 2541 3066 2413 3066 
Q 1953 3066 1609 2717 
Q 1266 2369 1153 1784 
L 800 0 
L 225 0 
L 909 3500 
L 1484 3500 
L 1375 2956 
Q 1603 3259 1920 3421 
Q 2238 3584 2597 3584 
Q 2691 3584 2781 3573 
Q 2872 3563 2963 3538 
L 2853 2969 
z
" transform="scale(0.015625)"/>
       <path id="DejaVuSans-Oblique-6b" d="M 1172 4863 
L 1747 4863 
L 1197 2028 
L 3169 3500 
L 3916 3500 
L 1716 1825 
L 3322 0 
L 2625 0 
L 1131 1709 
L 800 0 
L 225 0 
L 1172 4863 
z
" transform="scale(0.015625)"/>
       <path id="DejaVuSans-Oblique-3d5" d="M 2991 4863 
L 2738 3572 
Q 3363 3572 3684 3094 
Q 4016 2606 3850 1747 
Q 3681 888 3159 400 
Q 2653 -78 2028 -78 
L 1784 -1331 
L 1213 -1331 
L 1456 -78 
Q 834 -78 509 400 
Q 178 888 347 1747 
Q 513 2606 1034 3094 
Q 1544 3572 2166 3572 
L 2419 4863 
L 2991 4863 
z
M 2128 434 
Q 2481 434 2784 756 
Q 3116 1116 3244 1747 
Q 3369 2372 3169 2738 
Q 2991 3059 2638 3059 
L 2128 434 
z
M 1556 434 
L 2066 3059 
Q 1716 3059 1413 2738 
Q 1072 2372 953 1747 
Q 834 1116 1028 756 
Q 1203 434 1556 434 
z
" transform="scale(0.015625)"/>
       <path id="DejaVuSans-2248" d="M 4684 1947 
L 4684 1388 
Q 4356 1144 4076 1036 
Q 3797 928 3494 928 
Q 3150 928 2694 1113 
Q 2663 1125 2641 1134 
Q 2622 1141 2575 1159 
Q 2091 1350 1797 1350 
Q 1522 1350 1253 1231 
Q 984 1113 678 850 
L 678 1409 
Q 1006 1653 1286 1761 
Q 1566 1869 1869 1869 
Q 2213 1869 2672 1684 
Q 2706 1669 2722 1663 
Q 2741 1656 2788 1638 
Q 3272 1447 3566 1447 
Q 3834 1447 4098 1564 
Q 4363 1681 4684 1947 
z
M 4684 3163 
L 4684 2606 
Q 4356 2359 4076 2251 
Q 3797 2144 3494 2144 
Q 3150 2144 2694 2328 
Q 2663 2341 2641 2350 
Q 2622 2356 2575 2375 
Q 2091 2566 1797 2566 
Q 1522 2566 1253 2447 
Q 984 2328 678 2069 
L 678 2625 
Q 1006 2869 1286 2976 
Q 1566 3084 1869 3084 
Q 2213 3084 2672 2900 
Q 2703 2888 2719 2881 
Q 2741 2872 2788 2853 
Q 3272 2663 3566 2663 
Q 3834 2663 4098 2780 
Q 4363 2897 4684 3163 
z
" transform="scale(0.015625)"/>
       <path id="DejaVuSans-Oblique-62" d="M 3169 2138 
Q 3169 2591 2961 2847 
Q 2753 3103 2388 3103 
Q 2122 3103 1889 2973 
Q 1656 2844 1484 2597 
Q 1303 2338 1198 1995 
Q 1094 1653 1094 1313 
Q 1094 881 1298 636 
Q 1503 391 1863 391 
Q 2134 391 2365 517 
Q 2597 644 2772 891 
Q 2950 1147 3059 1487 
Q 3169 1828 3169 2138 
z
M 1381 2969 
Q 1594 3256 1914 3420 
Q 2234 3584 2584 3584 
Q 3122 3584 3439 3221 
Q 3756 2859 3756 2241 
Q 3756 1734 3570 1259 
Q 3384 784 3041 416 
Q 2816 172 2522 40 
Q 2228 -91 1906 -91 
Q 1566 -91 1316 65 
Q 1066 222 909 531 
L 806 0 
L 231 0 
L 1178 4863 
L 1753 4863 
L 1381 2969 
z
" transform="scale(0.015625)"/>
       <path id="DejaVuSans-Oblique-70" d="M 3175 2156 
Q 3175 2616 2975 2859 
Q 2775 3103 2400 3103 
Q 2144 3103 1911 2972 
Q 1678 2841 1497 2591 
Q 1319 2344 1212 1994 
Q 1106 1644 1106 1300 
Q 1106 863 1306 627 
Q 1506 391 1875 391 
Q 2147 391 2380 519 
Q 2613 647 2778 891 
Q 2956 1147 3065 1494 
Q 3175 1841 3175 2156 
z
M 1394 2969 
Q 1625 3272 1939 3428 
Q 2253 3584 2638 3584 
Q 3175 3584 3472 3232 
Q 3769 2881 3769 2247 
Q 3769 1728 3584 1258 
Q 3400 788 3053 416 
Q 2822 169 2531 39 
Q 2241 -91 1919 -91 
Q 1547 -91 1294 64 
Q 1041 219 916 525 
L 556 -1331 
L -19 -1331 
L 922 3500 
L 1497 3500 
L 1394 2969 
z
" transform="scale(0.015625)"/>
       <path id="DejaVuSans-Oblique-68" d="M 3566 2113 
L 3156 0 
L 2578 0 
L 2988 2091 
Q 3016 2238 3031 2350 
Q 3047 2463 3047 2528 
Q 3047 2791 2881 2937 
Q 2716 3084 2419 3084 
Q 1956 3084 1617 2771 
Q 1278 2459 1178 1941 
L 800 0 
L 225 0 
L 1172 4863 
L 1747 4863 
L 1375 2950 
Q 1594 3244 1934 3414 
Q 2275 3584 2650 3584 
Q 3113 3584 3367 3334 
Q 3622 3084 3622 2631 
Q 3622 2519 3608 2391 
Q 3594 2263 3566 2113 
z
" transform="scale(0.015625)"/>
       <path id="DejaVuSans-3d" d="M 678 2906 
L 4684 2906 
L 4684 2381 
L 678 2381 
L 678 2906 
z
M 678 1631 
L 4684 1631 
L 4684 1100 
L 678 1100 
L 678 1631 
z
" transform="scale(0.015625)"/>
      </defs>
      <use xlink:href="#DejaVuSans-Oblique-72" transform="translate(0 43.970781) scale(0.7)"/>
      <use xlink:href="#DejaVuSans-Oblique-6b" transform="translate(28.779297 43.970781) scale(0.7)"/>
      <use xlink:href="#DejaVuSans-Oblique-3d5" transform="translate(74.529802 70.767656) scale(0.49)"/>
      <use xlink:href="#DejaVuSans-Oblique-6b" transform="translate(20 -41.516094) scale(0.7)"/>
      <use xlink:href="#DejaVuSans-Oblique-72" transform="translate(65.750505 -14.719219) scale(0.49)"/>
      <use xlink:href="#DejaVuSans-28" transform="translate(121.267595 0.173906)"/>
      <use xlink:href="#DejaVuSans-2248" transform="translate(179.763689 0.173906)"/>
      <use xlink:href="#DejaVuSans-Oblique-62" transform="translate(283.035173 0.173906)"/>
      <use xlink:href="#DejaVuSans-Oblique-70" transform="translate(346.511736 -16.232344) scale(0.7)"/>
      <use xlink:href="#DejaVuSans-Oblique-68" transform="translate(390.945329 -16.232344) scale(0.7)"/>
      <use xlink:href="#DejaVuSans-29" transform="translate(438.044939 0.173906)"/>
      <use xlink:href="#DejaVuSans-3d" transform="translate(477.058611 0.173906)"/>
      <use xlink:href="#DejaVuSans-20" transform="translate(560.847673 0.173906)"/>
      <use xlink:href="#DejaVuSans-31" transform="translate(592.634783 0.173906)"/>
      <use xlink:href="#DejaVuSans-2e" transform="translate(656.257829 0.173906)"/>
      <use xlink:href="#DejaVuSans-35" transform="translate(688.044939 0.173906)"/>
      <path d="M 0 18.970781 
L 0 25.220781 
L 108.767595 25.220781 
L 108.767595 18.970781 
L 0 18.970781 
z
"/>
     </g>
    </g>
    <g id="line2d_24">
     <path d="M 255.164926 68.027812 
L 268.164926 68.027812 
L 281.164926 68.027812 
" style="fill: none; stroke: #400f74; stroke-width: 1.75; stroke-linecap: square"/>
    </g>
    <g id="text_20">
     <!-- $\frac{rk^\phi}{k^r} (\approx b_{ph})$= 2.0 -->
     <g transform="translate(291.564926 72.577812) scale(0.13 -0.13)">
      <use xlink:href="#DejaVuSans-Oblique-72" transform="translate(0 43.970781) scale(0.7)"/>
      <use xlink:href="#DejaVuSans-Oblique-6b" transform="translate(28.779297 43.970781) scale(0.7)"/>
      <use xlink:href="#DejaVuSans-Oblique-3d5" transform="translate(74.529802 70.767656) scale(0.49)"/>
      <use xlink:href="#DejaVuSans-Oblique-6b" transform="translate(20 -41.516094) scale(0.7)"/>
      <use xlink:href="#DejaVuSans-Oblique-72" transform="translate(65.750505 -14.719219) scale(0.49)"/>
      <use xlink:href="#DejaVuSans-28" transform="translate(121.267595 0.173906)"/>
      <use xlink:href="#DejaVuSans-2248" transform="translate(179.763689 0.173906)"/>
      <use xlink:href="#DejaVuSans-Oblique-62" transform="translate(283.035173 0.173906)"/>
      <use xlink:href="#DejaVuSans-Oblique-70" transform="translate(346.511736 -16.232344) scale(0.7)"/>
      <use xlink:href="#DejaVuSans-Oblique-68" transform="translate(390.945329 -16.232344) scale(0.7)"/>
      <use xlink:href="#DejaVuSans-29" transform="translate(438.044939 0.173906)"/>
      <use xlink:href="#DejaVuSans-3d" transform="translate(477.058611 0.173906)"/>
      <use xlink:href="#DejaVuSans-20" transform="translate(560.847673 0.173906)"/>
      <use xlink:href="#DejaVuSans-32" transform="translate(592.634783 0.173906)"/>
      <use xlink:href="#DejaVuSans-2e" transform="translate(656.257829 0.173906)"/>
      <use xlink:href="#DejaVuSans-30" transform="translate(688.044939 0.173906)"/>
      <path d="M 0 18.970781 
L 0 25.220781 
L 108.767595 25.220781 
L 108.767595 18.970781 
L 0 18.970781 
z
"/>
     </g>
    </g>
    <g id="line2d_25">
     <path d="M 255.164926 94.027812 
L 268.164926 94.027812 
L 281.164926 94.027812 
" style="fill: none; stroke: #701f81; stroke-width: 1.75; stroke-linecap: square"/>
    </g>
    <g id="text_21">
     <!-- $\frac{rk^\phi}{k^r} (\approx b_{ph})$= 2.5 -->
     <g transform="translate(291.564926 98.577812) scale(0.13 -0.13)">
      <use xlink:href="#DejaVuSans-Oblique-72" transform="translate(0 43.970781) scale(0.7)"/>
      <use xlink:href="#DejaVuSans-Oblique-6b" transform="translate(28.779297 43.970781) scale(0.7)"/>
      <use xlink:href="#DejaVuSans-Oblique-3d5" transform="translate(74.529802 70.767656) scale(0.49)"/>
      <use xlink:href="#DejaVuSans-Oblique-6b" transform="translate(20 -41.516094) scale(0.7)"/>
      <use xlink:href="#DejaVuSans-Oblique-72" transform="translate(65.750505 -14.719219) scale(0.49)"/>
      <use xlink:href="#DejaVuSans-28" transform="translate(121.267595 0.173906)"/>
      <use xlink:href="#DejaVuSans-2248" transform="translate(179.763689 0.173906)"/>
      <use xlink:href="#DejaVuSans-Oblique-62" transform="translate(283.035173 0.173906)"/>
      <use xlink:href="#DejaVuSans-Oblique-70" transform="translate(346.511736 -16.232344) scale(0.7)"/>
      <use xlink:href="#DejaVuSans-Oblique-68" transform="translate(390.945329 -16.232344) scale(0.7)"/>
      <use xlink:href="#DejaVuSans-29" transform="translate(438.044939 0.173906)"/>
      <use xlink:href="#DejaVuSans-3d" transform="translate(477.058611 0.173906)"/>
      <use xlink:href="#DejaVuSans-20" transform="translate(560.847673 0.173906)"/>
      <use xlink:href="#DejaVuSans-32" transform="translate(592.634783 0.173906)"/>
      <use xlink:href="#DejaVuSans-2e" transform="translate(656.257829 0.173906)"/>
      <use xlink:href="#DejaVuSans-35" transform="translate(688.044939 0.173906)"/>
      <path d="M 0 18.970781 
L 0 25.220781 
L 108.767595 25.220781 
L 108.767595 18.970781 
L 0 18.970781 
z
"/>
     </g>
    </g>
    <g id="line2d_26">
     <path d="M 255.164926 120.027812 
L 268.164926 120.027812 
L 281.164926 120.027812 
" style="fill: none; stroke: #9e2f7f; stroke-width: 1.75; stroke-linecap: square"/>
    </g>
    <g id="text_22">
     <!-- $\frac{rk^\phi}{k^r} (\approx b_{ph})$= 3.0 -->
     <g transform="translate(291.564926 124.577812) scale(0.13 -0.13)">
      <use xlink:href="#DejaVuSans-Oblique-72" transform="translate(0 43.970781) scale(0.7)"/>
      <use xlink:href="#DejaVuSans-Oblique-6b" transform="translate(28.779297 43.970781) scale(0.7)"/>
      <use xlink:href="#DejaVuSans-Oblique-3d5" transform="translate(74.529802 70.767656) scale(0.49)"/>
      <use xlink:href="#DejaVuSans-Oblique-6b" transform="translate(20 -41.516094) scale(0.7)"/>
      <use xlink:href="#DejaVuSans-Oblique-72" transform="translate(65.750505 -14.719219) scale(0.49)"/>
      <use xlink:href="#DejaVuSans-28" transform="translate(121.267595 0.173906)"/>
      <use xlink:href="#DejaVuSans-2248" transform="translate(179.763689 0.173906)"/>
      <use xlink:href="#DejaVuSans-Oblique-62" transform="translate(283.035173 0.173906)"/>
      <use xlink:href="#DejaVuSans-Oblique-70" transform="translate(346.511736 -16.232344) scale(0.7)"/>
      <use xlink:href="#DejaVuSans-Oblique-68" transform="translate(390.945329 -16.232344) scale(0.7)"/>
      <use xlink:href="#DejaVuSans-29" transform="translate(438.044939 0.173906)"/>
      <use xlink:href="#DejaVuSans-3d" transform="translate(477.058611 0.173906)"/>
      <use xlink:href="#DejaVuSans-20" transform="translate(560.847673 0.173906)"/>
      <use xlink:href="#DejaVuSans-33" transform="translate(592.634783 0.173906)"/>
      <use xlink:href="#DejaVuSans-2e" transform="translate(656.257829 0.173906)"/>
      <use xlink:href="#DejaVuSans-30" transform="translate(688.044939 0.173906)"/>
      <path d="M 0 18.970781 
L 0 25.220781 
L 108.767595 25.220781 
L 108.767595 18.970781 
L 0 18.970781 
z
"/>
     </g>
    </g>
    <g id="line2d_27">
     <path d="M 415.324926 42.027812 
L 428.324926 42.027812 
L 441.324926 42.027812 
" style="fill: none; stroke: #cd4071; stroke-width: 1.75; stroke-linecap: square"/>
    </g>
    <g id="text_23">
     <!-- $\frac{rk^\phi}{k^r} (\approx b_{ph})$= 3.5 -->
     <g transform="translate(451.724926 46.577812) scale(0.13 -0.13)">
      <use xlink:href="#DejaVuSans-Oblique-72" transform="translate(0 43.970781) scale(0.7)"/>
      <use xlink:href="#DejaVuSans-Oblique-6b" transform="translate(28.779297 43.970781) scale(0.7)"/>
      <use xlink:href="#DejaVuSans-Oblique-3d5" transform="translate(74.529802 70.767656) scale(0.49)"/>
      <use xlink:href="#DejaVuSans-Oblique-6b" transform="translate(20 -41.516094) scale(0.7)"/>
      <use xlink:href="#DejaVuSans-Oblique-72" transform="translate(65.750505 -14.719219) scale(0.49)"/>
      <use xlink:href="#DejaVuSans-28" transform="translate(121.267595 0.173906)"/>
      <use xlink:href="#DejaVuSans-2248" transform="translate(179.763689 0.173906)"/>
      <use xlink:href="#DejaVuSans-Oblique-62" transform="translate(283.035173 0.173906)"/>
      <use xlink:href="#DejaVuSans-Oblique-70" transform="translate(346.511736 -16.232344) scale(0.7)"/>
      <use xlink:href="#DejaVuSans-Oblique-68" transform="translate(390.945329 -16.232344) scale(0.7)"/>
      <use xlink:href="#DejaVuSans-29" transform="translate(438.044939 0.173906)"/>
      <use xlink:href="#DejaVuSans-3d" transform="translate(477.058611 0.173906)"/>
      <use xlink:href="#DejaVuSans-20" transform="translate(560.847673 0.173906)"/>
      <use xlink:href="#DejaVuSans-33" transform="translate(592.634783 0.173906)"/>
      <use xlink:href="#DejaVuSans-2e" transform="translate(656.257829 0.173906)"/>
      <use xlink:href="#DejaVuSans-35" transform="translate(688.044939 0.173906)"/>
      <path d="M 0 18.970781 
L 0 25.220781 
L 108.767595 25.220781 
L 108.767595 18.970781 
L 0 18.970781 
z
"/>
     </g>
    </g>
    <g id="line2d_28">
     <path d="M 415.324926 68.027812 
L 428.324926 68.027812 
L 441.324926 68.027812 
" style="fill: none; stroke: #f2625d; stroke-width: 1.75; stroke-linecap: square"/>
    </g>
    <g id="text_24">
     <!-- $\frac{rk^\phi}{k^r} (\approx b_{ph})$= 4.0 -->
     <g transform="translate(451.724926 72.577812) scale(0.13 -0.13)">
      <use xlink:href="#DejaVuSans-Oblique-72" transform="translate(0 43.970781) scale(0.7)"/>
      <use xlink:href="#DejaVuSans-Oblique-6b" transform="translate(28.779297 43.970781) scale(0.7)"/>
      <use xlink:href="#DejaVuSans-Oblique-3d5" transform="translate(74.529802 70.767656) scale(0.49)"/>
      <use xlink:href="#DejaVuSans-Oblique-6b" transform="translate(20 -41.516094) scale(0.7)"/>
      <use xlink:href="#DejaVuSans-Oblique-72" transform="translate(65.750505 -14.719219) scale(0.49)"/>
      <use xlink:href="#DejaVuSans-28" transform="translate(121.267595 0.173906)"/>
      <use xlink:href="#DejaVuSans-2248" transform="translate(179.763689 0.173906)"/>
      <use xlink:href="#DejaVuSans-Oblique-62" transform="translate(283.035173 0.173906)"/>
      <use xlink:href="#DejaVuSans-Oblique-70" transform="translate(346.511736 -16.232344) scale(0.7)"/>
      <use xlink:href="#DejaVuSans-Oblique-68" transform="translate(390.945329 -16.232344) scale(0.7)"/>
      <use xlink:href="#DejaVuSans-29" transform="translate(438.044939 0.173906)"/>
      <use xlink:href="#DejaVuSans-3d" transform="translate(477.058611 0.173906)"/>
      <use xlink:href="#DejaVuSans-20" transform="translate(560.847673 0.173906)"/>
      <use xlink:href="#DejaVuSans-34" transform="translate(592.634783 0.173906)"/>
      <use xlink:href="#DejaVuSans-2e" transform="translate(656.257829 0.173906)"/>
      <use xlink:href="#DejaVuSans-30" transform="translate(688.044939 0.173906)"/>
      <path d="M 0 18.970781 
L 0 25.220781 
L 108.767595 25.220781 
L 108.767595 18.970781 
L 0 18.970781 
z
"/>
     </g>
    </g>
    <g id="line2d_29">
     <path d="M 415.324926 94.027812 
L 428.324926 94.027812 
L 441.324926 94.027812 
" style="fill: none; stroke: #fd9a6a; stroke-width: 1.75; stroke-linecap: square"/>
    </g>
    <g id="text_25">
     <!-- $\frac{rk^\phi}{k^r} (\approx b_{ph})$= 4.5 -->
     <g transform="translate(451.724926 98.577812) scale(0.13 -0.13)">
      <use xlink:href="#DejaVuSans-Oblique-72" transform="translate(0 43.970781) scale(0.7)"/>
      <use xlink:href="#DejaVuSans-Oblique-6b" transform="translate(28.779297 43.970781) scale(0.7)"/>
      <use xlink:href="#DejaVuSans-Oblique-3d5" transform="translate(74.529802 70.767656) scale(0.49)"/>
      <use xlink:href="#DejaVuSans-Oblique-6b" transform="translate(20 -41.516094) scale(0.7)"/>
      <use xlink:href="#DejaVuSans-Oblique-72" transform="translate(65.750505 -14.719219) scale(0.49)"/>
      <use xlink:href="#DejaVuSans-28" transform="translate(121.267595 0.173906)"/>
      <use xlink:href="#DejaVuSans-2248" transform="translate(179.763689 0.173906)"/>
      <use xlink:href="#DejaVuSans-Oblique-62" transform="translate(283.035173 0.173906)"/>
      <use xlink:href="#DejaVuSans-Oblique-70" transform="translate(346.511736 -16.232344) scale(0.7)"/>
      <use xlink:href="#DejaVuSans-Oblique-68" transform="translate(390.945329 -16.232344) scale(0.7)"/>
      <use xlink:href="#DejaVuSans-29" transform="translate(438.044939 0.173906)"/>
      <use xlink:href="#DejaVuSans-3d" transform="translate(477.058611 0.173906)"/>
      <use xlink:href="#DejaVuSans-20" transform="translate(560.847673 0.173906)"/>
      <use xlink:href="#DejaVuSans-34" transform="translate(592.634783 0.173906)"/>
      <use xlink:href="#DejaVuSans-2e" transform="translate(656.257829 0.173906)"/>
      <use xlink:href="#DejaVuSans-35" transform="translate(688.044939 0.173906)"/>
      <path d="M 0 18.970781 
L 0 25.220781 
L 108.767595 25.220781 
L 108.767595 18.970781 
L 0 18.970781 
z
"/>
     </g>
    </g>
    <g id="line2d_30">
     <path d="M 415.324926 120.027812 
L 428.324926 120.027812 
L 441.324926 120.027812 
" style="fill: none; stroke: #fecf92; stroke-width: 1.75; stroke-linecap: square"/>
    </g>
    <g id="text_26">
     <!-- $\frac{rk^\phi}{k^r} (\approx b_{ph})$= 5.0 -->
     <g transform="translate(451.724926 124.577812) scale(0.13 -0.13)">
      <use xlink:href="#DejaVuSans-Oblique-72" transform="translate(0 43.970781) scale(0.7)"/>
      <use xlink:href="#DejaVuSans-Oblique-6b" transform="translate(28.779297 43.970781) scale(0.7)"/>
      <use xlink:href="#DejaVuSans-Oblique-3d5" transform="translate(74.529802 70.767656) scale(0.49)"/>
      <use xlink:href="#DejaVuSans-Oblique-6b" transform="translate(20 -41.516094) scale(0.7)"/>
      <use xlink:href="#DejaVuSans-Oblique-72" transform="translate(65.750505 -14.719219) scale(0.49)"/>
      <use xlink:href="#DejaVuSans-28" transform="translate(121.267595 0.173906)"/>
      <use xlink:href="#DejaVuSans-2248" transform="translate(179.763689 0.173906)"/>
      <use xlink:href="#DejaVuSans-Oblique-62" transform="translate(283.035173 0.173906)"/>
      <use xlink:href="#DejaVuSans-Oblique-70" transform="translate(346.511736 -16.232344) scale(0.7)"/>
      <use xlink:href="#DejaVuSans-Oblique-68" transform="translate(390.945329 -16.232344) scale(0.7)"/>
      <use xlink:href="#DejaVuSans-29" transform="translate(438.044939 0.173906)"/>
      <use xlink:href="#DejaVuSans-3d" transform="translate(477.058611 0.173906)"/>
      <use xlink:href="#DejaVuSans-20" transform="translate(560.847673 0.173906)"/>
      <use xlink:href="#DejaVuSans-35" transform="translate(592.634783 0.173906)"/>
      <use xlink:href="#DejaVuSans-2e" transform="translate(656.257829 0.173906)"/>
      <use xlink:href="#DejaVuSans-30" transform="translate(688.044939 0.173906)"/>
      <path d="M 0 18.970781 
L 0 25.220781 
L 108.767595 25.220781 
L 108.767595 18.970781 
L 0 18.970781 
z
"/>
     </g>
    </g>
   </g>
  </g>
 </g>
 <defs>
  <clipPath id="p59b9cff5a6">
   <rect x="75.570625" y="20.837812" width="485.614301" height="492.332"/>
  </clipPath>
 </defs>
</svg>
