<?xml version="1.0" encoding="utf-8" standalone="no"?>
<!DOCTYPE svg PUBLIC "-//W3C//DTD SVG 1.1//EN"
  "http://www.w3.org/Graphics/SVG/1.1/DTD/svg11.dtd">
<svg xmlns:xlink="http://www.w3.org/1999/xlink" width="501.963613pt" height="353.057812pt" viewBox="0 0 501.963613 353.057812" xmlns="http://www.w3.org/2000/svg" version="1.1">
 <metadata>
  <rdf:RDF xmlns:dc="http://purl.org/dc/elements/1.1/" xmlns:cc="http://creativecommons.org/ns#" xmlns:rdf="http://www.w3.org/1999/02/22-rdf-syntax-ns#">
   <cc:Work>
    <dc:type rdf:resource="http://purl.org/dc/dcmitype/StillImage"/>
    <dc:date>2024-01-14T07:39:50.424740</dc:date>
    <dc:format>image/svg+xml</dc:format>
    <dc:creator>
     <cc:Agent>
      <dc:title>Matplotlib v3.7.1, https://matplotlib.org/</dc:title>
     </cc:Agent>
    </dc:creator>
   </cc:Work>
  </rdf:RDF>
 </metadata>
 <defs>
  <style type="text/css">*{stroke-linejoin: round; stroke-linecap: butt}</style>
 </defs>
 <g id="figure_1">
  <g id="patch_1">
   <path d="M 0 353.057812 
L 501.963613 353.057812 
L 501.963613 0 
L 0 0 
z
" style="fill: #ffffff"/>
  </g>
  <g id="axes_1">
   <g id="patch_2">
    <path d="M 85.170625 299.42 
L 485.3882 299.42 
L 485.3882 7.2 
L 85.170625 7.2 
z
" style="fill: #ffffff"/>
   </g>
   <g id="matplotlib.axis_1">
    <g id="xtick_1">
     <g id="line2d_1">
      <defs>
       <path id="m4d249166e2" d="M 0 0 
L 0 3.5 
" style="stroke: #000000"/>
      </defs>
      <g>
       <use xlink:href="#m4d249166e2" x="85.170625" y="299.42" style="stroke: #000000"/>
      </g>
     </g>
     <g id="text_1">
      <!-- $\mathdefault{0.0}$ -->
      <g transform="translate(73.170625 321.317656) scale(0.15 -0.15)">
       <defs>
        <path id="DejaVuSans-30" d="M 2034 4250 
Q 1547 4250 1301 3770 
Q 1056 3291 1056 2328 
Q 1056 1369 1301 889 
Q 1547 409 2034 409 
Q 2525 409 2770 889 
Q 3016 1369 3016 2328 
Q 3016 3291 2770 3770 
Q 2525 4250 2034 4250 
z
M 2034 4750 
Q 2819 4750 3233 4129 
Q 3647 3509 3647 2328 
Q 3647 1150 3233 529 
Q 2819 -91 2034 -91 
Q 1250 -91 836 529 
Q 422 1150 422 2328 
Q 422 3509 836 4129 
Q 1250 4750 2034 4750 
z
" transform="scale(0.015625)"/>
        <path id="DejaVuSans-2e" d="M 684 794 
L 1344 794 
L 1344 0 
L 684 0 
L 684 794 
z
" transform="scale(0.015625)"/>
       </defs>
       <use xlink:href="#DejaVuSans-30" transform="translate(0 0.78125)"/>
       <use xlink:href="#DejaVuSans-2e" transform="translate(63.623047 0.78125)"/>
       <use xlink:href="#DejaVuSans-30" transform="translate(95.410156 0.78125)"/>
      </g>
     </g>
    </g>
    <g id="xtick_2">
     <g id="line2d_2">
      <g>
       <use xlink:href="#m4d249166e2" x="164.689223" y="299.42" style="stroke: #000000"/>
      </g>
     </g>
     <g id="text_2">
      <!-- $\mathdefault{0.2}$ -->
      <g transform="translate(153.139223 321.317656) scale(0.15 -0.15)">
       <defs>
        <path id="DejaVuSans-32" d="M 1228 531 
L 3431 531 
L 3431 0 
L 469 0 
L 469 531 
Q 828 903 1448 1529 
Q 2069 2156 2228 2338 
Q 2531 2678 2651 2914 
Q 2772 3150 2772 3378 
Q 2772 3750 2511 3984 
Q 2250 4219 1831 4219 
Q 1534 4219 1204 4116 
Q 875 4013 500 3803 
L 500 4441 
Q 881 4594 1212 4672 
Q 1544 4750 1819 4750 
Q 2544 4750 2975 4387 
Q 3406 4025 3406 3419 
Q 3406 3131 3298 2873 
Q 3191 2616 2906 2266 
Q 2828 2175 2409 1742 
Q 1991 1309 1228 531 
z
" transform="scale(0.015625)"/>
       </defs>
       <use xlink:href="#DejaVuSans-30" transform="translate(0 0.78125)"/>
       <use xlink:href="#DejaVuSans-2e" transform="translate(63.623047 0.78125)"/>
       <use xlink:href="#DejaVuSans-32" transform="translate(89.910156 0.78125)"/>
      </g>
     </g>
    </g>
    <g id="xtick_3">
     <g id="line2d_3">
      <g>
       <use xlink:href="#m4d249166e2" x="244.20782" y="299.42" style="stroke: #000000"/>
      </g>
     </g>
     <g id="text_3">
      <!-- $\mathdefault{0.4}$ -->
      <g transform="translate(232.20782 321.317656) scale(0.15 -0.15)">
       <defs>
        <path id="DejaVuSans-34" d="M 2419 4116 
L 825 1625 
L 2419 1625 
L 2419 4116 
z
M 2253 4666 
L 3047 4666 
L 3047 1625 
L 3713 1625 
L 3713 1100 
L 3047 1100 
L 3047 0 
L 2419 0 
L 2419 1100 
L 313 1100 
L 313 1709 
L 2253 4666 
z
" transform="scale(0.015625)"/>
       </defs>
       <use xlink:href="#DejaVuSans-30" transform="translate(0 0.78125)"/>
       <use xlink:href="#DejaVuSans-2e" transform="translate(63.623047 0.78125)"/>
       <use xlink:href="#DejaVuSans-34" transform="translate(95.410156 0.78125)"/>
      </g>
     </g>
    </g>
    <g id="xtick_4">
     <g id="line2d_4">
      <g>
       <use xlink:href="#m4d249166e2" x="323.726418" y="299.42" style="stroke: #000000"/>
      </g>
     </g>
     <g id="text_4">
      <!-- $\mathdefault{0.6}$ -->
      <g transform="translate(311.726418 321.317656) scale(0.15 -0.15)">
       <defs>
        <path id="DejaVuSans-36" d="M 2113 2584 
Q 1688 2584 1439 2293 
Q 1191 2003 1191 1497 
Q 1191 994 1439 701 
Q 1688 409 2113 409 
Q 2538 409 2786 701 
Q 3034 994 3034 1497 
Q 3034 2003 2786 2293 
Q 2538 2584 2113 2584 
z
M 3366 4563 
L 3366 3988 
Q 3128 4100 2886 4159 
Q 2644 4219 2406 4219 
Q 1781 4219 1451 3797 
Q 1122 3375 1075 2522 
Q 1259 2794 1537 2939 
Q 1816 3084 2150 3084 
Q 2853 3084 3261 2657 
Q 3669 2231 3669 1497 
Q 3669 778 3244 343 
Q 2819 -91 2113 -91 
Q 1303 -91 875 529 
Q 447 1150 447 2328 
Q 447 3434 972 4092 
Q 1497 4750 2381 4750 
Q 2619 4750 2861 4703 
Q 3103 4656 3366 4563 
z
" transform="scale(0.015625)"/>
       </defs>
       <use xlink:href="#DejaVuSans-30" transform="translate(0 0.78125)"/>
       <use xlink:href="#DejaVuSans-2e" transform="translate(63.623047 0.78125)"/>
       <use xlink:href="#DejaVuSans-36" transform="translate(95.410156 0.78125)"/>
      </g>
     </g>
    </g>
    <g id="xtick_5">
     <g id="line2d_5">
      <g>
       <use xlink:href="#m4d249166e2" x="403.245015" y="299.42" style="stroke: #000000"/>
      </g>
     </g>
     <g id="text_5">
      <!-- $\mathdefault{0.8}$ -->
      <g transform="translate(391.470015 321.317656) scale(0.15 -0.15)">
       <defs>
        <path id="DejaVuSans-38" d="M 2034 2216 
Q 1584 2216 1326 1975 
Q 1069 1734 1069 1313 
Q 1069 891 1326 650 
Q 1584 409 2034 409 
Q 2484 409 2743 651 
Q 3003 894 3003 1313 
Q 3003 1734 2745 1975 
Q 2488 2216 2034 2216 
z
M 1403 2484 
Q 997 2584 770 2862 
Q 544 3141 544 3541 
Q 544 4100 942 4425 
Q 1341 4750 2034 4750 
Q 2731 4750 3128 4425 
Q 3525 4100 3525 3541 
Q 3525 3141 3298 2862 
Q 3072 2584 2669 2484 
Q 3125 2378 3379 2068 
Q 3634 1759 3634 1313 
Q 3634 634 3220 271 
Q 2806 -91 2034 -91 
Q 1263 -91 848 271 
Q 434 634 434 1313 
Q 434 1759 690 2068 
Q 947 2378 1403 2484 
z
M 1172 3481 
Q 1172 3119 1398 2916 
Q 1625 2713 2034 2713 
Q 2441 2713 2670 2916 
Q 2900 3119 2900 3481 
Q 2900 3844 2670 4047 
Q 2441 4250 2034 4250 
Q 1625 4250 1398 4047 
Q 1172 3844 1172 3481 
z
" transform="scale(0.015625)"/>
       </defs>
       <use xlink:href="#DejaVuSans-30" transform="translate(0 0.78125)"/>
       <use xlink:href="#DejaVuSans-2e" transform="translate(63.623047 0.78125)"/>
       <use xlink:href="#DejaVuSans-38" transform="translate(92.785156 0.78125)"/>
      </g>
     </g>
    </g>
    <g id="xtick_6">
     <g id="line2d_6">
      <g>
       <use xlink:href="#m4d249166e2" x="482.763613" y="299.42" style="stroke: #000000"/>
      </g>
     </g>
     <g id="text_6">
      <!-- $\mathdefault{1.0}$ -->
      <g transform="translate(470.763613 321.317656) scale(0.15 -0.15)">
       <defs>
        <path id="DejaVuSans-31" d="M 794 531 
L 1825 531 
L 1825 4091 
L 703 3866 
L 703 4441 
L 1819 4666 
L 2450 4666 
L 2450 531 
L 3481 531 
L 3481 0 
L 794 0 
L 794 531 
z
" transform="scale(0.015625)"/>
       </defs>
       <use xlink:href="#DejaVuSans-31" transform="translate(0 0.78125)"/>
       <use xlink:href="#DejaVuSans-2e" transform="translate(63.623047 0.78125)"/>
       <use xlink:href="#DejaVuSans-30" transform="translate(95.410156 0.78125)"/>
      </g>
     </g>
    </g>
    <g id="text_7">
     <!-- Altitude (km) -->
     <g transform="translate(226.249256 342.114375) scale(0.18 -0.18)">
      <defs>
       <path id="DejaVuSans-41" d="M 2188 4044 
L 1331 1722 
L 3047 1722 
L 2188 4044 
z
M 1831 4666 
L 2547 4666 
L 4325 0 
L 3669 0 
L 3244 1197 
L 1141 1197 
L 716 0 
L 50 0 
L 1831 4666 
z
" transform="scale(0.015625)"/>
       <path id="DejaVuSans-6c" d="M 603 4863 
L 1178 4863 
L 1178 0 
L 603 0 
L 603 4863 
z
" transform="scale(0.015625)"/>
       <path id="DejaVuSans-74" d="M 1172 4494 
L 1172 3500 
L 2356 3500 
L 2356 3053 
L 1172 3053 
L 1172 1153 
Q 1172 725 1289 603 
Q 1406 481 1766 481 
L 2356 481 
L 2356 0 
L 1766 0 
Q 1100 0 847 248 
Q 594 497 594 1153 
L 594 3053 
L 172 3053 
L 172 3500 
L 594 3500 
L 594 4494 
L 1172 4494 
z
" transform="scale(0.015625)"/>
       <path id="DejaVuSans-69" d="M 603 3500 
L 1178 3500 
L 1178 0 
L 603 0 
L 603 3500 
z
M 603 4863 
L 1178 4863 
L 1178 4134 
L 603 4134 
L 603 4863 
z
" transform="scale(0.015625)"/>
       <path id="DejaVuSans-75" d="M 544 1381 
L 544 3500 
L 1119 3500 
L 1119 1403 
Q 1119 906 1312 657 
Q 1506 409 1894 409 
Q 2359 409 2629 706 
Q 2900 1003 2900 1516 
L 2900 3500 
L 3475 3500 
L 3475 0 
L 2900 0 
L 2900 538 
Q 2691 219 2414 64 
Q 2138 -91 1772 -91 
Q 1169 -91 856 284 
Q 544 659 544 1381 
z
M 1991 3584 
L 1991 3584 
z
" transform="scale(0.015625)"/>
       <path id="DejaVuSans-64" d="M 2906 2969 
L 2906 4863 
L 3481 4863 
L 3481 0 
L 2906 0 
L 2906 525 
Q 2725 213 2448 61 
Q 2172 -91 1784 -91 
Q 1150 -91 751 415 
Q 353 922 353 1747 
Q 353 2572 751 3078 
Q 1150 3584 1784 3584 
Q 2172 3584 2448 3432 
Q 2725 3281 2906 2969 
z
M 947 1747 
Q 947 1113 1208 752 
Q 1469 391 1925 391 
Q 2381 391 2643 752 
Q 2906 1113 2906 1747 
Q 2906 2381 2643 2742 
Q 2381 3103 1925 3103 
Q 1469 3103 1208 2742 
Q 947 2381 947 1747 
z
" transform="scale(0.015625)"/>
       <path id="DejaVuSans-65" d="M 3597 1894 
L 3597 1613 
L 953 1613 
Q 991 1019 1311 708 
Q 1631 397 2203 397 
Q 2534 397 2845 478 
Q 3156 559 3463 722 
L 3463 178 
Q 3153 47 2828 -22 
Q 2503 -91 2169 -91 
Q 1331 -91 842 396 
Q 353 884 353 1716 
Q 353 2575 817 3079 
Q 1281 3584 2069 3584 
Q 2775 3584 3186 3129 
Q 3597 2675 3597 1894 
z
M 3022 2063 
Q 3016 2534 2758 2815 
Q 2500 3097 2075 3097 
Q 1594 3097 1305 2825 
Q 1016 2553 972 2059 
L 3022 2063 
z
" transform="scale(0.015625)"/>
       <path id="DejaVuSans-20" transform="scale(0.015625)"/>
       <path id="DejaVuSans-28" d="M 1984 4856 
Q 1566 4138 1362 3434 
Q 1159 2731 1159 2009 
Q 1159 1288 1364 580 
Q 1569 -128 1984 -844 
L 1484 -844 
Q 1016 -109 783 600 
Q 550 1309 550 2009 
Q 550 2706 781 3412 
Q 1013 4119 1484 4856 
L 1984 4856 
z
" transform="scale(0.015625)"/>
       <path id="DejaVuSans-6b" d="M 581 4863 
L 1159 4863 
L 1159 1991 
L 2875 3500 
L 3609 3500 
L 1753 1863 
L 3688 0 
L 2938 0 
L 1159 1709 
L 1159 0 
L 581 0 
L 581 4863 
z
" transform="scale(0.015625)"/>
       <path id="DejaVuSans-6d" d="M 3328 2828 
Q 3544 3216 3844 3400 
Q 4144 3584 4550 3584 
Q 5097 3584 5394 3201 
Q 5691 2819 5691 2113 
L 5691 0 
L 5113 0 
L 5113 2094 
Q 5113 2597 4934 2840 
Q 4756 3084 4391 3084 
Q 3944 3084 3684 2787 
Q 3425 2491 3425 1978 
L 3425 0 
L 2847 0 
L 2847 2094 
Q 2847 2600 2669 2842 
Q 2491 3084 2119 3084 
Q 1678 3084 1418 2786 
Q 1159 2488 1159 1978 
L 1159 0 
L 581 0 
L 581 3500 
L 1159 3500 
L 1159 2956 
Q 1356 3278 1631 3431 
Q 1906 3584 2284 3584 
Q 2666 3584 2933 3390 
Q 3200 3197 3328 2828 
z
" transform="scale(0.015625)"/>
       <path id="DejaVuSans-29" d="M 513 4856 
L 1013 4856 
Q 1481 4119 1714 3412 
Q 1947 2706 1947 2009 
Q 1947 1309 1714 600 
Q 1481 -109 1013 -844 
L 513 -844 
Q 928 -128 1133 580 
Q 1338 1288 1338 2009 
Q 1338 2731 1133 3434 
Q 928 4138 513 4856 
z
" transform="scale(0.015625)"/>
      </defs>
      <use xlink:href="#DejaVuSans-41"/>
      <use xlink:href="#DejaVuSans-6c" x="68.408203"/>
      <use xlink:href="#DejaVuSans-74" x="96.191406"/>
      <use xlink:href="#DejaVuSans-69" x="135.400391"/>
      <use xlink:href="#DejaVuSans-74" x="163.183594"/>
      <use xlink:href="#DejaVuSans-75" x="202.392578"/>
      <use xlink:href="#DejaVuSans-64" x="265.771484"/>
      <use xlink:href="#DejaVuSans-65" x="329.248047"/>
      <use xlink:href="#DejaVuSans-20" x="390.771484"/>
      <use xlink:href="#DejaVuSans-28" x="422.558594"/>
      <use xlink:href="#DejaVuSans-6b" x="461.572266"/>
      <use xlink:href="#DejaVuSans-6d" x="519.482422"/>
      <use xlink:href="#DejaVuSans-29" x="616.894531"/>
     </g>
    </g>
    <g id="text_8">
     <!-- $\times\mathdefault{10^{11}}\mathdefault{}$ -->
     <g transform="translate(442.8282 338.075) scale(0.14 -0.14)">
      <defs>
       <path id="DejaVuSans-d7" d="M 4488 3438 
L 3059 2003 
L 4488 575 
L 4116 197 
L 2681 1631 
L 1247 197 
L 878 575 
L 2303 2003 
L 878 3438 
L 1247 3816 
L 2681 2381 
L 4116 3816 
L 4488 3438 
z
" transform="scale(0.015625)"/>
      </defs>
      <use xlink:href="#DejaVuSans-d7" transform="translate(0 0.684375)"/>
      <use xlink:href="#DejaVuSans-31" transform="translate(83.789062 0.684375)"/>
      <use xlink:href="#DejaVuSans-30" transform="translate(147.412109 0.684375)"/>
      <use xlink:href="#DejaVuSans-31" transform="translate(211.992188 38.965625) scale(0.7)"/>
      <use xlink:href="#DejaVuSans-31" transform="translate(256.52832 38.965625) scale(0.7)"/>
     </g>
    </g>
   </g>
   <g id="matplotlib.axis_2">
    <g id="ytick_1">
     <g id="line2d_7">
      <defs>
       <path id="m6dd5c481a8" d="M 0 0 
L -3.5 0 
" style="stroke: #000000"/>
      </defs>
      <g>
       <use xlink:href="#m6dd5c481a8" x="85.170625" y="294.074678" style="stroke: #000000"/>
      </g>
     </g>
     <g id="text_9">
      <!-- $\mathdefault{−0.05}$ -->
      <g transform="translate(28.620625 299.773506) scale(0.15 -0.15)">
       <defs>
        <path id="DejaVuSans-2212" d="M 678 2272 
L 4684 2272 
L 4684 1741 
L 678 1741 
L 678 2272 
z
" transform="scale(0.015625)"/>
        <path id="DejaVuSans-35" d="M 691 4666 
L 3169 4666 
L 3169 4134 
L 1269 4134 
L 1269 2991 
Q 1406 3038 1543 3061 
Q 1681 3084 1819 3084 
Q 2600 3084 3056 2656 
Q 3513 2228 3513 1497 
Q 3513 744 3044 326 
Q 2575 -91 1722 -91 
Q 1428 -91 1123 -41 
Q 819 9 494 109 
L 494 744 
Q 775 591 1075 516 
Q 1375 441 1709 441 
Q 2250 441 2565 725 
Q 2881 1009 2881 1497 
Q 2881 1984 2565 2268 
Q 2250 2553 1709 2553 
Q 1456 2553 1204 2497 
Q 953 2441 691 2322 
L 691 4666 
z
" transform="scale(0.015625)"/>
       </defs>
       <use xlink:href="#DejaVuSans-2212" transform="translate(0 0.78125)"/>
       <use xlink:href="#DejaVuSans-30" transform="translate(83.789062 0.78125)"/>
       <use xlink:href="#DejaVuSans-2e" transform="translate(147.412109 0.78125)"/>
       <use xlink:href="#DejaVuSans-30" transform="translate(179.199219 0.78125)"/>
       <use xlink:href="#DejaVuSans-35" transform="translate(242.822266 0.78125)"/>
      </g>
     </g>
    </g>
    <g id="ytick_2">
     <g id="line2d_8">
      <g>
       <use xlink:href="#m6dd5c481a8" x="85.170625" y="245.290457" style="stroke: #000000"/>
      </g>
     </g>
     <g id="text_10">
      <!-- $\mathdefault{0.00}$ -->
      <g transform="translate(41.220625 250.989285) scale(0.15 -0.15)">
       <use xlink:href="#DejaVuSans-30" transform="translate(0 0.78125)"/>
       <use xlink:href="#DejaVuSans-2e" transform="translate(63.623047 0.78125)"/>
       <use xlink:href="#DejaVuSans-30" transform="translate(95.410156 0.78125)"/>
       <use xlink:href="#DejaVuSans-30" transform="translate(159.033203 0.78125)"/>
      </g>
     </g>
    </g>
    <g id="ytick_3">
     <g id="line2d_9">
      <g>
       <use xlink:href="#m6dd5c481a8" x="85.170625" y="196.506236" style="stroke: #000000"/>
      </g>
     </g>
     <g id="text_11">
      <!-- $\mathdefault{0.05}$ -->
      <g transform="translate(41.220625 202.205064) scale(0.15 -0.15)">
       <use xlink:href="#DejaVuSans-30" transform="translate(0 0.78125)"/>
       <use xlink:href="#DejaVuSans-2e" transform="translate(63.623047 0.78125)"/>
       <use xlink:href="#DejaVuSans-30" transform="translate(95.410156 0.78125)"/>
       <use xlink:href="#DejaVuSans-35" transform="translate(159.033203 0.78125)"/>
      </g>
     </g>
    </g>
    <g id="ytick_4">
     <g id="line2d_10">
      <g>
       <use xlink:href="#m6dd5c481a8" x="85.170625" y="147.722014" style="stroke: #000000"/>
      </g>
     </g>
     <g id="text_12">
      <!-- $\mathdefault{0.10}$ -->
      <g transform="translate(41.220625 153.420842) scale(0.15 -0.15)">
       <use xlink:href="#DejaVuSans-30" transform="translate(0 0.78125)"/>
       <use xlink:href="#DejaVuSans-2e" transform="translate(63.623047 0.78125)"/>
       <use xlink:href="#DejaVuSans-31" transform="translate(95.410156 0.78125)"/>
       <use xlink:href="#DejaVuSans-30" transform="translate(159.033203 0.78125)"/>
      </g>
     </g>
    </g>
    <g id="ytick_5">
     <g id="line2d_11">
      <g>
       <use xlink:href="#m6dd5c481a8" x="85.170625" y="98.937793" style="stroke: #000000"/>
      </g>
     </g>
     <g id="text_13">
      <!-- $\mathdefault{0.15}$ -->
      <g transform="translate(41.220625 104.636621) scale(0.15 -0.15)">
       <use xlink:href="#DejaVuSans-30" transform="translate(0 0.78125)"/>
       <use xlink:href="#DejaVuSans-2e" transform="translate(63.623047 0.78125)"/>
       <use xlink:href="#DejaVuSans-31" transform="translate(95.410156 0.78125)"/>
       <use xlink:href="#DejaVuSans-35" transform="translate(159.033203 0.78125)"/>
      </g>
     </g>
    </g>
    <g id="ytick_6">
     <g id="line2d_12">
      <g>
       <use xlink:href="#m6dd5c481a8" x="85.170625" y="50.153572" style="stroke: #000000"/>
      </g>
     </g>
     <g id="text_14">
      <!-- $\mathdefault{0.20}$ -->
      <g transform="translate(41.970625 55.8524) scale(0.15 -0.15)">
       <use xlink:href="#DejaVuSans-30" transform="translate(0 0.78125)"/>
       <use xlink:href="#DejaVuSans-2e" transform="translate(63.623047 0.78125)"/>
       <use xlink:href="#DejaVuSans-32" transform="translate(89.910156 0.78125)"/>
       <use xlink:href="#DejaVuSans-30" transform="translate(153.533203 0.78125)"/>
      </g>
     </g>
    </g>
    <g id="text_15">
     <!-- Wigner rotation angle (degree) -->
     <g transform="translate(20.877187 292.561094) rotate(-90) scale(0.18 -0.18)">
      <defs>
       <path id="DejaVuSans-57" d="M 213 4666 
L 850 4666 
L 1831 722 
L 2809 4666 
L 3519 4666 
L 4500 722 
L 5478 4666 
L 6119 4666 
L 4947 0 
L 4153 0 
L 3169 4050 
L 2175 0 
L 1381 0 
L 213 4666 
z
" transform="scale(0.015625)"/>
       <path id="DejaVuSans-67" d="M 2906 1791 
Q 2906 2416 2648 2759 
Q 2391 3103 1925 3103 
Q 1463 3103 1205 2759 
Q 947 2416 947 1791 
Q 947 1169 1205 825 
Q 1463 481 1925 481 
Q 2391 481 2648 825 
Q 2906 1169 2906 1791 
z
M 3481 434 
Q 3481 -459 3084 -895 
Q 2688 -1331 1869 -1331 
Q 1566 -1331 1297 -1286 
Q 1028 -1241 775 -1147 
L 775 -588 
Q 1028 -725 1275 -790 
Q 1522 -856 1778 -856 
Q 2344 -856 2625 -561 
Q 2906 -266 2906 331 
L 2906 616 
Q 2728 306 2450 153 
Q 2172 0 1784 0 
Q 1141 0 747 490 
Q 353 981 353 1791 
Q 353 2603 747 3093 
Q 1141 3584 1784 3584 
Q 2172 3584 2450 3431 
Q 2728 3278 2906 2969 
L 2906 3500 
L 3481 3500 
L 3481 434 
z
" transform="scale(0.015625)"/>
       <path id="DejaVuSans-6e" d="M 3513 2113 
L 3513 0 
L 2938 0 
L 2938 2094 
Q 2938 2591 2744 2837 
Q 2550 3084 2163 3084 
Q 1697 3084 1428 2787 
Q 1159 2491 1159 1978 
L 1159 0 
L 581 0 
L 581 3500 
L 1159 3500 
L 1159 2956 
Q 1366 3272 1645 3428 
Q 1925 3584 2291 3584 
Q 2894 3584 3203 3211 
Q 3513 2838 3513 2113 
z
" transform="scale(0.015625)"/>
       <path id="DejaVuSans-72" d="M 2631 2963 
Q 2534 3019 2420 3045 
Q 2306 3072 2169 3072 
Q 1681 3072 1420 2755 
Q 1159 2438 1159 1844 
L 1159 0 
L 581 0 
L 581 3500 
L 1159 3500 
L 1159 2956 
Q 1341 3275 1631 3429 
Q 1922 3584 2338 3584 
Q 2397 3584 2469 3576 
Q 2541 3569 2628 3553 
L 2631 2963 
z
" transform="scale(0.015625)"/>
       <path id="DejaVuSans-6f" d="M 1959 3097 
Q 1497 3097 1228 2736 
Q 959 2375 959 1747 
Q 959 1119 1226 758 
Q 1494 397 1959 397 
Q 2419 397 2687 759 
Q 2956 1122 2956 1747 
Q 2956 2369 2687 2733 
Q 2419 3097 1959 3097 
z
M 1959 3584 
Q 2709 3584 3137 3096 
Q 3566 2609 3566 1747 
Q 3566 888 3137 398 
Q 2709 -91 1959 -91 
Q 1206 -91 779 398 
Q 353 888 353 1747 
Q 353 2609 779 3096 
Q 1206 3584 1959 3584 
z
" transform="scale(0.015625)"/>
       <path id="DejaVuSans-61" d="M 2194 1759 
Q 1497 1759 1228 1600 
Q 959 1441 959 1056 
Q 959 750 1161 570 
Q 1363 391 1709 391 
Q 2188 391 2477 730 
Q 2766 1069 2766 1631 
L 2766 1759 
L 2194 1759 
z
M 3341 1997 
L 3341 0 
L 2766 0 
L 2766 531 
Q 2569 213 2275 61 
Q 1981 -91 1556 -91 
Q 1019 -91 701 211 
Q 384 513 384 1019 
Q 384 1609 779 1909 
Q 1175 2209 1959 2209 
L 2766 2209 
L 2766 2266 
Q 2766 2663 2505 2880 
Q 2244 3097 1772 3097 
Q 1472 3097 1187 3025 
Q 903 2953 641 2809 
L 641 3341 
Q 956 3463 1253 3523 
Q 1550 3584 1831 3584 
Q 2591 3584 2966 3190 
Q 3341 2797 3341 1997 
z
" transform="scale(0.015625)"/>
      </defs>
      <use xlink:href="#DejaVuSans-57"/>
      <use xlink:href="#DejaVuSans-69" x="96.626953"/>
      <use xlink:href="#DejaVuSans-67" x="124.410156"/>
      <use xlink:href="#DejaVuSans-6e" x="187.886719"/>
      <use xlink:href="#DejaVuSans-65" x="251.265625"/>
      <use xlink:href="#DejaVuSans-72" x="312.789062"/>
      <use xlink:href="#DejaVuSans-20" x="353.902344"/>
      <use xlink:href="#DejaVuSans-72" x="385.689453"/>
      <use xlink:href="#DejaVuSans-6f" x="424.552734"/>
      <use xlink:href="#DejaVuSans-74" x="485.734375"/>
      <use xlink:href="#DejaVuSans-61" x="524.943359"/>
      <use xlink:href="#DejaVuSans-74" x="586.222656"/>
      <use xlink:href="#DejaVuSans-69" x="625.431641"/>
      <use xlink:href="#DejaVuSans-6f" x="653.214844"/>
      <use xlink:href="#DejaVuSans-6e" x="714.396484"/>
      <use xlink:href="#DejaVuSans-20" x="777.775391"/>
      <use xlink:href="#DejaVuSans-61" x="809.5625"/>
      <use xlink:href="#DejaVuSans-6e" x="870.841797"/>
      <use xlink:href="#DejaVuSans-67" x="934.220703"/>
      <use xlink:href="#DejaVuSans-6c" x="997.697266"/>
      <use xlink:href="#DejaVuSans-65" x="1025.480469"/>
      <use xlink:href="#DejaVuSans-20" x="1087.003906"/>
      <use xlink:href="#DejaVuSans-28" x="1118.791016"/>
      <use xlink:href="#DejaVuSans-64" x="1157.804688"/>
      <use xlink:href="#DejaVuSans-65" x="1221.28125"/>
      <use xlink:href="#DejaVuSans-67" x="1282.804688"/>
      <use xlink:href="#DejaVuSans-72" x="1346.28125"/>
      <use xlink:href="#DejaVuSans-65" x="1385.144531"/>
      <use xlink:href="#DejaVuSans-65" x="1446.667969"/>
      <use xlink:href="#DejaVuSans-29" x="1508.191406"/>
     </g>
    </g>
   </g>
   <g id="line2d_13">
    <path d="M 85.170625 242.7407 
L 87.29029 235.29354 
L 89.619301 228.162815 
L 92.153852 221.362628 
L 94.890001 214.90361 
L 97.823475 208.793045 
L 100.949888 203.03506 
L 103.139184 199.392988 
L 105.410891 195.907898 
L 107.763574 192.578984 
L 110.195797 189.404982 
L 112.706124 186.384214 
L 115.293122 183.514623 
L 117.955354 180.793814 
L 120.691385 178.219088 
L 123.49978 175.787483 
L 126.379103 173.495803 
L 129.327857 171.340654 
L 133.87796 168.356093 
L 138.57625 165.658108 
L 143.418025 163.23365 
L 148.398584 161.069372 
L 153.513224 159.151788 
L 158.757245 157.467408 
L 164.125983 156.002866 
L 169.615206 154.745021 
L 175.220869 153.681054 
L 180.938924 152.798525 
L 186.765324 152.085422 
L 194.695401 151.378283 
L 202.801428 150.925868 
L 211.075067 150.703799 
L 219.508599 150.689373 
L 230.263614 150.931416 
L 241.241352 151.427515 
L 252.427771 152.143802 
L 266.110143 153.251533 
L 282.404051 154.828359 
L 301.424476 156.929445 
L 323.284836 159.582129 
L 353.108385 163.448778 
L 406.87881 170.700536 
L 467.63497 178.819695 
L 494.548038 182.303919 
L 494.548038 182.303919 
" clip-path="url(#p7604ac6eba)" style="fill: none; stroke: #67000d; stroke-width: 1.75; stroke-linecap: square"/>
   </g>
   <g id="line2d_14">
    <path d="M 85.170625 242.928222 
L 87.757719 236.07476 
L 90.547946 229.578614 
L 93.536909 223.446448 
L 95.637749 219.562332 
L 97.823527 215.841766 
L 100.092809 212.284409 
L 102.444167 208.889397 
L 104.876168 205.655376 
L 107.387356 202.580555 
L 109.976237 199.662733 
L 112.641325 196.899353 
L 115.381138 194.287533 
L 118.194193 191.824112 
L 121.079004 189.505683 
L 124.034089 187.328633 
L 127.057965 185.289175 
L 131.719514 182.479345 
L 136.527463 179.956522 
L 141.476872 177.706634 
L 146.563137 175.715443 
L 151.781679 173.968699 
L 157.127915 172.452271 
L 162.597264 171.152256 
L 168.185144 170.055066 
L 173.88706 169.147505 
L 179.699026 168.416837 
L 185.617241 167.850831 
L 193.666898 167.332161 
L 201.889667 167.059295 
L 210.276542 167.007792 
L 218.819118 167.15498 
L 229.705308 167.586658 
L 240.80965 168.259045 
L 254.403335 169.337017 
L 268.268871 170.663102 
L 284.763873 172.465494 
L 303.99979 174.790116 
L 328.563973 177.987556 
L 366.359006 183.167937 
L 458.062122 195.833771 
L 501.261837 201.529732 
L 502.963613 201.748909 
L 502.963613 201.748909 
" clip-path="url(#p7604ac6eba)" style="fill: none; stroke: #c5171c; stroke-width: 1.75; stroke-linecap: square"/>
   </g>
   <g id="line2d_15">
    <path d="M 85.170625 243.293046 
L 87.362244 239.431233 
L 89.639587 235.746289 
L 92.001139 232.237125 
L 94.445368 228.902098 
L 96.970733 225.739068 
L 99.575669 222.74544 
L 102.258603 219.918216 
L 105.017964 217.254045 
L 107.852183 214.749266 
L 110.759671 212.399952 
L 113.738799 210.201953 
L 116.788047 208.150936 
L 119.905903 206.242426 
L 123.090858 204.471838 
L 127.990797 202.064345 
L 133.033214 199.94075 
L 138.213013 198.085065 
L 143.525092 196.481403 
L 148.964548 195.114117 
L 154.526965 193.967931 
L 160.207989 193.028032 
L 166.003266 192.280132 
L 171.90844 191.710518 
L 179.945432 191.205805 
L 188.160122 190.965509 
L 196.543987 190.962385 
L 205.088822 191.171254 
L 215.983734 191.695345 
L 227.101384 192.473578 
L 240.716712 193.691688 
L 254.610972 195.167835 
L 271.145218 197.152822 
L 290.43127 199.690359 
L 317.560175 203.512559 
L 360.682738 209.859085 
L 426.236659 219.483004 
L 466.548047 225.172629 
L 502.963613 230.104531 
L 502.963613 230.104531 
" clip-path="url(#p7604ac6eba)" style="fill: none; stroke: #f85d42; stroke-width: 1.75; stroke-linecap: square"/>
   </g>
   <g id="line2d_16">
    <path d="M 85.170625 244.103725 
L 88.209408 241.864718 
L 91.322057 239.799908 
L 94.506801 237.903069 
L 97.761849 236.167882 
L 101.085457 234.587968 
L 104.475955 233.15694 
L 107.931671 231.868433 
L 113.233873 230.189112 
L 118.673414 228.795331 
L 124.244622 227.666708 
L 129.942468 226.78357 
L 135.762165 226.127068 
L 141.698923 225.679236 
L 147.747953 225.423027 
L 153.904466 225.342342 
L 162.272172 225.481743 
L 170.812719 225.87306 
L 179.51732 226.485938 
L 190.615426 227.521893 
L 201.939066 228.81313 
L 215.802763 230.640633 
L 232.328086 233.077909 
L 251.634221 236.165778 
L 278.828624 240.767352 
L 388.002576 259.502592 
L 423.093763 265.16723 
L 455.899135 270.233099 
L 489.049123 275.119717 
L 502.963613 277.101464 
L 502.963613 277.101464 
" clip-path="url(#p7604ac6eba)" style="fill: none; stroke: #fcab8f; stroke-width: 1.75; stroke-linecap: square"/>
   </g>
   <g id="line2d_17">
    <path d="M 85.170625 242.5988 
L 89.749626 234.793851 
L 92.88648 229.812252 
L 96.088998 225.00466 
L 99.355735 220.367977 
L 104.373202 213.726223 
L 109.527338 207.450013 
L 114.813456 201.52715 
L 120.226825 195.945001 
L 125.762933 190.690639 
L 131.417621 185.750977 
L 137.186742 181.112878 
L 143.066148 176.763245 
L 149.051691 172.689089 
L 155.139223 168.877603 
L 161.32476 165.316218 
L 167.604847 161.992664 
L 173.976136 158.895016 
L 180.43528 156.011718 
L 186.978929 153.331601 
L 193.603736 150.843896 
L 200.306366 148.538246 
L 207.083845 146.404713 
L 213.933566 144.433792 
L 223.174425 142.043216 
L 232.532964 139.905273 
L 242.003044 138.000888 
L 251.578696 136.312228 
L 261.254937 134.822665 
L 271.027109 133.516727 
L 283.370131 132.120722 
L 295.846679 130.963402 
L 308.448495 130.021257 
L 321.168616 129.272941 
L 336.57927 128.603686 
L 352.138674 128.155723 
L 370.465861 127.877383 
L 388.967473 127.826878 
L 410.307845 128.0069 
L 434.544137 128.463472 
L 461.730178 129.228507 
L 491.915076 130.318992 
L 502.963613 130.768709 
L 502.963613 130.768709 
" clip-path="url(#p7604ac6eba)" style="fill: none; stroke: #b7d4ea; stroke-width: 1.75; stroke-linecap: square"/>
   </g>
   <g id="line2d_18">
    <path d="M 85.170625 242.118434 
L 88.482738 232.824218 
L 91.971525 223.866121 
L 95.632756 215.246899 
L 99.462089 206.967565 
L 103.45517 199.027519 
L 107.607577 191.424684 
L 111.914875 184.15565 
L 116.372677 177.21581 
L 120.976593 170.599512 
L 125.722237 164.300186 
L 130.605218 158.310476 
L 135.621139 152.622368 
L 140.765654 147.227299 
L 146.03474 142.116286 
L 151.42442 137.280025 
L 156.930716 132.708983 
L 162.549653 128.393473 
L 168.277252 124.323726 
L 174.109567 120.489959 
L 180.043027 116.882435 
L 186.074308 113.491525 
L 192.200088 110.307751 
L 198.41705 107.32181 
L 204.721872 104.524608 
L 211.111235 101.907282 
L 217.581968 99.461216 
L 224.131344 97.178066 
L 232.981613 94.373409 
L 241.960731 91.825798 
L 251.062436 89.517864 
L 260.280515 87.43316 
L 269.609521 85.556161 
L 279.044579 83.872257 
L 288.58083 82.367726 
L 300.63604 80.719773 
L 312.832542 79.308682 
L 325.162565 78.112989 
L 337.618825 77.113013 
L 352.722709 76.14612 
L 367.985922 75.406937 
L 383.398457 74.870129 
L 401.555608 74.469489 
L 419.888046 74.281538 
L 441.03808 74.291334 
L 465.064242 74.545605 
L 492.022246 75.07884 
L 502.963613 75.357257 
L 502.963613 75.357257 
" clip-path="url(#p7604ac6eba)" style="fill: none; stroke: #60a7d2; stroke-width: 1.75; stroke-linecap: square"/>
   </g>
   <g id="line2d_19">
    <path d="M 85.170625 241.919062 
L 87.749919 231.986158 
L 90.517239 222.333865 
L 93.468991 212.971785 
L 96.60138 203.907667 
L 99.910594 195.147466 
L 103.39271 186.695426 
L 107.043562 178.554149 
L 110.85896 170.724705 
L 114.834717 163.206738 
L 118.966642 155.99859 
L 123.250549 149.097421 
L 127.682169 142.499329 
L 132.257191 136.199457 
L 136.971485 130.192128 
L 141.820929 124.470953 
L 146.801399 119.028941 
L 151.908773 113.858598 
L 157.138925 108.952018 
L 162.487777 104.300973 
L 167.951599 99.897004 
L 173.526755 95.731498 
L 179.209613 91.795754 
L 184.996539 88.081033 
L 190.883898 84.578615 
L 196.868066 81.279834 
L 202.945699 78.176127 
L 209.11378 75.259079 
L 215.369316 72.520442 
L 221.70931 69.952164 
L 228.130767 67.546401 
L 234.63069 65.295532 
L 243.414308 62.522584 
L 252.326299 59.995073 
L 261.361031 57.696985 
L 270.51287 55.61312 
L 279.776184 53.729085 
L 289.145496 52.031277 
L 298.616165 50.506881 
L 310.590358 48.826959 
L 322.707519 47.377293 
L 334.959142 46.137659 
L 347.337714 45.089436 
L 362.350243 44.060249 
L 377.524628 43.255249 
L 392.849841 42.650215 
L 410.90754 42.168152 
L 429.143937 41.897928 
L 450.187147 41.813837 
L 474.09769 41.963892 
L 500.932697 42.384333 
L 500.932697 42.384333 
" clip-path="url(#p7604ac6eba)" style="fill: none; stroke: #1d6cb1; stroke-width: 1.75; stroke-linecap: square"/>
   </g>
   <g id="line2d_20">
    <path d="M 85.170625 241.820065 
L 87.282365 231.560679 
L 89.588002 221.540611 
L 92.084458 211.773346 
L 94.76839 202.270591 
L 97.636349 193.042273 
L 100.684883 184.096578 
L 103.910138 175.439982 
L 107.308129 167.077298 
L 110.87487 159.011761 
L 114.606374 151.245126 
L 118.498654 143.777767 
L 122.547691 136.608783 
L 126.749214 129.736099 
L 131.099065 123.156572 
L 135.593126 116.866112 
L 140.227274 110.859792 
L 144.997391 105.131955 
L 149.899355 99.676311 
L 154.929029 94.486038 
L 160.082456 89.553877 
L 165.355885 84.872224 
L 170.745568 80.433213 
L 176.247756 76.22878 
L 181.858701 72.250731 
L 187.574654 68.490794 
L 193.391984 64.940677 
L 199.307456 61.59212 
L 205.317915 58.436941 
L 211.420206 55.467067 
L 217.611172 52.674561 
L 223.887659 50.051646 
L 230.246523 47.590721 
L 236.68492 45.284384 
L 245.388761 42.437359 
L 254.223445 39.83602 
L 263.182958 37.46471 
L 272.261286 35.308519 
L 281.45275 33.35329 
L 290.75251 31.585624 
L 300.155848 29.992873 
L 312.048492 28.229817 
L 324.086449 26.699743 
L 336.261613 25.382545 
L 348.566812 24.259681 
L 363.49464 23.144829 
L 378.587323 22.258407 
L 393.834518 21.576135 
L 411.805466 21.009118 
L 429.958763 20.659294 
L 450.912094 20.490476 
L 472.069101 20.533943 
L 485.3882 20.654976 
L 485.3882 20.654976 
" clip-path="url(#p7604ac6eba)" style="fill: none; stroke: #08306b; stroke-width: 1.75; stroke-linecap: square"/>
   </g>
   <g id="patch_3">
    <path d="M 85.170625 299.42 
L 85.170625 7.2 
" style="fill: none; stroke: #000000; stroke-width: 0.8; stroke-linejoin: miter; stroke-linecap: square"/>
   </g>
   <g id="patch_4">
    <path d="M 485.3882 299.42 
L 485.3882 7.2 
" style="fill: none; stroke: #000000; stroke-width: 0.8; stroke-linejoin: miter; stroke-linecap: square"/>
   </g>
   <g id="patch_5">
    <path d="M 85.170625 299.42 
L 485.3882 299.42 
" style="fill: none; stroke: #000000; stroke-width: 0.8; stroke-linejoin: miter; stroke-linecap: square"/>
   </g>
   <g id="patch_6">
    <path d="M 85.170625 7.2 
L 485.3882 7.2 
" style="fill: none; stroke: #000000; stroke-width: 0.8; stroke-linejoin: miter; stroke-linecap: square"/>
   </g>
   <g id="legend_1">
    <g id="patch_7">
     <path d="M 133.179413 207.26 
L 437.379413 207.26 
Q 439.979413 207.26 439.979413 204.66 
L 439.979413 101.96 
Q 439.979413 99.36 437.379413 99.36 
L 133.179413 99.36 
Q 130.579413 99.36 130.579413 101.96 
L 130.579413 204.66 
Q 130.579413 207.26 133.179413 207.26 
z
" style="fill: #ffffff; opacity: 0.8; stroke: #cccccc; stroke-width: 0.3; stroke-linejoin: miter"/>
    </g>
    <g id="line2d_21">
     <path d="M 135.779413 114.05 
L 148.779413 114.05 
L 161.779413 114.05 
" style="fill: none; stroke: #67000d; stroke-width: 1.75; stroke-linecap: square"/>
    </g>
    <g id="text_16">
     <!-- $\frac{rk^\phi}{k^r} (\approx b_{ph})$= 5.0 -->
     <g transform="translate(172.179413 118.6) scale(0.13 -0.13)">
      <defs>
       <path id="DejaVuSans-Oblique-72" d="M 2853 2969 
Q 2766 3016 2653 3041 
Q 2541 3066 2413 3066 
Q 1953 3066 1609 2717 
Q 1266 2369 1153 1784 
L 800 0 
L 225 0 
L 909 3500 
L 1484 3500 
L 1375 2956 
Q 1603 3259 1920 3421 
Q 2238 3584 2597 3584 
Q 2691 3584 2781 3573 
Q 2872 3563 2963 3538 
L 2853 2969 
z
" transform="scale(0.015625)"/>
       <path id="DejaVuSans-Oblique-6b" d="M 1172 4863 
L 1747 4863 
L 1197 2028 
L 3169 3500 
L 3916 3500 
L 1716 1825 
L 3322 0 
L 2625 0 
L 1131 1709 
L 800 0 
L 225 0 
L 1172 4863 
z
" transform="scale(0.015625)"/>
       <path id="DejaVuSans-Oblique-3d5" d="M 2991 4863 
L 2738 3572 
Q 3363 3572 3684 3094 
Q 4016 2606 3850 1747 
Q 3681 888 3159 400 
Q 2653 -78 2028 -78 
L 1784 -1331 
L 1213 -1331 
L 1456 -78 
Q 834 -78 509 400 
Q 178 888 347 1747 
Q 513 2606 1034 3094 
Q 1544 3572 2166 3572 
L 2419 4863 
L 2991 4863 
z
M 2128 434 
Q 2481 434 2784 756 
Q 3116 1116 3244 1747 
Q 3369 2372 3169 2738 
Q 2991 3059 2638 3059 
L 2128 434 
z
M 1556 434 
L 2066 3059 
Q 1716 3059 1413 2738 
Q 1072 2372 953 1747 
Q 834 1116 1028 756 
Q 1203 434 1556 434 
z
" transform="scale(0.015625)"/>
       <path id="DejaVuSans-2248" d="M 4684 1947 
L 4684 1388 
Q 4356 1144 4076 1036 
Q 3797 928 3494 928 
Q 3150 928 2694 1113 
Q 2663 1125 2641 1134 
Q 2622 1141 2575 1159 
Q 2091 1350 1797 1350 
Q 1522 1350 1253 1231 
Q 984 1113 678 850 
L 678 1409 
Q 1006 1653 1286 1761 
Q 1566 1869 1869 1869 
Q 2213 1869 2672 1684 
Q 2706 1669 2722 1663 
Q 2741 1656 2788 1638 
Q 3272 1447 3566 1447 
Q 3834 1447 4098 1564 
Q 4363 1681 4684 1947 
z
M 4684 3163 
L 4684 2606 
Q 4356 2359 4076 2251 
Q 3797 2144 3494 2144 
Q 3150 2144 2694 2328 
Q 2663 2341 2641 2350 
Q 2622 2356 2575 2375 
Q 2091 2566 1797 2566 
Q 1522 2566 1253 2447 
Q 984 2328 678 2069 
L 678 2625 
Q 1006 2869 1286 2976 
Q 1566 3084 1869 3084 
Q 2213 3084 2672 2900 
Q 2703 2888 2719 2881 
Q 2741 2872 2788 2853 
Q 3272 2663 3566 2663 
Q 3834 2663 4098 2780 
Q 4363 2897 4684 3163 
z
" transform="scale(0.015625)"/>
       <path id="DejaVuSans-Oblique-62" d="M 3169 2138 
Q 3169 2591 2961 2847 
Q 2753 3103 2388 3103 
Q 2122 3103 1889 2973 
Q 1656 2844 1484 2597 
Q 1303 2338 1198 1995 
Q 1094 1653 1094 1313 
Q 1094 881 1298 636 
Q 1503 391 1863 391 
Q 2134 391 2365 517 
Q 2597 644 2772 891 
Q 2950 1147 3059 1487 
Q 3169 1828 3169 2138 
z
M 1381 2969 
Q 1594 3256 1914 3420 
Q 2234 3584 2584 3584 
Q 3122 3584 3439 3221 
Q 3756 2859 3756 2241 
Q 3756 1734 3570 1259 
Q 3384 784 3041 416 
Q 2816 172 2522 40 
Q 2228 -91 1906 -91 
Q 1566 -91 1316 65 
Q 1066 222 909 531 
L 806 0 
L 231 0 
L 1178 4863 
L 1753 4863 
L 1381 2969 
z
" transform="scale(0.015625)"/>
       <path id="DejaVuSans-Oblique-70" d="M 3175 2156 
Q 3175 2616 2975 2859 
Q 2775 3103 2400 3103 
Q 2144 3103 1911 2972 
Q 1678 2841 1497 2591 
Q 1319 2344 1212 1994 
Q 1106 1644 1106 1300 
Q 1106 863 1306 627 
Q 1506 391 1875 391 
Q 2147 391 2380 519 
Q 2613 647 2778 891 
Q 2956 1147 3065 1494 
Q 3175 1841 3175 2156 
z
M 1394 2969 
Q 1625 3272 1939 3428 
Q 2253 3584 2638 3584 
Q 3175 3584 3472 3232 
Q 3769 2881 3769 2247 
Q 3769 1728 3584 1258 
Q 3400 788 3053 416 
Q 2822 169 2531 39 
Q 2241 -91 1919 -91 
Q 1547 -91 1294 64 
Q 1041 219 916 525 
L 556 -1331 
L -19 -1331 
L 922 3500 
L 1497 3500 
L 1394 2969 
z
" transform="scale(0.015625)"/>
       <path id="DejaVuSans-Oblique-68" d="M 3566 2113 
L 3156 0 
L 2578 0 
L 2988 2091 
Q 3016 2238 3031 2350 
Q 3047 2463 3047 2528 
Q 3047 2791 2881 2937 
Q 2716 3084 2419 3084 
Q 1956 3084 1617 2771 
Q 1278 2459 1178 1941 
L 800 0 
L 225 0 
L 1172 4863 
L 1747 4863 
L 1375 2950 
Q 1594 3244 1934 3414 
Q 2275 3584 2650 3584 
Q 3113 3584 3367 3334 
Q 3622 3084 3622 2631 
Q 3622 2519 3608 2391 
Q 3594 2263 3566 2113 
z
" transform="scale(0.015625)"/>
       <path id="DejaVuSans-3d" d="M 678 2906 
L 4684 2906 
L 4684 2381 
L 678 2381 
L 678 2906 
z
M 678 1631 
L 4684 1631 
L 4684 1100 
L 678 1100 
L 678 1631 
z
" transform="scale(0.015625)"/>
      </defs>
      <use xlink:href="#DejaVuSans-Oblique-72" transform="translate(0 43.970781) scale(0.7)"/>
      <use xlink:href="#DejaVuSans-Oblique-6b" transform="translate(28.779297 43.970781) scale(0.7)"/>
      <use xlink:href="#DejaVuSans-Oblique-3d5" transform="translate(74.529802 70.767656) scale(0.49)"/>
      <use xlink:href="#DejaVuSans-Oblique-6b" transform="translate(20 -41.516094) scale(0.7)"/>
      <use xlink:href="#DejaVuSans-Oblique-72" transform="translate(65.750505 -14.719219) scale(0.49)"/>
      <use xlink:href="#DejaVuSans-28" transform="translate(121.267595 0.173906)"/>
      <use xlink:href="#DejaVuSans-2248" transform="translate(179.763689 0.173906)"/>
      <use xlink:href="#DejaVuSans-Oblique-62" transform="translate(283.035173 0.173906)"/>
      <use xlink:href="#DejaVuSans-Oblique-70" transform="translate(346.511736 -16.232344) scale(0.7)"/>
      <use xlink:href="#DejaVuSans-Oblique-68" transform="translate(390.945329 -16.232344) scale(0.7)"/>
      <use xlink:href="#DejaVuSans-29" transform="translate(438.044939 0.173906)"/>
      <use xlink:href="#DejaVuSans-3d" transform="translate(477.058611 0.173906)"/>
      <use xlink:href="#DejaVuSans-20" transform="translate(560.847673 0.173906)"/>
      <use xlink:href="#DejaVuSans-35" transform="translate(592.634783 0.173906)"/>
      <use xlink:href="#DejaVuSans-2e" transform="translate(656.257829 0.173906)"/>
      <use xlink:href="#DejaVuSans-30" transform="translate(688.044939 0.173906)"/>
      <path d="M 0 18.970781 
L 0 25.220781 
L 108.767595 25.220781 
L 108.767595 18.970781 
L 0 18.970781 
z
"/>
     </g>
    </g>
    <g id="line2d_22">
     <path d="M 135.779413 140.05 
L 148.779413 140.05 
L 161.779413 140.05 
" style="fill: none; stroke: #c5171c; stroke-width: 1.75; stroke-linecap: square"/>
    </g>
    <g id="text_17">
     <!-- $\frac{rk^\phi}{k^r} (\approx b_{ph})$= 4.0 -->
     <g transform="translate(172.179413 144.6) scale(0.13 -0.13)">
      <use xlink:href="#DejaVuSans-Oblique-72" transform="translate(0 43.970781) scale(0.7)"/>
      <use xlink:href="#DejaVuSans-Oblique-6b" transform="translate(28.779297 43.970781) scale(0.7)"/>
      <use xlink:href="#DejaVuSans-Oblique-3d5" transform="translate(74.529802 70.767656) scale(0.49)"/>
      <use xlink:href="#DejaVuSans-Oblique-6b" transform="translate(20 -41.516094) scale(0.7)"/>
      <use xlink:href="#DejaVuSans-Oblique-72" transform="translate(65.750505 -14.719219) scale(0.49)"/>
      <use xlink:href="#DejaVuSans-28" transform="translate(121.267595 0.173906)"/>
      <use xlink:href="#DejaVuSans-2248" transform="translate(179.763689 0.173906)"/>
      <use xlink:href="#DejaVuSans-Oblique-62" transform="translate(283.035173 0.173906)"/>
      <use xlink:href="#DejaVuSans-Oblique-70" transform="translate(346.511736 -16.232344) scale(0.7)"/>
      <use xlink:href="#DejaVuSans-Oblique-68" transform="translate(390.945329 -16.232344) scale(0.7)"/>
      <use xlink:href="#DejaVuSans-29" transform="translate(438.044939 0.173906)"/>
      <use xlink:href="#DejaVuSans-3d" transform="translate(477.058611 0.173906)"/>
      <use xlink:href="#DejaVuSans-20" transform="translate(560.847673 0.173906)"/>
      <use xlink:href="#DejaVuSans-34" transform="translate(592.634783 0.173906)"/>
      <use xlink:href="#DejaVuSans-2e" transform="translate(656.257829 0.173906)"/>
      <use xlink:href="#DejaVuSans-30" transform="translate(688.044939 0.173906)"/>
      <path d="M 0 18.970781 
L 0 25.220781 
L 108.767595 25.220781 
L 108.767595 18.970781 
L 0 18.970781 
z
"/>
     </g>
    </g>
    <g id="line2d_23">
     <path d="M 135.779413 166.05 
L 148.779413 166.05 
L 161.779413 166.05 
" style="fill: none; stroke: #f85d42; stroke-width: 1.75; stroke-linecap: square"/>
    </g>
    <g id="text_18">
     <!-- $\frac{rk^\phi}{k^r} (\approx b_{ph})$= 3.0 -->
     <g transform="translate(172.179413 170.6) scale(0.13 -0.13)">
      <defs>
       <path id="DejaVuSans-33" d="M 2597 2516 
Q 3050 2419 3304 2112 
Q 3559 1806 3559 1356 
Q 3559 666 3084 287 
Q 2609 -91 1734 -91 
Q 1441 -91 1130 -33 
Q 819 25 488 141 
L 488 750 
Q 750 597 1062 519 
Q 1375 441 1716 441 
Q 2309 441 2620 675 
Q 2931 909 2931 1356 
Q 2931 1769 2642 2001 
Q 2353 2234 1838 2234 
L 1294 2234 
L 1294 2753 
L 1863 2753 
Q 2328 2753 2575 2939 
Q 2822 3125 2822 3475 
Q 2822 3834 2567 4026 
Q 2313 4219 1838 4219 
Q 1578 4219 1281 4162 
Q 984 4106 628 3988 
L 628 4550 
Q 988 4650 1302 4700 
Q 1616 4750 1894 4750 
Q 2613 4750 3031 4423 
Q 3450 4097 3450 3541 
Q 3450 3153 3228 2886 
Q 3006 2619 2597 2516 
z
" transform="scale(0.015625)"/>
      </defs>
      <use xlink:href="#DejaVuSans-Oblique-72" transform="translate(0 43.970781) scale(0.7)"/>
      <use xlink:href="#DejaVuSans-Oblique-6b" transform="translate(28.779297 43.970781) scale(0.7)"/>
      <use xlink:href="#DejaVuSans-Oblique-3d5" transform="translate(74.529802 70.767656) scale(0.49)"/>
      <use xlink:href="#DejaVuSans-Oblique-6b" transform="translate(20 -41.516094) scale(0.7)"/>
      <use xlink:href="#DejaVuSans-Oblique-72" transform="translate(65.750505 -14.719219) scale(0.49)"/>
      <use xlink:href="#DejaVuSans-28" transform="translate(121.267595 0.173906)"/>
      <use xlink:href="#DejaVuSans-2248" transform="translate(179.763689 0.173906)"/>
      <use xlink:href="#DejaVuSans-Oblique-62" transform="translate(283.035173 0.173906)"/>
      <use xlink:href="#DejaVuSans-Oblique-70" transform="translate(346.511736 -16.232344) scale(0.7)"/>
      <use xlink:href="#DejaVuSans-Oblique-68" transform="translate(390.945329 -16.232344) scale(0.7)"/>
      <use xlink:href="#DejaVuSans-29" transform="translate(438.044939 0.173906)"/>
      <use xlink:href="#DejaVuSans-3d" transform="translate(477.058611 0.173906)"/>
      <use xlink:href="#DejaVuSans-20" transform="translate(560.847673 0.173906)"/>
      <use xlink:href="#DejaVuSans-33" transform="translate(592.634783 0.173906)"/>
      <use xlink:href="#DejaVuSans-2e" transform="translate(656.257829 0.173906)"/>
      <use xlink:href="#DejaVuSans-30" transform="translate(688.044939 0.173906)"/>
      <path d="M 0 18.970781 
L 0 25.220781 
L 108.767595 25.220781 
L 108.767595 18.970781 
L 0 18.970781 
z
"/>
     </g>
    </g>
    <g id="line2d_24">
     <path d="M 135.779413 192.05 
L 148.779413 192.05 
L 161.779413 192.05 
" style="fill: none; stroke: #fcab8f; stroke-width: 1.75; stroke-linecap: square"/>
    </g>
    <g id="text_19">
     <!-- $\frac{rk^\phi}{k^r} (\approx b_{ph})$= 2.0 -->
     <g transform="translate(172.179413 196.6) scale(0.13 -0.13)">
      <use xlink:href="#DejaVuSans-Oblique-72" transform="translate(0 43.970781) scale(0.7)"/>
      <use xlink:href="#DejaVuSans-Oblique-6b" transform="translate(28.779297 43.970781) scale(0.7)"/>
      <use xlink:href="#DejaVuSans-Oblique-3d5" transform="translate(74.529802 70.767656) scale(0.49)"/>
      <use xlink:href="#DejaVuSans-Oblique-6b" transform="translate(20 -41.516094) scale(0.7)"/>
      <use xlink:href="#DejaVuSans-Oblique-72" transform="translate(65.750505 -14.719219) scale(0.49)"/>
      <use xlink:href="#DejaVuSans-28" transform="translate(121.267595 0.173906)"/>
      <use xlink:href="#DejaVuSans-2248" transform="translate(179.763689 0.173906)"/>
      <use xlink:href="#DejaVuSans-Oblique-62" transform="translate(283.035173 0.173906)"/>
      <use xlink:href="#DejaVuSans-Oblique-70" transform="translate(346.511736 -16.232344) scale(0.7)"/>
      <use xlink:href="#DejaVuSans-Oblique-68" transform="translate(390.945329 -16.232344) scale(0.7)"/>
      <use xlink:href="#DejaVuSans-29" transform="translate(438.044939 0.173906)"/>
      <use xlink:href="#DejaVuSans-3d" transform="translate(477.058611 0.173906)"/>
      <use xlink:href="#DejaVuSans-20" transform="translate(560.847673 0.173906)"/>
      <use xlink:href="#DejaVuSans-32" transform="translate(592.634783 0.173906)"/>
      <use xlink:href="#DejaVuSans-2e" transform="translate(656.257829 0.173906)"/>
      <use xlink:href="#DejaVuSans-30" transform="translate(688.044939 0.173906)"/>
      <path d="M 0 18.970781 
L 0 25.220781 
L 108.767595 25.220781 
L 108.767595 18.970781 
L 0 18.970781 
z
"/>
     </g>
    </g>
    <g id="line2d_25">
     <path d="M 295.939413 114.05 
L 308.939413 114.05 
L 321.939413 114.05 
" style="fill: none; stroke: #b7d4ea; stroke-width: 1.75; stroke-linecap: square"/>
    </g>
    <g id="text_20">
     <!-- $\frac{rk^\phi}{k^r} (\approx b_{ph})$= -2.0 -->
     <g transform="translate(332.339413 118.6) scale(0.13 -0.13)">
      <defs>
       <path id="DejaVuSans-2d" d="M 313 2009 
L 1997 2009 
L 1997 1497 
L 313 1497 
L 313 2009 
z
" transform="scale(0.015625)"/>
      </defs>
      <use xlink:href="#DejaVuSans-Oblique-72" transform="translate(0 43.970781) scale(0.7)"/>
      <use xlink:href="#DejaVuSans-Oblique-6b" transform="translate(28.779297 43.970781) scale(0.7)"/>
      <use xlink:href="#DejaVuSans-Oblique-3d5" transform="translate(74.529802 70.767656) scale(0.49)"/>
      <use xlink:href="#DejaVuSans-Oblique-6b" transform="translate(20 -41.516094) scale(0.7)"/>
      <use xlink:href="#DejaVuSans-Oblique-72" transform="translate(65.750505 -14.719219) scale(0.49)"/>
      <use xlink:href="#DejaVuSans-28" transform="translate(121.267595 0.173906)"/>
      <use xlink:href="#DejaVuSans-2248" transform="translate(179.763689 0.173906)"/>
      <use xlink:href="#DejaVuSans-Oblique-62" transform="translate(283.035173 0.173906)"/>
      <use xlink:href="#DejaVuSans-Oblique-70" transform="translate(346.511736 -16.232344) scale(0.7)"/>
      <use xlink:href="#DejaVuSans-Oblique-68" transform="translate(390.945329 -16.232344) scale(0.7)"/>
      <use xlink:href="#DejaVuSans-29" transform="translate(438.044939 0.173906)"/>
      <use xlink:href="#DejaVuSans-3d" transform="translate(477.058611 0.173906)"/>
      <use xlink:href="#DejaVuSans-20" transform="translate(560.847673 0.173906)"/>
      <use xlink:href="#DejaVuSans-2d" transform="translate(592.634783 0.173906)"/>
      <use xlink:href="#DejaVuSans-32" transform="translate(628.718767 0.173906)"/>
      <use xlink:href="#DejaVuSans-2e" transform="translate(692.341814 0.173906)"/>
      <use xlink:href="#DejaVuSans-30" transform="translate(724.128923 0.173906)"/>
      <path d="M 0 18.970781 
L 0 25.220781 
L 108.767595 25.220781 
L 108.767595 18.970781 
L 0 18.970781 
z
"/>
     </g>
    </g>
    <g id="line2d_26">
     <path d="M 295.939413 140.05 
L 308.939413 140.05 
L 321.939413 140.05 
" style="fill: none; stroke: #60a7d2; stroke-width: 1.75; stroke-linecap: square"/>
    </g>
    <g id="text_21">
     <!-- $\frac{rk^\phi}{k^r} (\approx b_{ph})$= -3.0 -->
     <g transform="translate(332.339413 144.6) scale(0.13 -0.13)">
      <use xlink:href="#DejaVuSans-Oblique-72" transform="translate(0 43.970781) scale(0.7)"/>
      <use xlink:href="#DejaVuSans-Oblique-6b" transform="translate(28.779297 43.970781) scale(0.7)"/>
      <use xlink:href="#DejaVuSans-Oblique-3d5" transform="translate(74.529802 70.767656) scale(0.49)"/>
      <use xlink:href="#DejaVuSans-Oblique-6b" transform="translate(20 -41.516094) scale(0.7)"/>
      <use xlink:href="#DejaVuSans-Oblique-72" transform="translate(65.750505 -14.719219) scale(0.49)"/>
      <use xlink:href="#DejaVuSans-28" transform="translate(121.267595 0.173906)"/>
      <use xlink:href="#DejaVuSans-2248" transform="translate(179.763689 0.173906)"/>
      <use xlink:href="#DejaVuSans-Oblique-62" transform="translate(283.035173 0.173906)"/>
      <use xlink:href="#DejaVuSans-Oblique-70" transform="translate(346.511736 -16.232344) scale(0.7)"/>
      <use xlink:href="#DejaVuSans-Oblique-68" transform="translate(390.945329 -16.232344) scale(0.7)"/>
      <use xlink:href="#DejaVuSans-29" transform="translate(438.044939 0.173906)"/>
      <use xlink:href="#DejaVuSans-3d" transform="translate(477.058611 0.173906)"/>
      <use xlink:href="#DejaVuSans-20" transform="translate(560.847673 0.173906)"/>
      <use xlink:href="#DejaVuSans-2d" transform="translate(592.634783 0.173906)"/>
      <use xlink:href="#DejaVuSans-33" transform="translate(628.718767 0.173906)"/>
      <use xlink:href="#DejaVuSans-2e" transform="translate(692.341814 0.173906)"/>
      <use xlink:href="#DejaVuSans-30" transform="translate(724.128923 0.173906)"/>
      <path d="M 0 18.970781 
L 0 25.220781 
L 108.767595 25.220781 
L 108.767595 18.970781 
L 0 18.970781 
z
"/>
     </g>
    </g>
    <g id="line2d_27">
     <path d="M 295.939413 166.05 
L 308.939413 166.05 
L 321.939413 166.05 
" style="fill: none; stroke: #1d6cb1; stroke-width: 1.75; stroke-linecap: square"/>
    </g>
    <g id="text_22">
     <!-- $\frac{rk^\phi}{k^r} (\approx b_{ph})$= -4.0 -->
     <g transform="translate(332.339413 170.6) scale(0.13 -0.13)">
      <use xlink:href="#DejaVuSans-Oblique-72" transform="translate(0 43.970781) scale(0.7)"/>
      <use xlink:href="#DejaVuSans-Oblique-6b" transform="translate(28.779297 43.970781) scale(0.7)"/>
      <use xlink:href="#DejaVuSans-Oblique-3d5" transform="translate(74.529802 70.767656) scale(0.49)"/>
      <use xlink:href="#DejaVuSans-Oblique-6b" transform="translate(20 -41.516094) scale(0.7)"/>
      <use xlink:href="#DejaVuSans-Oblique-72" transform="translate(65.750505 -14.719219) scale(0.49)"/>
      <use xlink:href="#DejaVuSans-28" transform="translate(121.267595 0.173906)"/>
      <use xlink:href="#DejaVuSans-2248" transform="translate(179.763689 0.173906)"/>
      <use xlink:href="#DejaVuSans-Oblique-62" transform="translate(283.035173 0.173906)"/>
      <use xlink:href="#DejaVuSans-Oblique-70" transform="translate(346.511736 -16.232344) scale(0.7)"/>
      <use xlink:href="#DejaVuSans-Oblique-68" transform="translate(390.945329 -16.232344) scale(0.7)"/>
      <use xlink:href="#DejaVuSans-29" transform="translate(438.044939 0.173906)"/>
      <use xlink:href="#DejaVuSans-3d" transform="translate(477.058611 0.173906)"/>
      <use xlink:href="#DejaVuSans-20" transform="translate(560.847673 0.173906)"/>
      <use xlink:href="#DejaVuSans-2d" transform="translate(592.634783 0.173906)"/>
      <use xlink:href="#DejaVuSans-34" transform="translate(628.718767 0.173906)"/>
      <use xlink:href="#DejaVuSans-2e" transform="translate(692.341814 0.173906)"/>
      <use xlink:href="#DejaVuSans-30" transform="translate(724.128923 0.173906)"/>
      <path d="M 0 18.970781 
L 0 25.220781 
L 108.767595 25.220781 
L 108.767595 18.970781 
L 0 18.970781 
z
"/>
     </g>
    </g>
    <g id="line2d_28">
     <path d="M 295.939413 192.05 
L 308.939413 192.05 
L 321.939413 192.05 
" style="fill: none; stroke: #08306b; stroke-width: 1.75; stroke-linecap: square"/>
    </g>
    <g id="text_23">
     <!-- $\frac{rk^\phi}{k^r} (\approx b_{ph})$= -5.0 -->
     <g transform="translate(332.339413 196.6) scale(0.13 -0.13)">
      <use xlink:href="#DejaVuSans-Oblique-72" transform="translate(0 43.970781) scale(0.7)"/>
      <use xlink:href="#DejaVuSans-Oblique-6b" transform="translate(28.779297 43.970781) scale(0.7)"/>
      <use xlink:href="#DejaVuSans-Oblique-3d5" transform="translate(74.529802 70.767656) scale(0.49)"/>
      <use xlink:href="#DejaVuSans-Oblique-6b" transform="translate(20 -41.516094) scale(0.7)"/>
      <use xlink:href="#DejaVuSans-Oblique-72" transform="translate(65.750505 -14.719219) scale(0.49)"/>
      <use xlink:href="#DejaVuSans-28" transform="translate(121.267595 0.173906)"/>
      <use xlink:href="#DejaVuSans-2248" transform="translate(179.763689 0.173906)"/>
      <use xlink:href="#DejaVuSans-Oblique-62" transform="translate(283.035173 0.173906)"/>
      <use xlink:href="#DejaVuSans-Oblique-70" transform="translate(346.511736 -16.232344) scale(0.7)"/>
      <use xlink:href="#DejaVuSans-Oblique-68" transform="translate(390.945329 -16.232344) scale(0.7)"/>
      <use xlink:href="#DejaVuSans-29" transform="translate(438.044939 0.173906)"/>
      <use xlink:href="#DejaVuSans-3d" transform="translate(477.058611 0.173906)"/>
      <use xlink:href="#DejaVuSans-20" transform="translate(560.847673 0.173906)"/>
      <use xlink:href="#DejaVuSans-2d" transform="translate(592.634783 0.173906)"/>
      <use xlink:href="#DejaVuSans-35" transform="translate(628.718767 0.173906)"/>
      <use xlink:href="#DejaVuSans-2e" transform="translate(692.341814 0.173906)"/>
      <use xlink:href="#DejaVuSans-30" transform="translate(724.128923 0.173906)"/>
      <path d="M 0 18.970781 
L 0 25.220781 
L 108.767595 25.220781 
L 108.767595 18.970781 
L 0 18.970781 
z
"/>
     </g>
    </g>
   </g>
  </g>
 </g>
 <defs>
  <clipPath id="p7604ac6eba">
   <rect x="85.170625" y="7.2" width="400.217575" height="292.22"/>
  </clipPath>
 </defs>
</svg>
