<?xml version="1.0" encoding="utf-8" standalone="no"?>
<!DOCTYPE svg PUBLIC "-//W3C//DTD SVG 1.1//EN"
  "http://www.w3.org/Graphics/SVG/1.1/DTD/svg11.dtd">
<svg xmlns:xlink="http://www.w3.org/1999/xlink" width="568.577697pt" height="350.753812pt" viewBox="0 0 568.577697 350.753812" xmlns="http://www.w3.org/2000/svg" version="1.1">
 <metadata>
  <rdf:RDF xmlns:dc="http://purl.org/dc/elements/1.1/" xmlns:cc="http://creativecommons.org/ns#" xmlns:rdf="http://www.w3.org/1999/02/22-rdf-syntax-ns#">
   <cc:Work>
    <dc:type rdf:resource="http://purl.org/dc/dcmitype/StillImage"/>
    <dc:date>2023-09-10T23:10:07.718308</dc:date>
    <dc:format>image/svg+xml</dc:format>
    <dc:creator>
     <cc:Agent>
      <dc:title>Matplotlib v3.7.1, https://matplotlib.org/</dc:title>
     </cc:Agent>
    </dc:creator>
   </cc:Work>
  </rdf:RDF>
 </metadata>
 <defs>
  <style type="text/css">*{stroke-linejoin: round; stroke-linecap: butt}</style>
 </defs>
 <g id="figure_1">
  <g id="patch_1">
   <path d="M 0 350.753812 
L 568.577697 350.753812 
L 568.577697 0 
L 0 0 
z
" style="fill: #ffffff"/>
  </g>
  <g id="axes_1">
   <g id="patch_2">
    <path d="M 72.519063 281.116 
L 552.525532 281.116 
L 552.525532 7.2 
L 72.519063 7.2 
z
" style="fill: #ffffff"/>
   </g>
   <g id="matplotlib.axis_1">
    <g id="xtick_1">
     <g id="line2d_1">
      <defs>
       <path id="m4dd28daff6" d="M 0 0 
L 0 3.5 
" style="stroke: #000000"/>
      </defs>
      <g>
       <use xlink:href="#m4dd28daff6" x="72.519063" y="281.116" style="stroke: #000000"/>
      </g>
     </g>
     <g id="text_1">
      <!-- $\mathdefault{0.0}$ -->
      <g transform="translate(60.519063 303.013656) scale(0.15 -0.15)">
       <defs>
        <path id="DejaVuSans-30" d="M 2034 4250 
Q 1547 4250 1301 3770 
Q 1056 3291 1056 2328 
Q 1056 1369 1301 889 
Q 1547 409 2034 409 
Q 2525 409 2770 889 
Q 3016 1369 3016 2328 
Q 3016 3291 2770 3770 
Q 2525 4250 2034 4250 
z
M 2034 4750 
Q 2819 4750 3233 4129 
Q 3647 3509 3647 2328 
Q 3647 1150 3233 529 
Q 2819 -91 2034 -91 
Q 1250 -91 836 529 
Q 422 1150 422 2328 
Q 422 3509 836 4129 
Q 1250 4750 2034 4750 
z
" transform="scale(0.015625)"/>
        <path id="DejaVuSans-2e" d="M 684 794 
L 1344 794 
L 1344 0 
L 684 0 
L 684 794 
z
" transform="scale(0.015625)"/>
       </defs>
       <use xlink:href="#DejaVuSans-30" transform="translate(0 0.78125)"/>
       <use xlink:href="#DejaVuSans-2e" transform="translate(63.623047 0.78125)"/>
       <use xlink:href="#DejaVuSans-30" transform="translate(95.410156 0.78125)"/>
      </g>
     </g>
    </g>
    <g id="xtick_2">
     <g id="line2d_2">
      <g>
       <use xlink:href="#m4dd28daff6" x="167.890789" y="281.116" style="stroke: #000000"/>
      </g>
     </g>
     <g id="text_2">
      <!-- $\mathdefault{0.2}$ -->
      <g transform="translate(156.340789 303.013656) scale(0.15 -0.15)">
       <defs>
        <path id="DejaVuSans-32" d="M 1228 531 
L 3431 531 
L 3431 0 
L 469 0 
L 469 531 
Q 828 903 1448 1529 
Q 2069 2156 2228 2338 
Q 2531 2678 2651 2914 
Q 2772 3150 2772 3378 
Q 2772 3750 2511 3984 
Q 2250 4219 1831 4219 
Q 1534 4219 1204 4116 
Q 875 4013 500 3803 
L 500 4441 
Q 881 4594 1212 4672 
Q 1544 4750 1819 4750 
Q 2544 4750 2975 4387 
Q 3406 4025 3406 3419 
Q 3406 3131 3298 2873 
Q 3191 2616 2906 2266 
Q 2828 2175 2409 1742 
Q 1991 1309 1228 531 
z
" transform="scale(0.015625)"/>
       </defs>
       <use xlink:href="#DejaVuSans-30" transform="translate(0 0.78125)"/>
       <use xlink:href="#DejaVuSans-2e" transform="translate(63.623047 0.78125)"/>
       <use xlink:href="#DejaVuSans-32" transform="translate(89.910156 0.78125)"/>
      </g>
     </g>
    </g>
    <g id="xtick_3">
     <g id="line2d_3">
      <g>
       <use xlink:href="#m4dd28daff6" x="263.262516" y="281.116" style="stroke: #000000"/>
      </g>
     </g>
     <g id="text_3">
      <!-- $\mathdefault{0.4}$ -->
      <g transform="translate(251.262516 303.013656) scale(0.15 -0.15)">
       <defs>
        <path id="DejaVuSans-34" d="M 2419 4116 
L 825 1625 
L 2419 1625 
L 2419 4116 
z
M 2253 4666 
L 3047 4666 
L 3047 1625 
L 3713 1625 
L 3713 1100 
L 3047 1100 
L 3047 0 
L 2419 0 
L 2419 1100 
L 313 1100 
L 313 1709 
L 2253 4666 
z
" transform="scale(0.015625)"/>
       </defs>
       <use xlink:href="#DejaVuSans-30" transform="translate(0 0.78125)"/>
       <use xlink:href="#DejaVuSans-2e" transform="translate(63.623047 0.78125)"/>
       <use xlink:href="#DejaVuSans-34" transform="translate(95.410156 0.78125)"/>
      </g>
     </g>
    </g>
    <g id="xtick_4">
     <g id="line2d_4">
      <g>
       <use xlink:href="#m4dd28daff6" x="358.634243" y="281.116" style="stroke: #000000"/>
      </g>
     </g>
     <g id="text_4">
      <!-- $\mathdefault{0.6}$ -->
      <g transform="translate(346.634243 303.013656) scale(0.15 -0.15)">
       <defs>
        <path id="DejaVuSans-36" d="M 2113 2584 
Q 1688 2584 1439 2293 
Q 1191 2003 1191 1497 
Q 1191 994 1439 701 
Q 1688 409 2113 409 
Q 2538 409 2786 701 
Q 3034 994 3034 1497 
Q 3034 2003 2786 2293 
Q 2538 2584 2113 2584 
z
M 3366 4563 
L 3366 3988 
Q 3128 4100 2886 4159 
Q 2644 4219 2406 4219 
Q 1781 4219 1451 3797 
Q 1122 3375 1075 2522 
Q 1259 2794 1537 2939 
Q 1816 3084 2150 3084 
Q 2853 3084 3261 2657 
Q 3669 2231 3669 1497 
Q 3669 778 3244 343 
Q 2819 -91 2113 -91 
Q 1303 -91 875 529 
Q 447 1150 447 2328 
Q 447 3434 972 4092 
Q 1497 4750 2381 4750 
Q 2619 4750 2861 4703 
Q 3103 4656 3366 4563 
z
" transform="scale(0.015625)"/>
       </defs>
       <use xlink:href="#DejaVuSans-30" transform="translate(0 0.78125)"/>
       <use xlink:href="#DejaVuSans-2e" transform="translate(63.623047 0.78125)"/>
       <use xlink:href="#DejaVuSans-36" transform="translate(95.410156 0.78125)"/>
      </g>
     </g>
    </g>
    <g id="xtick_5">
     <g id="line2d_5">
      <g>
       <use xlink:href="#m4dd28daff6" x="454.00597" y="281.116" style="stroke: #000000"/>
      </g>
     </g>
     <g id="text_5">
      <!-- $\mathdefault{0.8}$ -->
      <g transform="translate(442.23097 303.013656) scale(0.15 -0.15)">
       <defs>
        <path id="DejaVuSans-38" d="M 2034 2216 
Q 1584 2216 1326 1975 
Q 1069 1734 1069 1313 
Q 1069 891 1326 650 
Q 1584 409 2034 409 
Q 2484 409 2743 651 
Q 3003 894 3003 1313 
Q 3003 1734 2745 1975 
Q 2488 2216 2034 2216 
z
M 1403 2484 
Q 997 2584 770 2862 
Q 544 3141 544 3541 
Q 544 4100 942 4425 
Q 1341 4750 2034 4750 
Q 2731 4750 3128 4425 
Q 3525 4100 3525 3541 
Q 3525 3141 3298 2862 
Q 3072 2584 2669 2484 
Q 3125 2378 3379 2068 
Q 3634 1759 3634 1313 
Q 3634 634 3220 271 
Q 2806 -91 2034 -91 
Q 1263 -91 848 271 
Q 434 634 434 1313 
Q 434 1759 690 2068 
Q 947 2378 1403 2484 
z
M 1172 3481 
Q 1172 3119 1398 2916 
Q 1625 2713 2034 2713 
Q 2441 2713 2670 2916 
Q 2900 3119 2900 3481 
Q 2900 3844 2670 4047 
Q 2441 4250 2034 4250 
Q 1625 4250 1398 4047 
Q 1172 3844 1172 3481 
z
" transform="scale(0.015625)"/>
       </defs>
       <use xlink:href="#DejaVuSans-30" transform="translate(0 0.78125)"/>
       <use xlink:href="#DejaVuSans-2e" transform="translate(63.623047 0.78125)"/>
       <use xlink:href="#DejaVuSans-38" transform="translate(92.785156 0.78125)"/>
      </g>
     </g>
    </g>
    <g id="xtick_6">
     <g id="line2d_6">
      <g>
       <use xlink:href="#m4dd28daff6" x="549.377697" y="281.116" style="stroke: #000000"/>
      </g>
     </g>
     <g id="text_6">
      <!-- $\mathdefault{1.0}$ -->
      <g transform="translate(537.377697 303.013656) scale(0.15 -0.15)">
       <defs>
        <path id="DejaVuSans-31" d="M 794 531 
L 1825 531 
L 1825 4091 
L 703 3866 
L 703 4441 
L 1819 4666 
L 2450 4666 
L 2450 531 
L 3481 531 
L 3481 0 
L 794 0 
L 794 531 
z
" transform="scale(0.015625)"/>
       </defs>
       <use xlink:href="#DejaVuSans-31" transform="translate(0 0.78125)"/>
       <use xlink:href="#DejaVuSans-2e" transform="translate(63.623047 0.78125)"/>
       <use xlink:href="#DejaVuSans-30" transform="translate(95.410156 0.78125)"/>
      </g>
     </g>
    </g>
    <g id="text_7">
     <!-- Distance from 4.5$r_{s}$ (km) -->
     <g transform="translate(200.832297 339.810375) scale(0.18 -0.18)">
      <defs>
       <path id="DejaVuSans-44" d="M 1259 4147 
L 1259 519 
L 2022 519 
Q 2988 519 3436 956 
Q 3884 1394 3884 2338 
Q 3884 3275 3436 3711 
Q 2988 4147 2022 4147 
L 1259 4147 
z
M 628 4666 
L 1925 4666 
Q 3281 4666 3915 4102 
Q 4550 3538 4550 2338 
Q 4550 1131 3912 565 
Q 3275 0 1925 0 
L 628 0 
L 628 4666 
z
" transform="scale(0.015625)"/>
       <path id="DejaVuSans-69" d="M 603 3500 
L 1178 3500 
L 1178 0 
L 603 0 
L 603 3500 
z
M 603 4863 
L 1178 4863 
L 1178 4134 
L 603 4134 
L 603 4863 
z
" transform="scale(0.015625)"/>
       <path id="DejaVuSans-73" d="M 2834 3397 
L 2834 2853 
Q 2591 2978 2328 3040 
Q 2066 3103 1784 3103 
Q 1356 3103 1142 2972 
Q 928 2841 928 2578 
Q 928 2378 1081 2264 
Q 1234 2150 1697 2047 
L 1894 2003 
Q 2506 1872 2764 1633 
Q 3022 1394 3022 966 
Q 3022 478 2636 193 
Q 2250 -91 1575 -91 
Q 1294 -91 989 -36 
Q 684 19 347 128 
L 347 722 
Q 666 556 975 473 
Q 1284 391 1588 391 
Q 1994 391 2212 530 
Q 2431 669 2431 922 
Q 2431 1156 2273 1281 
Q 2116 1406 1581 1522 
L 1381 1569 
Q 847 1681 609 1914 
Q 372 2147 372 2553 
Q 372 3047 722 3315 
Q 1072 3584 1716 3584 
Q 2034 3584 2315 3537 
Q 2597 3491 2834 3397 
z
" transform="scale(0.015625)"/>
       <path id="DejaVuSans-74" d="M 1172 4494 
L 1172 3500 
L 2356 3500 
L 2356 3053 
L 1172 3053 
L 1172 1153 
Q 1172 725 1289 603 
Q 1406 481 1766 481 
L 2356 481 
L 2356 0 
L 1766 0 
Q 1100 0 847 248 
Q 594 497 594 1153 
L 594 3053 
L 172 3053 
L 172 3500 
L 594 3500 
L 594 4494 
L 1172 4494 
z
" transform="scale(0.015625)"/>
       <path id="DejaVuSans-61" d="M 2194 1759 
Q 1497 1759 1228 1600 
Q 959 1441 959 1056 
Q 959 750 1161 570 
Q 1363 391 1709 391 
Q 2188 391 2477 730 
Q 2766 1069 2766 1631 
L 2766 1759 
L 2194 1759 
z
M 3341 1997 
L 3341 0 
L 2766 0 
L 2766 531 
Q 2569 213 2275 61 
Q 1981 -91 1556 -91 
Q 1019 -91 701 211 
Q 384 513 384 1019 
Q 384 1609 779 1909 
Q 1175 2209 1959 2209 
L 2766 2209 
L 2766 2266 
Q 2766 2663 2505 2880 
Q 2244 3097 1772 3097 
Q 1472 3097 1187 3025 
Q 903 2953 641 2809 
L 641 3341 
Q 956 3463 1253 3523 
Q 1550 3584 1831 3584 
Q 2591 3584 2966 3190 
Q 3341 2797 3341 1997 
z
" transform="scale(0.015625)"/>
       <path id="DejaVuSans-6e" d="M 3513 2113 
L 3513 0 
L 2938 0 
L 2938 2094 
Q 2938 2591 2744 2837 
Q 2550 3084 2163 3084 
Q 1697 3084 1428 2787 
Q 1159 2491 1159 1978 
L 1159 0 
L 581 0 
L 581 3500 
L 1159 3500 
L 1159 2956 
Q 1366 3272 1645 3428 
Q 1925 3584 2291 3584 
Q 2894 3584 3203 3211 
Q 3513 2838 3513 2113 
z
" transform="scale(0.015625)"/>
       <path id="DejaVuSans-63" d="M 3122 3366 
L 3122 2828 
Q 2878 2963 2633 3030 
Q 2388 3097 2138 3097 
Q 1578 3097 1268 2742 
Q 959 2388 959 1747 
Q 959 1106 1268 751 
Q 1578 397 2138 397 
Q 2388 397 2633 464 
Q 2878 531 3122 666 
L 3122 134 
Q 2881 22 2623 -34 
Q 2366 -91 2075 -91 
Q 1284 -91 818 406 
Q 353 903 353 1747 
Q 353 2603 823 3093 
Q 1294 3584 2113 3584 
Q 2378 3584 2631 3529 
Q 2884 3475 3122 3366 
z
" transform="scale(0.015625)"/>
       <path id="DejaVuSans-65" d="M 3597 1894 
L 3597 1613 
L 953 1613 
Q 991 1019 1311 708 
Q 1631 397 2203 397 
Q 2534 397 2845 478 
Q 3156 559 3463 722 
L 3463 178 
Q 3153 47 2828 -22 
Q 2503 -91 2169 -91 
Q 1331 -91 842 396 
Q 353 884 353 1716 
Q 353 2575 817 3079 
Q 1281 3584 2069 3584 
Q 2775 3584 3186 3129 
Q 3597 2675 3597 1894 
z
M 3022 2063 
Q 3016 2534 2758 2815 
Q 2500 3097 2075 3097 
Q 1594 3097 1305 2825 
Q 1016 2553 972 2059 
L 3022 2063 
z
" transform="scale(0.015625)"/>
       <path id="DejaVuSans-20" transform="scale(0.015625)"/>
       <path id="DejaVuSans-66" d="M 2375 4863 
L 2375 4384 
L 1825 4384 
Q 1516 4384 1395 4259 
Q 1275 4134 1275 3809 
L 1275 3500 
L 2222 3500 
L 2222 3053 
L 1275 3053 
L 1275 0 
L 697 0 
L 697 3053 
L 147 3053 
L 147 3500 
L 697 3500 
L 697 3744 
Q 697 4328 969 4595 
Q 1241 4863 1831 4863 
L 2375 4863 
z
" transform="scale(0.015625)"/>
       <path id="DejaVuSans-72" d="M 2631 2963 
Q 2534 3019 2420 3045 
Q 2306 3072 2169 3072 
Q 1681 3072 1420 2755 
Q 1159 2438 1159 1844 
L 1159 0 
L 581 0 
L 581 3500 
L 1159 3500 
L 1159 2956 
Q 1341 3275 1631 3429 
Q 1922 3584 2338 3584 
Q 2397 3584 2469 3576 
Q 2541 3569 2628 3553 
L 2631 2963 
z
" transform="scale(0.015625)"/>
       <path id="DejaVuSans-6f" d="M 1959 3097 
Q 1497 3097 1228 2736 
Q 959 2375 959 1747 
Q 959 1119 1226 758 
Q 1494 397 1959 397 
Q 2419 397 2687 759 
Q 2956 1122 2956 1747 
Q 2956 2369 2687 2733 
Q 2419 3097 1959 3097 
z
M 1959 3584 
Q 2709 3584 3137 3096 
Q 3566 2609 3566 1747 
Q 3566 888 3137 398 
Q 2709 -91 1959 -91 
Q 1206 -91 779 398 
Q 353 888 353 1747 
Q 353 2609 779 3096 
Q 1206 3584 1959 3584 
z
" transform="scale(0.015625)"/>
       <path id="DejaVuSans-6d" d="M 3328 2828 
Q 3544 3216 3844 3400 
Q 4144 3584 4550 3584 
Q 5097 3584 5394 3201 
Q 5691 2819 5691 2113 
L 5691 0 
L 5113 0 
L 5113 2094 
Q 5113 2597 4934 2840 
Q 4756 3084 4391 3084 
Q 3944 3084 3684 2787 
Q 3425 2491 3425 1978 
L 3425 0 
L 2847 0 
L 2847 2094 
Q 2847 2600 2669 2842 
Q 2491 3084 2119 3084 
Q 1678 3084 1418 2786 
Q 1159 2488 1159 1978 
L 1159 0 
L 581 0 
L 581 3500 
L 1159 3500 
L 1159 2956 
Q 1356 3278 1631 3431 
Q 1906 3584 2284 3584 
Q 2666 3584 2933 3390 
Q 3200 3197 3328 2828 
z
" transform="scale(0.015625)"/>
       <path id="DejaVuSans-35" d="M 691 4666 
L 3169 4666 
L 3169 4134 
L 1269 4134 
L 1269 2991 
Q 1406 3038 1543 3061 
Q 1681 3084 1819 3084 
Q 2600 3084 3056 2656 
Q 3513 2228 3513 1497 
Q 3513 744 3044 326 
Q 2575 -91 1722 -91 
Q 1428 -91 1123 -41 
Q 819 9 494 109 
L 494 744 
Q 775 591 1075 516 
Q 1375 441 1709 441 
Q 2250 441 2565 725 
Q 2881 1009 2881 1497 
Q 2881 1984 2565 2268 
Q 2250 2553 1709 2553 
Q 1456 2553 1204 2497 
Q 953 2441 691 2322 
L 691 4666 
z
" transform="scale(0.015625)"/>
       <path id="DejaVuSans-Oblique-72" d="M 2853 2969 
Q 2766 3016 2653 3041 
Q 2541 3066 2413 3066 
Q 1953 3066 1609 2717 
Q 1266 2369 1153 1784 
L 800 0 
L 225 0 
L 909 3500 
L 1484 3500 
L 1375 2956 
Q 1603 3259 1920 3421 
Q 2238 3584 2597 3584 
Q 2691 3584 2781 3573 
Q 2872 3563 2963 3538 
L 2853 2969 
z
" transform="scale(0.015625)"/>
       <path id="DejaVuSans-Oblique-73" d="M 3200 3397 
L 3091 2853 
Q 2863 2978 2609 3040 
Q 2356 3103 2088 3103 
Q 1634 3103 1373 2948 
Q 1113 2794 1113 2528 
Q 1113 2219 1719 2053 
Q 1766 2041 1788 2034 
L 1972 1978 
Q 2547 1819 2739 1644 
Q 2931 1469 2931 1166 
Q 2931 609 2489 259 
Q 2047 -91 1331 -91 
Q 1053 -91 747 -37 
Q 441 16 72 128 
L 184 722 
Q 500 559 806 475 
Q 1113 391 1394 391 
Q 1816 391 2080 572 
Q 2344 753 2344 1031 
Q 2344 1331 1650 1516 
L 1591 1531 
L 1394 1581 
Q 956 1697 753 1886 
Q 550 2075 550 2369 
Q 550 2928 970 3256 
Q 1391 3584 2113 3584 
Q 2397 3584 2667 3537 
Q 2938 3491 3200 3397 
z
" transform="scale(0.015625)"/>
       <path id="DejaVuSans-28" d="M 1984 4856 
Q 1566 4138 1362 3434 
Q 1159 2731 1159 2009 
Q 1159 1288 1364 580 
Q 1569 -128 1984 -844 
L 1484 -844 
Q 1016 -109 783 600 
Q 550 1309 550 2009 
Q 550 2706 781 3412 
Q 1013 4119 1484 4856 
L 1984 4856 
z
" transform="scale(0.015625)"/>
       <path id="DejaVuSans-6b" d="M 581 4863 
L 1159 4863 
L 1159 1991 
L 2875 3500 
L 3609 3500 
L 1753 1863 
L 3688 0 
L 2938 0 
L 1159 1709 
L 1159 0 
L 581 0 
L 581 4863 
z
" transform="scale(0.015625)"/>
       <path id="DejaVuSans-29" d="M 513 4856 
L 1013 4856 
Q 1481 4119 1714 3412 
Q 1947 2706 1947 2009 
Q 1947 1309 1714 600 
Q 1481 -109 1013 -844 
L 513 -844 
Q 928 -128 1133 580 
Q 1338 1288 1338 2009 
Q 1338 2731 1133 3434 
Q 928 4138 513 4856 
z
" transform="scale(0.015625)"/>
      </defs>
      <use xlink:href="#DejaVuSans-44" transform="translate(0 0.015625)"/>
      <use xlink:href="#DejaVuSans-69" transform="translate(77.001953 0.015625)"/>
      <use xlink:href="#DejaVuSans-73" transform="translate(104.785156 0.015625)"/>
      <use xlink:href="#DejaVuSans-74" transform="translate(156.884766 0.015625)"/>
      <use xlink:href="#DejaVuSans-61" transform="translate(196.09375 0.015625)"/>
      <use xlink:href="#DejaVuSans-6e" transform="translate(257.373047 0.015625)"/>
      <use xlink:href="#DejaVuSans-63" transform="translate(320.751953 0.015625)"/>
      <use xlink:href="#DejaVuSans-65" transform="translate(375.732422 0.015625)"/>
      <use xlink:href="#DejaVuSans-20" transform="translate(437.255859 0.015625)"/>
      <use xlink:href="#DejaVuSans-66" transform="translate(469.042969 0.015625)"/>
      <use xlink:href="#DejaVuSans-72" transform="translate(504.248047 0.015625)"/>
      <use xlink:href="#DejaVuSans-6f" transform="translate(545.361328 0.015625)"/>
      <use xlink:href="#DejaVuSans-6d" transform="translate(606.542969 0.015625)"/>
      <use xlink:href="#DejaVuSans-20" transform="translate(703.955078 0.015625)"/>
      <use xlink:href="#DejaVuSans-34" transform="translate(735.742188 0.015625)"/>
      <use xlink:href="#DejaVuSans-2e" transform="translate(799.365234 0.015625)"/>
      <use xlink:href="#DejaVuSans-35" transform="translate(831.152344 0.015625)"/>
      <use xlink:href="#DejaVuSans-Oblique-72" transform="translate(894.775391 0.015625)"/>
      <use xlink:href="#DejaVuSans-Oblique-73" transform="translate(935.888672 -16.390625) scale(0.7)"/>
      <use xlink:href="#DejaVuSans-20" transform="translate(975.092773 0.015625)"/>
      <use xlink:href="#DejaVuSans-28" transform="translate(1006.879883 0.015625)"/>
      <use xlink:href="#DejaVuSans-6b" transform="translate(1045.893555 0.015625)"/>
      <use xlink:href="#DejaVuSans-6d" transform="translate(1103.803711 0.015625)"/>
      <use xlink:href="#DejaVuSans-29" transform="translate(1201.21582 0.015625)"/>
     </g>
    </g>
    <g id="text_8">
     <!-- $\times\mathdefault{10^{11}}\mathdefault{}$ -->
     <g transform="translate(509.965532 319.771) scale(0.14 -0.14)">
      <defs>
       <path id="DejaVuSans-d7" d="M 4488 3438 
L 3059 2003 
L 4488 575 
L 4116 197 
L 2681 1631 
L 1247 197 
L 878 575 
L 2303 2003 
L 878 3438 
L 1247 3816 
L 2681 2381 
L 4116 3816 
L 4488 3438 
z
" transform="scale(0.015625)"/>
      </defs>
      <use xlink:href="#DejaVuSans-d7" transform="translate(0 0.684375)"/>
      <use xlink:href="#DejaVuSans-31" transform="translate(83.789062 0.684375)"/>
      <use xlink:href="#DejaVuSans-30" transform="translate(147.412109 0.684375)"/>
      <use xlink:href="#DejaVuSans-31" transform="translate(211.992188 38.965625) scale(0.7)"/>
      <use xlink:href="#DejaVuSans-31" transform="translate(256.52832 38.965625) scale(0.7)"/>
     </g>
    </g>
   </g>
   <g id="matplotlib.axis_2">
    <g id="ytick_1">
     <g id="line2d_7">
      <defs>
       <path id="m26918debde" d="M 0 0 
L -3.5 0 
" style="stroke: #000000"/>
      </defs>
      <g>
       <use xlink:href="#m26918debde" x="72.519063" y="248.338076" style="stroke: #000000"/>
      </g>
     </g>
     <g id="text_9">
      <!-- 0.00 -->
      <g transform="translate(28.620625 254.036904) scale(0.15 -0.15)">
       <use xlink:href="#DejaVuSans-30"/>
       <use xlink:href="#DejaVuSans-2e" x="63.623047"/>
       <use xlink:href="#DejaVuSans-30" x="95.410156"/>
       <use xlink:href="#DejaVuSans-30" x="159.033203"/>
      </g>
     </g>
    </g>
    <g id="ytick_2">
     <g id="line2d_8">
      <g>
       <use xlink:href="#m26918debde" x="72.519063" y="205.958981" style="stroke: #000000"/>
      </g>
     </g>
     <g id="text_10">
      <!-- 0.01 -->
      <g transform="translate(28.620625 211.657809) scale(0.15 -0.15)">
       <use xlink:href="#DejaVuSans-30"/>
       <use xlink:href="#DejaVuSans-2e" x="63.623047"/>
       <use xlink:href="#DejaVuSans-30" x="95.410156"/>
       <use xlink:href="#DejaVuSans-31" x="159.033203"/>
      </g>
     </g>
    </g>
    <g id="ytick_3">
     <g id="line2d_9">
      <g>
       <use xlink:href="#m26918debde" x="72.519063" y="163.579887" style="stroke: #000000"/>
      </g>
     </g>
     <g id="text_11">
      <!-- 0.02 -->
      <g transform="translate(28.620625 169.278715) scale(0.15 -0.15)">
       <use xlink:href="#DejaVuSans-30"/>
       <use xlink:href="#DejaVuSans-2e" x="63.623047"/>
       <use xlink:href="#DejaVuSans-30" x="95.410156"/>
       <use xlink:href="#DejaVuSans-32" x="159.033203"/>
      </g>
     </g>
    </g>
    <g id="ytick_4">
     <g id="line2d_10">
      <g>
       <use xlink:href="#m26918debde" x="72.519063" y="121.200792" style="stroke: #000000"/>
      </g>
     </g>
     <g id="text_12">
      <!-- 0.03 -->
      <g transform="translate(28.620625 126.89962) scale(0.15 -0.15)">
       <defs>
        <path id="DejaVuSans-33" d="M 2597 2516 
Q 3050 2419 3304 2112 
Q 3559 1806 3559 1356 
Q 3559 666 3084 287 
Q 2609 -91 1734 -91 
Q 1441 -91 1130 -33 
Q 819 25 488 141 
L 488 750 
Q 750 597 1062 519 
Q 1375 441 1716 441 
Q 2309 441 2620 675 
Q 2931 909 2931 1356 
Q 2931 1769 2642 2001 
Q 2353 2234 1838 2234 
L 1294 2234 
L 1294 2753 
L 1863 2753 
Q 2328 2753 2575 2939 
Q 2822 3125 2822 3475 
Q 2822 3834 2567 4026 
Q 2313 4219 1838 4219 
Q 1578 4219 1281 4162 
Q 984 4106 628 3988 
L 628 4550 
Q 988 4650 1302 4700 
Q 1616 4750 1894 4750 
Q 2613 4750 3031 4423 
Q 3450 4097 3450 3541 
Q 3450 3153 3228 2886 
Q 3006 2619 2597 2516 
z
" transform="scale(0.015625)"/>
       </defs>
       <use xlink:href="#DejaVuSans-30"/>
       <use xlink:href="#DejaVuSans-2e" x="63.623047"/>
       <use xlink:href="#DejaVuSans-30" x="95.410156"/>
       <use xlink:href="#DejaVuSans-33" x="159.033203"/>
      </g>
     </g>
    </g>
    <g id="ytick_5">
     <g id="line2d_11">
      <g>
       <use xlink:href="#m26918debde" x="72.519063" y="78.821698" style="stroke: #000000"/>
      </g>
     </g>
     <g id="text_13">
      <!-- 0.04 -->
      <g transform="translate(28.620625 84.520526) scale(0.15 -0.15)">
       <use xlink:href="#DejaVuSans-30"/>
       <use xlink:href="#DejaVuSans-2e" x="63.623047"/>
       <use xlink:href="#DejaVuSans-30" x="95.410156"/>
       <use xlink:href="#DejaVuSans-34" x="159.033203"/>
      </g>
     </g>
    </g>
    <g id="ytick_6">
     <g id="line2d_12">
      <g>
       <use xlink:href="#m26918debde" x="72.519063" y="36.442603" style="stroke: #000000"/>
      </g>
     </g>
     <g id="text_14">
      <!-- 0.05 -->
      <g transform="translate(28.620625 42.141431) scale(0.15 -0.15)">
       <use xlink:href="#DejaVuSans-30"/>
       <use xlink:href="#DejaVuSans-2e" x="63.623047"/>
       <use xlink:href="#DejaVuSans-30" x="95.410156"/>
       <use xlink:href="#DejaVuSans-35" x="159.033203"/>
      </g>
     </g>
    </g>
    <g id="text_15">
     <!-- Wigner rotation angle difference (degree) -->
     <g transform="translate(20.877187 331.583) rotate(-90) scale(0.18 -0.18)">
      <defs>
       <path id="DejaVuSans-57" d="M 213 4666 
L 850 4666 
L 1831 722 
L 2809 4666 
L 3519 4666 
L 4500 722 
L 5478 4666 
L 6119 4666 
L 4947 0 
L 4153 0 
L 3169 4050 
L 2175 0 
L 1381 0 
L 213 4666 
z
" transform="scale(0.015625)"/>
       <path id="DejaVuSans-67" d="M 2906 1791 
Q 2906 2416 2648 2759 
Q 2391 3103 1925 3103 
Q 1463 3103 1205 2759 
Q 947 2416 947 1791 
Q 947 1169 1205 825 
Q 1463 481 1925 481 
Q 2391 481 2648 825 
Q 2906 1169 2906 1791 
z
M 3481 434 
Q 3481 -459 3084 -895 
Q 2688 -1331 1869 -1331 
Q 1566 -1331 1297 -1286 
Q 1028 -1241 775 -1147 
L 775 -588 
Q 1028 -725 1275 -790 
Q 1522 -856 1778 -856 
Q 2344 -856 2625 -561 
Q 2906 -266 2906 331 
L 2906 616 
Q 2728 306 2450 153 
Q 2172 0 1784 0 
Q 1141 0 747 490 
Q 353 981 353 1791 
Q 353 2603 747 3093 
Q 1141 3584 1784 3584 
Q 2172 3584 2450 3431 
Q 2728 3278 2906 2969 
L 2906 3500 
L 3481 3500 
L 3481 434 
z
" transform="scale(0.015625)"/>
       <path id="DejaVuSans-6c" d="M 603 4863 
L 1178 4863 
L 1178 0 
L 603 0 
L 603 4863 
z
" transform="scale(0.015625)"/>
       <path id="DejaVuSans-64" d="M 2906 2969 
L 2906 4863 
L 3481 4863 
L 3481 0 
L 2906 0 
L 2906 525 
Q 2725 213 2448 61 
Q 2172 -91 1784 -91 
Q 1150 -91 751 415 
Q 353 922 353 1747 
Q 353 2572 751 3078 
Q 1150 3584 1784 3584 
Q 2172 3584 2448 3432 
Q 2725 3281 2906 2969 
z
M 947 1747 
Q 947 1113 1208 752 
Q 1469 391 1925 391 
Q 2381 391 2643 752 
Q 2906 1113 2906 1747 
Q 2906 2381 2643 2742 
Q 2381 3103 1925 3103 
Q 1469 3103 1208 2742 
Q 947 2381 947 1747 
z
" transform="scale(0.015625)"/>
      </defs>
      <use xlink:href="#DejaVuSans-57"/>
      <use xlink:href="#DejaVuSans-69" x="96.626953"/>
      <use xlink:href="#DejaVuSans-67" x="124.410156"/>
      <use xlink:href="#DejaVuSans-6e" x="187.886719"/>
      <use xlink:href="#DejaVuSans-65" x="251.265625"/>
      <use xlink:href="#DejaVuSans-72" x="312.789062"/>
      <use xlink:href="#DejaVuSans-20" x="353.902344"/>
      <use xlink:href="#DejaVuSans-72" x="385.689453"/>
      <use xlink:href="#DejaVuSans-6f" x="424.552734"/>
      <use xlink:href="#DejaVuSans-74" x="485.734375"/>
      <use xlink:href="#DejaVuSans-61" x="524.943359"/>
      <use xlink:href="#DejaVuSans-74" x="586.222656"/>
      <use xlink:href="#DejaVuSans-69" x="625.431641"/>
      <use xlink:href="#DejaVuSans-6f" x="653.214844"/>
      <use xlink:href="#DejaVuSans-6e" x="714.396484"/>
      <use xlink:href="#DejaVuSans-20" x="777.775391"/>
      <use xlink:href="#DejaVuSans-61" x="809.5625"/>
      <use xlink:href="#DejaVuSans-6e" x="870.841797"/>
      <use xlink:href="#DejaVuSans-67" x="934.220703"/>
      <use xlink:href="#DejaVuSans-6c" x="997.697266"/>
      <use xlink:href="#DejaVuSans-65" x="1025.480469"/>
      <use xlink:href="#DejaVuSans-20" x="1087.003906"/>
      <use xlink:href="#DejaVuSans-64" x="1118.791016"/>
      <use xlink:href="#DejaVuSans-69" x="1182.267578"/>
      <use xlink:href="#DejaVuSans-66" x="1210.050781"/>
      <use xlink:href="#DejaVuSans-66" x="1245.255859"/>
      <use xlink:href="#DejaVuSans-65" x="1280.460938"/>
      <use xlink:href="#DejaVuSans-72" x="1341.984375"/>
      <use xlink:href="#DejaVuSans-65" x="1380.847656"/>
      <use xlink:href="#DejaVuSans-6e" x="1442.371094"/>
      <use xlink:href="#DejaVuSans-63" x="1505.75"/>
      <use xlink:href="#DejaVuSans-65" x="1560.730469"/>
      <use xlink:href="#DejaVuSans-20" x="1622.253906"/>
      <use xlink:href="#DejaVuSans-28" x="1654.041016"/>
      <use xlink:href="#DejaVuSans-64" x="1693.054688"/>
      <use xlink:href="#DejaVuSans-65" x="1756.53125"/>
      <use xlink:href="#DejaVuSans-67" x="1818.054688"/>
      <use xlink:href="#DejaVuSans-72" x="1881.53125"/>
      <use xlink:href="#DejaVuSans-65" x="1920.394531"/>
      <use xlink:href="#DejaVuSans-65" x="1981.917969"/>
      <use xlink:href="#DejaVuSans-29" x="2043.441406"/>
     </g>
    </g>
   </g>
   <g id="line2d_13">
    <path d="M 72.519063 249.033173 
L 75.061313 251.029519 
L 77.854644 252.892904 
L 80.894492 254.62481 
L 84.17613 256.22776 
L 87.694433 257.705099 
L 91.444139 259.060781 
L 95.419956 260.29943 
L 101.06297 261.777814 
L 107.084133 263.070143 
L 113.469672 264.189696 
L 120.205815 265.149884 
L 127.278628 265.964115 
L 136.571835 266.796379 
L 146.343073 267.445086 
L 158.6628 268.013196 
L 171.588554 268.385449 
L 187.380092 268.61403 
L 206.290275 268.657223 
L 231.092974 268.462924 
L 262.36841 267.974586 
L 309.073692 266.998796 
L 505.656377 262.667621 
L 563.51151 261.599832 
L 563.51151 261.599832 
" clip-path="url(#pb73db0e0c6)" style="fill: none; stroke: #67000d; stroke-width: 1.75; stroke-linecap: square"/>
   </g>
   <g id="line2d_14">
    <path d="M 72.519063 248.908506 
L 75.621929 250.523193 
L 78.968427 251.996618 
L 82.55328 253.334117 
L 86.371097 254.541674 
L 90.41619 255.625764 
L 96.153177 256.890859 
L 102.270015 257.964941 
L 108.752459 258.864597 
L 115.586272 259.606121 
L 124.600968 260.334502 
L 134.114595 260.86917 
L 146.151019 261.292172 
L 158.822031 261.515223 
L 174.348281 261.57052 
L 192.991097 261.42205 
L 217.513183 261.003621 
L 253.829281 260.136758 
L 337.890927 257.814724 
L 418.978456 255.695106 
L 490.989287 254.046901 
L 565.043436 252.584226 
L 569.577697 252.501829 
L 569.577697 252.501829 
" clip-path="url(#pb73db0e0c6)" style="fill: none; stroke: #c5171c; stroke-width: 1.75; stroke-linecap: square"/>
   </g>
   <g id="line2d_15">
    <path d="M 72.519063 248.670732 
L 76.500553 249.573877 
L 80.711334 250.34277 
L 86.671685 251.176826 
L 93.013764 251.814246 
L 99.722502 252.277864 
L 108.600876 252.645534 
L 117.999217 252.813422 
L 129.923719 252.798997 
L 144.665218 252.548118 
L 164.818074 251.955686 
L 193.55843 250.863506 
L 330.439894 245.387263 
L 381.468284 243.679415 
L 437.216551 242.046137 
L 494.397087 240.593781 
L 559.289398 239.17759 
L 569.577697 238.972963 
L 569.577697 238.972963 
" clip-path="url(#pb73db0e0c6)" style="fill: none; stroke: #f85d42; stroke-width: 1.75; stroke-linecap: square"/>
   </g>
   <g id="line2d_16">
    <path d="M 72.519063 248.164196 
L 85.658123 246.738928 
L 114.911166 243.235372 
L 142.720707 240.022725 
L 164.991867 237.667037 
L 188.314581 235.424144 
L 212.566903 233.322347 
L 237.635438 231.372387 
L 263.427 229.574464 
L 292.827436 227.748002 
L 325.959774 225.932739 
L 359.810552 224.302202 
L 397.448362 222.711564 
L 438.940513 221.18335 
L 484.338218 219.734183 
L 533.676461 218.375168 
L 569.577697 217.503908 
L 569.577697 217.503908 
" clip-path="url(#pb73db0e0c6)" style="fill: none; stroke: #fcab8f; stroke-width: 1.75; stroke-linecap: square"/>
   </g>
   <g id="line2d_17">
    <path d="M 72.519063 245.900916 
L 78.010951 238.734419 
L 83.683937 231.783774 
L 89.53217 225.046718 
L 95.549938 218.520758 
L 101.731622 212.203145 
L 108.0716 206.090873 
L 114.5642 200.180681 
L 121.204007 194.469066 
L 127.986036 188.952287 
L 134.90531 183.626375 
L 141.956857 178.487153 
L 149.1357 173.530265 
L 156.436865 168.751199 
L 163.855574 164.145316 
L 171.387684 159.707878 
L 179.029178 155.434068 
L 186.776041 151.31901 
L 194.624257 147.3578 
L 202.56981 143.545518 
L 213.308438 138.685664 
L 224.204801 134.070316 
L 235.251515 129.688113 
L 246.441214 125.527917 
L 257.766531 121.578859 
L 269.220177 117.830379 
L 280.795873 114.272264 
L 292.488022 110.894675 
L 304.291037 107.688159 
L 316.199331 104.643654 
L 331.224406 101.052687 
L 346.39631 97.685306 
L 361.706816 94.526437 
L 377.147701 91.56195 
L 392.710875 88.778619 
L 411.538497 85.660421 
L 430.521602 82.765596 
L 449.649478 80.076017 
L 468.912275 77.575064 
L 491.545004 74.875466 
L 514.337155 72.390019 
L 537.276739 70.098959 
L 563.66096 67.69589 
L 569.577697 67.18844 
L 569.577697 67.18844 
" clip-path="url(#pb73db0e0c6)" style="fill: none; stroke: #b7d4ea; stroke-width: 1.75; stroke-linecap: square"/>
   </g>
   <g id="line2d_18">
    <path d="M 72.519063 245.975755 
L 76.491491 238.983604 
L 80.675816 232.135363 
L 85.066964 225.433108 
L 89.659727 218.878749 
L 94.448884 212.474004 
L 99.42913 206.22037 
L 104.595148 200.119077 
L 109.941674 194.171101 
L 115.463445 188.377091 
L 121.155197 182.737358 
L 127.011668 177.251867 
L 133.027582 171.920243 
L 139.197728 166.741777 
L 145.517279 161.715494 
L 151.981465 156.840118 
L 158.585518 152.114047 
L 165.324667 147.535375 
L 172.194142 143.101923 
L 179.18921 138.811265 
L 186.305587 134.660796 
L 193.539286 130.647773 
L 200.886326 126.76928 
L 210.851804 121.801896 
L 221.00226 117.060565 
L 231.328433 112.537358 
L 241.822292 108.224227 
L 252.476322 104.113071 
L 263.283013 100.195726 
L 274.234851 96.464027 
L 285.324499 92.909872 
L 296.545716 89.525322 
L 307.892672 86.30263 
L 322.244305 82.490371 
L 336.771921 78.90488 
L 351.465068 75.532412 
L 366.314862 72.359891 
L 381.312563 69.374883 
L 396.449441 66.565591 
L 414.786238 63.410729 
L 433.300199 60.474862 
L 451.979756 57.741262 
L 470.813696 55.194423 
L 492.969199 52.440118 
L 515.307876 49.899741 
L 537.816049 47.554349 
L 563.73244 45.090686 
L 569.577697 44.567366 
L 569.577697 44.567366 
" clip-path="url(#pb73db0e0c6)" style="fill: none; stroke: #60a7d2; stroke-width: 1.75; stroke-linecap: square"/>
   </g>
   <g id="line2d_19">
    <path d="M 72.519063 246.010568 
L 75.612574 239.098193 
L 78.931597 232.293697 
L 82.471822 225.600472 
L 86.228696 219.021833 
L 90.197648 212.561036 
L 94.373972 206.22123 
L 98.752671 200.005361 
L 103.328722 193.916163 
L 108.0971 187.956137 
L 113.052782 182.127522 
L 118.190744 176.43227 
L 123.505869 170.872017 
L 128.992985 165.448044 
L 134.647139 160.16132 
L 140.463386 155.012449 
L 146.436782 150.001664 
L 152.56238 145.12884 
L 158.835235 140.393508 
L 165.250456 135.794874 
L 171.803565 131.331879 
L 178.490206 127.003191 
L 185.30602 122.807192 
L 192.246649 118.742008 
L 199.307735 114.805531 
L 208.902418 109.753087 
L 218.694239 104.91944 
L 228.674658 100.298317 
L 238.83516 95.883067 
L 249.167228 91.666744 
L 259.66242 87.642197 
L 270.313282 83.802196 
L 281.113043 80.139502 
L 292.054947 76.646871 
L 303.132238 73.317103 
L 314.338233 70.14308 
L 328.517915 66.383978 
L 342.879329 62.844163 
L 357.412213 59.510881 
L 372.106365 56.371872 
L 386.952777 53.415425 
L 401.943497 50.630417 
L 420.1117 47.49988 
L 438.462882 44.583856 
L 456.985593 41.86634 
L 475.669283 39.332463 
L 497.656403 36.59002 
L 519.833625 34.058634 
L 542.187924 31.719942 
L 567.93625 29.261717 
L 569.577697 29.11332 
L 569.577697 29.11332 
" clip-path="url(#pb73db0e0c6)" style="fill: none; stroke: #1d6cb1; stroke-width: 1.75; stroke-linecap: square"/>
   </g>
   <g id="line2d_20">
    <path d="M 72.519063 246.028679 
L 75.051807 239.156244 
L 77.817105 232.370464 
L 80.811263 225.675245 
L 84.030274 219.074505 
L 87.470001 212.572122 
L 91.126302 206.171923 
L 94.994556 199.877685 
L 99.069984 193.693045 
L 103.347803 187.621456 
L 107.823234 181.666159 
L 112.491494 175.830146 
L 117.347762 170.116148 
L 122.386916 164.526609 
L 127.603971 159.063622 
L 132.993984 153.728931 
L 138.552014 148.523925 
L 144.273119 143.449634 
L 150.152358 138.506731 
L 156.184766 133.695537 
L 162.3656 129.015998 
L 168.69036 124.467722 
L 175.15455 120.050002 
L 181.753676 115.761835 
L 188.48324 111.601942 
L 195.338747 107.568793 
L 202.315842 103.660607 
L 211.801083 98.640596 
L 221.486613 93.833928 
L 231.36346 89.234895 
L 241.422653 84.837397 
L 251.65542 80.63502 
L 262.054132 76.621096 
L 272.611576 72.788817 
L 283.320539 69.131302 
L 294.173807 65.641646 
L 305.164362 62.312962 
L 316.286216 59.13842 
L 330.364555 55.376781 
L 344.628162 51.8327 
L 359.066052 48.493782 
L 373.668503 45.348076 
L 388.426913 42.384133 
L 403.332716 39.59104 
L 421.402312 36.450274 
L 439.659155 33.523693 
L 458.091774 30.795495 
L 476.68874 28.250968 
L 498.578957 25.496303 
L 520.664246 22.953057 
L 542.930589 20.602963 
L 552.525532 19.650727 
L 552.525532 19.650727 
" clip-path="url(#pb73db0e0c6)" style="fill: none; stroke: #08306b; stroke-width: 1.75; stroke-linecap: square"/>
   </g>
   <g id="patch_3">
    <path d="M 72.519063 281.116 
L 72.519063 7.2 
" style="fill: none; stroke: #000000; stroke-width: 0.8; stroke-linejoin: miter; stroke-linecap: square"/>
   </g>
   <g id="patch_4">
    <path d="M 552.525532 281.116 
L 552.525532 7.2 
" style="fill: none; stroke: #000000; stroke-width: 0.8; stroke-linejoin: miter; stroke-linecap: square"/>
   </g>
   <g id="patch_5">
    <path d="M 72.519063 281.116 
L 552.525532 281.116 
" style="fill: none; stroke: #000000; stroke-width: 0.8; stroke-linejoin: miter; stroke-linecap: square"/>
   </g>
   <g id="patch_6">
    <path d="M 72.519063 7.2 
L 552.525532 7.2 
" style="fill: none; stroke: #000000; stroke-width: 0.8; stroke-linejoin: miter; stroke-linecap: square"/>
   </g>
  </g>
 </g>
 <defs>
  <clipPath id="pb73db0e0c6">
   <rect x="72.519063" y="7.2" width="480.00647" height="273.916"/>
  </clipPath>
 </defs>
</svg>
